<svg xmlns="http://www.w3.org/2000/svg" width="30.956" height="29.298" viewBox="0 0 30.956 29.298">
  <path id="Path_287" data-name="Path 287" d="M345.216,115.633a9.81,9.81,0,0,1-.365,6.151,25.368,25.368,0,0,1-5.8,9.457,5.542,5.542,0,0,1-5.731,1.67,22.77,22.77,0,0,1-6.046-2.714,22.1,22.1,0,0,1-4.722-3.751,9.165,9.165,0,0,1-2.524-8.643,6.5,6.5,0,0,1,8.284-4.8,8.817,8.817,0,0,1,2.626,1.224c.652.454.685.458,1.05-.28a7.653,7.653,0,0,1,2.727-3.1,6.438,6.438,0,0,1,8.35.872A7.992,7.992,0,0,1,345.216,115.633Z" transform="matrix(0.966, 0.259, -0.259, 0.966, -274.43, -188.734)" fill="#fff"/>
</svg>
