<svg xmlns="http://www.w3.org/2000/svg" xmlns:xlink="http://www.w3.org/1999/xlink" width="246.299" height="246.299" viewBox="0 0 246.299 246.299">
  <defs>
    <filter id="Ellipse_4" x="0" y="0" width="246.299" height="246.299" filterUnits="userSpaceOnUse">
      <feOffset dx="1" dy="1" input="SourceAlpha"/>
      <feGaussianBlur stdDeviation="10" result="blur"/>
      <feFlood flood-color="#ff22c6" flood-opacity="0.2"/>
      <feComposite operator="in" in2="blur"/>
      <feComposite in="SourceGraphic"/>
    </filter>
  </defs>
  <g id="Group_162" data-name="Group 162" transform="translate(-3.638 -1.076) rotate(-3)">
    <g transform="matrix(1, 0.05, -0.05, 1, 3.58, 1.26)" filter="url(#Ellipse_4)">
      <circle id="Ellipse_4-2" data-name="Ellipse 4" cx="88.632" cy="88.632" r="88.632" transform="translate(29 38.28) rotate(-3)" fill="#fff"/>
    </g>
    <path id="Path_234" data-name="Path 234" d="M61.557,197.973" transform="translate(-27.204 -69.908)" fill="#ffecec"/>
    <path id="Path_235" data-name="Path 235" d="M221.057,184.333a.53.53,0,0,0,.543.3,4.435,4.435,0,0,0,.618-.153,5,5,0,0,1,.588-.15,33.76,33.76,0,0,0-.415-4.825c-.424,0-.849.013-1.275.026-.034.571-.063,1.1-.082,1.553A19.151,19.151,0,0,0,221.057,184.333Z" transform="translate(-98.211 -61.682)" fill="none"/>
    <path id="Path_236" data-name="Path 236" d="M206.4,247.387q-.685-.133-1.114,1.555a11.452,11.452,0,0,0-.285,3.672q.269,3.693,2.2,3.245l0-.03q.874-.216.638-3.452a16.51,16.51,0,0,0-.586-3.409Q206.8,247.419,206.4,247.387Z" transform="translate(-91.074 -91.911)" fill="none"/>
    <path id="Path_237" data-name="Path 237" d="M187.625,196.142c0-.023-.015-.046-.019-.069C187.616,196.134,187.622,196.154,187.625,196.142Z" transform="translate(-83.343 -69.061)" fill="#da6486"/>
    <path id="Path_238" data-name="Path 238" d="M241.222,256.4a1.857,1.857,0,0,0,1.417-.348,3.672,3.672,0,0,0,.712-1.582c-1.137-.018-2.273-.078-3.4-.176a8.839,8.839,0,0,0,.189,1.143A2.277,2.277,0,0,0,241.222,256.4Z" transform="translate(-106.655 -94.99)" fill="none"/>
    <path id="Path_239" data-name="Path 239" d="M207.2,257.164l0-.031q.874-.216.638-3.452a16.521,16.521,0,0,0-.576-3.373c-.662.09-1.348.2-2.055.324a11.654,11.654,0,0,0-.2,3.287Q205.272,257.612,207.2,257.164Z" transform="translate(-91.075 -93.216)" fill="none"/>
    <path id="Path_240" data-name="Path 240" d="M304.191,234.393a6.582,6.582,0,0,0-5.319-4.606,6.565,6.565,0,0,0,4.595-5.328,6.476,6.476,0,0,0,5.33,4.6A6.557,6.557,0,0,0,304.191,234.393Z" transform="translate(-132.897 -81.704)" fill="#d93fff"/>
    <path id="Path_241" data-name="Path 241" d="M127.842,242.983a4.913,4.913,0,0,0-3.971-3.438,4.9,4.9,0,0,0,3.429-3.977A4.835,4.835,0,0,0,131.279,239,4.893,4.893,0,0,0,127.842,242.983Z" transform="translate(-54.957 -86.651)" fill="#d93fff"/>
    <path id="Path_242" data-name="Path 242" d="M199.32,243.156a6.094,6.094,0,0,0-4.925-4.265,6.079,6.079,0,0,0,4.254-4.933,6,6,0,0,0,4.935,4.257A6.071,6.071,0,0,0,199.32,243.156Z" transform="translate(-86.366 -85.934)" fill="#9eff48"/>
    <path id="Path_243" data-name="Path 243" d="M326.861,220.743a4.259,4.259,0,0,0,2.6-3.037c.174.017.182.147.223.243a3.886,3.886,0,0,0,2.542,2.228c.112.035.286.019.3.168.008.125-.158.14-.254.187a3.966,3.966,0,0,0-2.228,2.648.433.433,0,0,1-.047.116c-.013.021-.043.032-.114.082A4.257,4.257,0,0,0,326.861,220.743Z" transform="translate(-145.362 -78.696)" fill="#da6486"/>
    <path id="Path_244" data-name="Path 244" d="M258.349,230.171a4.261,4.261,0,0,0,2.6-3.037c.174.016.182.147.224.243a3.883,3.883,0,0,0,2.542,2.227c.112.035.286.02.3.168.008.125-.158.14-.254.187a3.968,3.968,0,0,0-2.229,2.649.438.438,0,0,1-.047.116c-.013.021-.043.032-.114.081A4.259,4.259,0,0,0,258.349,230.171Z" transform="translate(-114.849 -82.895)" fill="#da6486"/>
    <path id="Path_245" data-name="Path 245" d="M233.589,154.342a4.259,4.259,0,0,0,2.6-3.037c.174.017.182.147.224.243a3.886,3.886,0,0,0,2.542,2.228c.112.035.286.02.3.168.008.125-.158.14-.254.187a3.967,3.967,0,0,0-2.229,2.648.437.437,0,0,1-.046.116c-.013.022-.043.033-.114.082A4.258,4.258,0,0,0,233.589,154.342Z" transform="translate(-103.822 -49.123)" fill="#d93fff"/>
    <path id="Path_246" data-name="Path 246" d="M82.261,170.851a6.582,6.582,0,0,0-5.319-4.606,6.564,6.564,0,0,0,4.595-5.328,6.475,6.475,0,0,0,5.33,4.6A6.557,6.557,0,0,0,82.261,170.851Z" transform="translate(-34.056 -53.404)" fill="#da6486"/>
    <path id="Path_247" data-name="Path 247" d="M66.167,236.127a4.231,4.231,0,0,0-3.418-2.96,4.219,4.219,0,0,0,2.952-3.423,4.161,4.161,0,0,0,3.425,2.954A4.213,4.213,0,0,0,66.167,236.127Z" transform="translate(-27.735 -84.057)" fill="#da6486"/>
    <path id="Path_248" data-name="Path 248" d="M194.771,167.965a6.583,6.583,0,0,0-5.319-4.606,6.564,6.564,0,0,0,4.594-5.328,6.478,6.478,0,0,0,5.331,4.6A6.556,6.556,0,0,0,194.771,167.965Z" transform="translate(-84.165 -52.119)" fill="#da6486"/>
    <path id="Path_249" data-name="Path 249" d="M309.058,160.6a6.583,6.583,0,0,0-5.32-4.606,6.564,6.564,0,0,0,4.594-5.328,6.478,6.478,0,0,0,5.331,4.6A6.555,6.555,0,0,0,309.058,160.6Z" transform="translate(-135.064 -48.837)" fill="#ffbdd1"/>
    <path id="Path_250" data-name="Path 250" d="M64.532,183.672a4.259,4.259,0,0,0,2.6-3.037c.174.017.182.147.224.243a3.887,3.887,0,0,0,2.541,2.228c.113.035.286.019.3.168.008.125-.158.14-.254.187a3.966,3.966,0,0,0-2.229,2.648.431.431,0,0,1-.047.116c-.013.021-.043.032-.114.082A4.258,4.258,0,0,0,64.532,183.672Z" transform="translate(-28.529 -62.186)" fill="#da6486"/>
    <path id="Path_251" data-name="Path 251" d="M106.78,174.033a4.261,4.261,0,0,0,2.6-3.037c.174.016.182.147.224.243a3.884,3.884,0,0,0,2.542,2.227c.112.035.286.02.3.168.008.125-.158.14-.254.187a3.966,3.966,0,0,0-2.229,2.648.439.439,0,0,1-.047.116c-.013.021-.043.032-.114.082A4.257,4.257,0,0,0,106.78,174.033Z" transform="translate(-47.345 -57.893)" fill="#ffbdd1"/>
    <path id="Path_252" data-name="Path 252" d="M161.712,171.12a4.26,4.26,0,0,0,2.6-3.036c.174.016.182.146.223.243a3.885,3.885,0,0,0,2.541,2.228c.113.035.286.02.3.168.008.125-.159.14-.255.187a3.966,3.966,0,0,0-2.228,2.648.424.424,0,0,1-.047.116c-.013.022-.043.033-.114.082A4.26,4.26,0,0,0,161.712,171.12Z" transform="translate(-71.81 -56.596)" fill="#71f8ff"/>
    <path id="Path_253" data-name="Path 253" d="M109.256,243.985a2.939,2.939,0,0,0,1.793-2.094c.12.011.125.1.154.168a2.678,2.678,0,0,0,1.752,1.536c.078.024.2.013.2.116.006.086-.109.1-.175.129a2.735,2.735,0,0,0-1.536,1.826.286.286,0,0,1-.032.08c-.009.015-.029.023-.078.057A2.936,2.936,0,0,0,109.256,243.985Z" transform="translate(-48.448 -89.467)" fill="#da6486"/>
    <path id="Path_254" data-name="Path 254" d="M282.155,240.595a2.938,2.938,0,0,0,1.793-2.094c.12.011.125.1.154.168a2.679,2.679,0,0,0,1.752,1.536c.078.024.2.013.2.116.006.086-.109.1-.175.129a2.735,2.735,0,0,0-1.536,1.826.293.293,0,0,1-.032.08c-.009.014-.029.022-.078.056A2.935,2.935,0,0,0,282.155,240.595Z" transform="translate(-125.452 -87.957)" fill="#da6486"/>
    <path id="Path_255" data-name="Path 255" d="M65.088,207.582a2.937,2.937,0,0,0,1.793-2.093c.12.011.125.1.154.167a2.679,2.679,0,0,0,1.752,1.536c.078.024.2.013.2.115.006.087-.109.1-.175.129a2.735,2.735,0,0,0-1.536,1.826.3.3,0,0,1-.032.08c-.009.015-.029.022-.078.057A2.935,2.935,0,0,0,65.088,207.582Z" transform="translate(-28.777 -73.255)" fill="#9eff48"/>
    <path id="Path_256" data-name="Path 256" d="M125.9,173.16a2.936,2.936,0,0,0,1.793-2.094c.12.012.125.1.154.168a2.677,2.677,0,0,0,1.752,1.536c.078.024.2.014.2.116.006.086-.109.1-.175.129a2.735,2.735,0,0,0-1.536,1.826.3.3,0,0,1-.032.08c-.009.014-.029.022-.078.056A2.937,2.937,0,0,0,125.9,173.16Z" transform="translate(-55.859 -57.924)" fill="#da6486"/>
    <path id="Path_257" data-name="Path 257" d="M255.546,167.237a2.936,2.936,0,0,0,1.793-2.093c.12.011.125.1.154.167a2.679,2.679,0,0,0,1.752,1.536c.078.024.2.013.2.115.005.087-.109.1-.175.129a2.735,2.735,0,0,0-1.536,1.826.291.291,0,0,1-.032.08c-.009.015-.029.022-.078.057A2.937,2.937,0,0,0,255.546,167.237Z" transform="translate(-113.601 -55.287)" fill="#da6486"/>
    <path id="Path_258" data-name="Path 258" d="M327.276,208.865a2.936,2.936,0,0,0,1.793-2.093c.12.011.125.1.154.168a2.682,2.682,0,0,0,1.753,1.536c.077.024.2.013.2.115.006.087-.109.1-.175.129a2.734,2.734,0,0,0-1.536,1.826.286.286,0,0,1-.032.08c-.009.015-.029.022-.079.057A2.935,2.935,0,0,0,327.276,208.865Z" transform="translate(-145.547 -73.826)" fill="#71f8ff"/>
    <path id="Path_259" data-name="Path 259" d="M323.016,147.487a2.939,2.939,0,0,0,1.792-2.094c.12.011.125.1.154.168a2.678,2.678,0,0,0,1.752,1.536c.078.024.2.013.2.116.005.086-.109.1-.175.129a2.734,2.734,0,0,0-1.536,1.826.288.288,0,0,1-.032.08c-.009.015-.029.023-.078.057A2.936,2.936,0,0,0,323.016,147.487Z" transform="translate(-143.65 -46.49)" fill="#da6486"/>
    <path id="Path_260" data-name="Path 260" d="M103.9,152.546a2.4,2.4,0,0,0,1.468-1.714c.1.009.1.083.126.138a2.194,2.194,0,0,0,1.435,1.257c.063.02.161.011.167.095s-.089.079-.144.105a2.239,2.239,0,0,0-1.257,1.5.248.248,0,0,1-.027.065c-.007.012-.024.018-.064.046A2.4,2.4,0,0,0,103.9,152.546Z" transform="translate(-46.06 -48.913)" fill="#da6486"/>
    <path id="Path_261" data-name="Path 261" d="M184.22,252.3a2.4,2.4,0,0,0,1.468-1.714c.1.009.1.083.126.137a2.194,2.194,0,0,0,1.435,1.257c.063.02.161.011.167.095s-.089.079-.144.105a2.239,2.239,0,0,0-1.258,1.5.247.247,0,0,1-.026.065c-.007.012-.024.018-.064.046A2.4,2.4,0,0,0,184.22,252.3Z" transform="translate(-81.835 -93.338)" fill="#da6486"/>
    <path id="Path_262" data-name="Path 262" d="M279.768,155.565a2.4,2.4,0,0,0,1.468-1.714c.1.009.1.083.126.138a2.193,2.193,0,0,0,1.435,1.257c.063.02.161.011.167.095s-.089.079-.144.105a2.241,2.241,0,0,0-1.258,1.495.226.226,0,0,1-.026.065c-.007.012-.024.018-.064.047A2.4,2.4,0,0,0,279.768,155.565Z" transform="translate(-124.389 -50.257)" fill="#9eff48"/>
    <path id="Path_263" data-name="Path 263" d="M223.136,234.986a2.406,2.406,0,0,0,1.468-1.714c.1.01.1.083.126.138a2.192,2.192,0,0,0,1.435,1.257c.063.02.161.011.167.095s-.089.079-.144.106a2.24,2.24,0,0,0-1.258,1.495.246.246,0,0,1-.026.065c-.007.012-.024.018-.064.046A2.4,2.4,0,0,0,223.136,234.986Z" transform="translate(-99.167 -85.629)" fill="#ffbdd1"/>
    <path id="Path_264" data-name="Path 264" d="M166.488,239.06a2.4,2.4,0,0,0,1.468-1.714c.1.009.1.083.126.137a2.194,2.194,0,0,0,1.435,1.258c.063.02.161.011.167.095s-.089.079-.143.105a2.238,2.238,0,0,0-1.258,1.495.252.252,0,0,1-.027.066c-.007.012-.024.018-.064.046A2.4,2.4,0,0,0,166.488,239.06Z" transform="translate(-73.937 -87.443)" fill="#da6486"/>
    <path id="Path_265" data-name="Path 265" d="M382.368,156.232a2.013,2.013,0,0,0-.926-1.59c-2.991-.749-8.328-.014-13.332,1.033a88.693,88.693,0,0,1,2.752,13.564C376.706,164.847,382.568,159.578,382.368,156.232Z" transform="translate(-163.734 -50.473)" fill="none"/>
    <g id="Group_157" data-name="Group 157" transform="translate(196.074 95.14)">
      <path id="Path_266" data-name="Path 266" d="M393.627,138.608a1.9,1.9,0,0,1,.653,2.178c-1.669,6.621-18.117,17.8-29.727,24.987-6,3.713-10.706,6.356-11.413,6.752l.1,1.576s4.927-2.762,11.429-6.791c12-7.438,29.382-19.2,31.072-25.905C396.127,139.873,395.3,139,393.627,138.608Z" transform="translate(-353.14 -138.608)" fill="#f9aac4"/>
      <path id="Path_267" data-name="Path 267" d="M381.238,154.146c-2.2-1.532-7.967-.934-13.586.17.085.288.172.575.255.863C372.91,154.132,378.247,153.4,381.238,154.146Z" transform="translate(-359.603 -145.117)" fill="#f9aac4"/>
    </g>
    <path id="Path_268" data-name="Path 268" d="M393.354,137.944c-3.712-2.757-20.534,1.921-33.412,6.109.083.246.16.494.241.741q.382,1.167.732,2.349c5.62-1.1,11.387-1.7,13.586-.17a2.012,2.012,0,0,1,.926,1.59c.2,3.347-5.663,8.615-11.505,13.007-5.708,4.29-11.4,7.742-11.4,7.742l.244,2.6.1-.054c.707-.4,5.412-3.038,11.413-6.752,11.61-7.184,28.058-18.366,29.727-24.987A1.9,1.9,0,0,0,393.354,137.944Z" transform="translate(-156.793 -42.805)" fill="#b6c6ef"/>
    <g id="Group_158" data-name="Group 158" transform="translate(42.272 112.492)">
      <path id="Path_269" data-name="Path 269" d="M75.864,211.06c.022.909.058,1.824.125,2.75q.553,8.024,2.884,9.542a3.83,3.83,0,0,0,2.446.541,4.763,4.763,0,0,0,2.917-1.15,5.734,5.734,0,0,0,.517-3.195,19.7,19.7,0,0,0-.571-3.115l.2-.234a1.755,1.755,0,0,1,.642.235,19.128,19.128,0,0,0,2.327,4.05q2.336,3.332,3.818,3.067a3.1,3.1,0,0,0,2.253-1.258,4.7,4.7,0,0,0,.722-2.96q-.156-2.146-2.514-5.757c-.659-.976-1.155-1.7-1.494-2.188A31.065,31.065,0,0,1,75.864,211.06Z" transform="translate(-75.848 -188.228)" fill="#da6486"/>
      <path id="Path_270" data-name="Path 270" d="M112.531,208.447a60.53,60.53,0,0,0,1.338,8.936q.615,2.863,3.756,2.633.248-.017.928-.13,2.255-.79,2.587-3.971a60.416,60.416,0,0,0,.072-10.57c-3.054.636-5.977,1.327-8.741,2.031C112.487,207.729,112.507,208.085,112.531,208.447Z" transform="translate(-92.152 -185.683)" fill="#da6486"/>
      <path id="Path_271" data-name="Path 271" d="M132.722,202.382q.059,4.161.2,6.088a14.192,14.192,0,0,0,.772,4.164,18.227,18.227,0,0,0,1.7,2.783A3.436,3.436,0,0,0,138,216.446a4.213,4.213,0,0,0,2.038-.774,4.455,4.455,0,0,0,1.16-2.523,10.636,10.636,0,0,0-.206-2.83q-.431-2.469-.464-2.936a8.069,8.069,0,0,1,.04-1.6q1.3,4.938,3.1,6.557a1.893,1.893,0,0,0,1.051.267,1.742,1.742,0,0,0,1.093-.454q.792-.715,1.632-3.777.636-2.422.758-2.9a8.852,8.852,0,0,1,.191,3.049,31.978,31.978,0,0,0-.111,3.2,4.7,4.7,0,0,0,1.149,2.9,2.8,2.8,0,0,0,2.357,1.032,4.942,4.942,0,0,0,.828-.217q.826-.248,1.252-.4a2.416,2.416,0,0,0,1.3-1.033,4.245,4.245,0,0,0,.47-2.566l0-.031q-.245-3.359-.74-8.449-.136-1.571-.272-3.143A138.759,138.759,0,0,0,132.722,202.382Z" transform="translate(-101.171 -183.221)" fill="#da6486"/>
      <path id="Path_272" data-name="Path 272" d="M177.072,203.331a60.454,60.454,0,0,0,1.339,8.936q.614,2.863,3.755,2.633.248-.017.928-.13,2.255-.79,2.587-3.971a60.735,60.735,0,0,0,.057-10.783c-2.949-.227-5.881-.318-8.779-.3C176.952,200.865,176.988,202.066,177.072,203.331Z" transform="translate(-120.872 -183.177)" fill="#da6486"/>
      <path id="Path_273" data-name="Path 273" d="M197.791,208.059A8.864,8.864,0,0,0,200.4,213.9a10.945,10.945,0,0,0,3.2.517q2.456-.179,2.214-3.506-.025-.341-.354-2.287a21.424,21.424,0,0,1-.3-2.354q2.036-.367,2.6-.408a3.134,3.134,0,0,0,2.168-2,7.106,7.106,0,0,0,.365-.828,86.343,86.343,0,0,0-13.418-2.412Z" transform="translate(-129.742 -183.579)" fill="#da6486"/>
      <path id="Path_274" data-name="Path 274" d="M225.341,206.109c0,.627,0,1.277.018,1.965q.03,1.28.055,1.622.379,5.193,3.116,6.306l.067.057a8.882,8.882,0,0,0,2.106.159,3.038,3.038,0,0,0,2.55-1.467,5.718,5.718,0,0,0,.523-2.7q-.1-.555-.186-.83a17.178,17.178,0,0,1,2.821-.331,4.662,4.662,0,0,0,.556,2.054,8.451,8.451,0,0,0,.895,1.123,4.077,4.077,0,0,0,2.54.534,6.951,6.951,0,0,0,1.6-.3,2.239,2.239,0,0,0,1.7-2l0-.032a29.173,29.173,0,0,0,.1-5.54c0-.043-.009-.089-.012-.133C237.344,207.446,231.037,207.518,225.341,206.109Z" transform="translate(-142.42 -186.023)" fill="#da6486"/>
      <path id="Path_275" data-name="Path 275" d="M263.878,211.25a6.8,6.8,0,0,0,1.9,1.612,7.363,7.363,0,0,0,3.188.425,6.834,6.834,0,0,0,3.39-1.092,7.506,7.506,0,0,0,2.412-2.5,4,4,0,0,0,.579-2.778,1.976,1.976,0,0,0-1.522-1.577,3.232,3.232,0,0,0-2.083.152,1.214,1.214,0,0,1-.735-1.072c.043-.438.073-.8.089-1.105-2.958.689-5.944,1.3-8.912,1.758Q262.75,209.649,263.878,211.25Z" transform="translate(-158.829 -184.777)" fill="#da6486"/>
      <path id="Path_276" data-name="Path 276" d="M291.075,201.409l.09,1.241a5.551,5.551,0,0,0,.99,3.3,4.478,4.478,0,0,0,2.48,1,4.645,4.645,0,0,0,1.128.042,5.036,5.036,0,0,0,2.789-1.193,4.538,4.538,0,0,0,.713-3.08,12.217,12.217,0,0,0-.194-1.377q3.18,5.459,5.8,4.986a4.911,4.911,0,0,0,2.606-1.565,6.411,6.411,0,0,0,1.323-2l.031,0a3.8,3.8,0,0,0,.022-.564q-.186-2.549-3.976-6.088a22.729,22.729,0,0,0,1.652-1.777,6.336,6.336,0,0,0,.973-2.429c-5.03,1.238-10.748,2.965-16.745,4.576Q290.981,201.326,291.075,201.409Z" transform="translate(-171.556 -179.695)" fill="#da6486"/>
      <path id="Path_277" data-name="Path 277" d="M328.168,189.617a70.082,70.082,0,0,0,3.72,5.978q.072.557.123,1.679l.131,1.8a10.11,10.11,0,0,0,.673,3.233,3.517,3.517,0,0,0,3.594,1.708,6.635,6.635,0,0,0,.711-.114,4.416,4.416,0,0,0,2.524-2.685,10.5,10.5,0,0,0,.437-3.876q-.16-2.615-.257-3.951c.578-1.283,1.059-2.388,1.452-3.328-.769-.2-1.519-.426-2.246-.687C336.438,188.444,332.687,188.715,328.168,189.617Z" transform="translate(-188.216 -178.312)" fill="#da6486"/>
      <path id="Path_278" data-name="Path 278" d="M91.7,197.546a11.037,11.037,0,0,0,1.586-6.118,3.709,3.709,0,0,0-.569-1.8q-1.371-2.087-4.869-1.615-1.614.586-2.72,3.855a11.53,11.53,0,0,0-.825,4.124c.009.125.024.2.047.216a.343.343,0,0,1-.324.274.419.419,0,0,1-.424-.251q-.025-.342-.032-2.155t-.052-2.434q-.037-.5-.158-1.3a3.05,3.05,0,0,0-3.27-1.543,3.438,3.438,0,0,0-2.859,1.521l-.032,0q-.805.527-1.176,4.665a51.153,51.153,0,0,0-.176,5.772,31.064,31.064,0,0,0,14.275.329c-.082-.117-.157-.224-.22-.313Q91.093,198.622,91.7,197.546Z" transform="translate(-75.835 -177.924)" fill="#f9aac4"/>
      <path id="Path_279" data-name="Path 279" d="M120.9,195.044q-.2-1.829-.288-3.1l-.418-1.876a2.105,2.105,0,0,0-1.257-1.378,5.337,5.337,0,0,0-1.221-.036,5.282,5.282,0,0,0-4.432,2.667l-.688,2.145a40.152,40.152,0,0,0-.167,6.471c2.764-.7,5.687-1.394,8.741-2.031-.012-.167-.022-.331-.034-.5Q121.094,196.874,120.9,195.044Z" transform="translate(-92.107 -178.239)" fill="#f9aac4"/>
      <path id="Path_280" data-name="Path 280" d="M153.808,187.776a5.782,5.782,0,0,0-1.852-2.678,3.252,3.252,0,0,0-2.689-.867,9.008,9.008,0,0,0-2.456.617q-1.44.824-2.386,4.144a16.543,16.543,0,0,0-.706,3.615q-2.673-7.089-6.8-6.663a6.182,6.182,0,0,0-3.152,2.434,7.008,7.008,0,0,0-1.1,3.972q.011,1.672.031,3.085a138.766,138.766,0,0,1,21.909-2.564q-.063-.727-.126-1.454A18.132,18.132,0,0,0,153.808,187.776Z" transform="translate(-101.146 -176.273)" fill="#f9aac4"/>
      <path id="Path_281" data-name="Path 281" d="M185.484,190.339q-.2-1.829-.288-3.1l-.418-1.876a2.106,2.106,0,0,0-1.257-1.378,5.342,5.342,0,0,0-1.222-.036,5.282,5.282,0,0,0-4.432,2.667l-.688,2.145a35.775,35.775,0,0,0-.22,3.932c2.9-.023,5.83.068,8.779.3-.007-.1-.012-.189-.019-.286Q185.681,192.169,185.484,190.339Z" transform="translate(-120.873 -176.143)" fill="#f9aac4"/>
      <path id="Path_282" data-name="Path 282" d="M209.65,191.625l0,.031a3.072,3.072,0,0,0-2.81-1.671,7.566,7.566,0,0,0-1.055.327,6.525,6.525,0,0,1-1.117.332.591.591,0,0,1-.446-.124,8.305,8.305,0,0,0,.223-2.079q.133-.323,1.474-.8a5.4,5.4,0,0,0,1.667-.715,3.152,3.152,0,0,0,1.251-3,3.744,3.744,0,0,0-1.7-2.69,12.4,12.4,0,0,0-3.669-.17q-4.2.306-5.709,1.448a3.389,3.389,0,0,0-1.64,2.808q.043,2.31.034,3.467l.382,3.1a86.328,86.328,0,0,1,13.418,2.412,3.022,3.022,0,0,0,.236-1.217A3.2,3.2,0,0,0,209.65,191.625Z" transform="translate(-129.409 -174.848)" fill="#f9aac4"/>
      <path id="Path_283" data-name="Path 283" d="M239.429,179.521a6.848,6.848,0,0,0-5.8-1.922,6.31,6.31,0,0,0-5.143,2.782,18.637,18.637,0,0,0-2.784,7.268,38.286,38.286,0,0,0-.363,5.75c5.7,1.409,12,1.337,18.445.489a46.9,46.9,0,0,0-2.538-11.279A8.184,8.184,0,0,0,239.429,179.521Zm-4.187,12.465a5.166,5.166,0,0,0-.6.153,4.426,4.426,0,0,1-.629.155.539.539,0,0,1-.553-.3,19.5,19.5,0,0,1-.023-3.312q.067-1.661.278-4.334.408-.4.642-.2A47.484,47.484,0,0,1,235.241,191.986Z" transform="translate(-142.42 -173.312)" fill="#f9aac4"/>
      <path id="Path_284" data-name="Path 284" d="M270.743,190.2a2.46,2.46,0,0,1,.935-.037,3.317,3.317,0,0,0,2.546-1.092,3.48,3.48,0,0,0,1.135-2.865,3.02,3.02,0,0,0-.163-.957,3.171,3.171,0,0,0-2.75-1.269,3.551,3.551,0,0,0-2.217.881.748.748,0,0,1-.693-.507q.017-.188-.015-1.486a3.989,3.989,0,0,1,.142-1.5l.684-.05a4.176,4.176,0,0,0,2.706-1.041,2.722,2.722,0,0,0,.837-2.249,3.182,3.182,0,0,0-.268-1.106q-.524-1.181-2.949-1a12.45,12.45,0,0,0-2.529.466l-5.155.907q-1.211.963-1.4,3.916a63.741,63.741,0,0,0,0,9c.074.955.162,1.834.262,2.647,2.968-.46,5.954-1.068,8.912-1.758A3.89,3.89,0,0,0,270.743,190.2Z" transform="translate(-158.491 -172.568)" fill="#f9aac4"/>
      <path id="Path_285" data-name="Path 285" d="M305.785,176.321q-1.992-2.887-6.761-2.7a35.923,35.923,0,0,0-5.321,1.2q-2.829,1.08-3.063,3.435a77.113,77.113,0,0,0-.031,9.451c.009.214.019.421.028.623,6-1.611,11.715-3.338,16.745-4.576a8.277,8.277,0,0,0,.111-2A13.418,13.418,0,0,0,305.785,176.321Zm-6.091,8.43a5.575,5.575,0,0,1-1.921,1.312q-.111-1.523-.266-3.232a4.5,4.5,0,0,1-.022-1.592,4.665,4.665,0,0,1,.932-.505,1.047,1.047,0,0,1,.316.039l.031,0a3.463,3.463,0,0,1,1.638,2.319A2.2,2.2,0,0,1,299.695,184.751Z" transform="translate(-171.434 -171.55)" fill="#f9aac4"/>
      <path id="Path_286" data-name="Path 286" d="M341.424,173.971a3.975,3.975,0,0,0-1.909-3.456,3.38,3.38,0,0,0-2.388-.607,4.982,4.982,0,0,0-1.81.475q-1.7,1.938-2.646,7.882-.141-.208-1.139-2.762a7.618,7.618,0,0,0-1.505-2.641,2.921,2.921,0,0,0-2.878-1.322,3.594,3.594,0,0,0-1.65.526l-.031,0a3.051,3.051,0,0,0-1.368,3.1,16.544,16.544,0,0,0,2.25,6.028c4.519-.9,8.27-1.173,10.862-.24.727.261,1.477.489,2.246.687.325-.78.59-1.449.787-1.993A19.2,19.2,0,0,0,341.424,173.971Z" transform="translate(-186.398 -169.894)" fill="#f9aac4"/>
    </g>
    <path id="Path_290" data-name="Path 290" d="M36.041,236.347a2.048,2.048,0,0,0,.634,1.875c2.055,1.888,7.795,1.362,13.753.121a88.45,88.45,0,0,1-3.01-12.954C43.048,228.734,38,233.032,36.041,236.347Z" transform="translate(-15.83 -82.117)" fill="none"/>
    <path id="Path_291" data-name="Path 291" d="M36.06,235.291c1.959-3.315,7.007-7.613,11.377-10.959-.068-.437-.129-.875-.19-1.314C42.118,227.027,36.467,232.106,36.06,235.291Z" transform="translate(-15.849 -81.062)" fill="#f9aac4"/>
    <path id="Path_292" data-name="Path 292" d="M53.03,242.967l-.032.011.262.258s-7.871,3.145-17.531,6.3c-12.395,4.05-27.734,8.12-33.163,5.585A1.891,1.891,0,0,1,1.3,253.166c-1.155,1.853-1.177,3.286.454,4.048,5.461,2.549,21.562-1.861,34.531-6.177,9.973-3.319,18.093-6.582,18.093-6.582Z" transform="translate(0 -89.947)" fill="#f9aac4"/>
    <path id="Path_293" data-name="Path 293" d="M53.654,231.544l-1.6-1.575a149.083,149.083,0,0,1-16.8,4.769c-5.958,1.241-11.7,1.767-13.753-.121a2.048,2.048,0,0,1-.634-1.875c.407-3.186,6.058-8.265,11.186-12.273-.079-.564-.155-1.129-.223-1.7q-.089-.737-.165-1.479C20.019,224.61,2.349,236.529,1.955,241.732a1.891,1.891,0,0,0,1.268,1.957c5.429,2.535,20.768-1.535,33.163-5.585,9.659-3.156,17.531-6.3,17.531-6.3Z" transform="translate(-0.656 -78.513)" fill="#b6c6ef"/>
  </g>
</svg>
