<svg version="1.2" baseProfile="tiny-ps" xmlns="http://www.w3.org/2000/svg" viewBox="0 0 21 25" width="21" height="25">
	<title>tiktok-svg</title>
	<style>
		tspan { white-space:pre }
		.shp0 { fill: #ffffff } 
	</style>
	<g id="Group_475">
		<path id="Path_1311" fill-rule="evenodd" class="shp0" d="M9.49 16.2C9.49 15.57 9.48 14.94 9.49 14.31C9.49 14.01 9.39 13.89 9.08 13.89C8.76 13.89 8.63 14.01 8.67 14.31C8.72 14.71 8.55 14.85 8.15 14.83C7.48 14.81 6.81 14.81 6.14 14.84C5.79 14.85 5.64 14.72 5.69 14.38C5.74 14.02 5.59 13.85 5.22 13.91C4.85 13.96 4.66 13.82 4.7 13.42C4.74 13.08 4.58 12.93 4.24 12.97C3.88 13.01 3.74 12.86 3.75 12.49C3.77 11.82 3.77 11.15 3.75 10.48C3.73 10.12 3.85 9.95 4.22 10C4.6 10.05 4.72 9.89 4.7 9.53C4.69 9.25 4.6 9.1 4.31 9.13C3.9 9.18 3.69 9.05 3.75 8.6C3.79 8.28 3.63 8.2 3.33 8.19C2.78 8.19 2.76 8.17 2.76 7.63C2.75 6.66 2.76 5.7 2.75 4.74C2.74 4.39 2.84 4.19 3.22 4.24C3.62 4.29 3.8 4.14 3.74 3.73C3.69 3.4 3.85 3.29 4.17 3.3C4.85 3.31 5.52 3.29 6.19 3.3C6.5 3.31 6.6 3.19 6.6 2.89C6.6 2.33 6.61 2.31 7.18 2.31C7.49 2.31 7.63 2.2 7.59 1.89C7.53 1.49 7.7 1.36 8.1 1.37C9.37 1.38 10.64 1.38 11.92 1.36C12.28 1.35 12.49 1.43 12.43 1.84C12.38 2.19 12.54 2.34 12.88 2.29C13.3 2.23 13.48 2.41 13.43 2.84C13.38 3.18 13.53 3.3 13.88 3.29C14.54 3.26 15.19 3.29 15.85 3.27C16.18 3.26 16.33 3.38 16.28 3.71C16.23 4.12 16.42 4.26 16.81 4.21C17.15 4.16 17.28 4.32 17.28 4.67C17.27 5.67 17.27 6.68 17.29 7.68C17.29 8.04 17.15 8.21 16.8 8.17C16.42 8.12 16.24 8.27 16.3 8.66C16.35 9.02 16.15 9.13 15.83 9.1C15.5 9.07 15.35 9.19 15.35 9.54C15.35 9.9 15.51 10.02 15.83 9.97C16.21 9.92 16.32 10.1 16.31 10.46C16.29 11.13 16.29 11.8 16.31 12.47C16.32 12.8 16.22 12.98 15.87 12.94C15.48 12.9 15.32 13.06 15.37 13.45C15.4 13.76 15.27 13.93 14.93 13.89C14.53 13.83 14.32 13.96 14.39 14.41C14.43 14.71 14.29 14.83 13.98 14.82C13.28 14.81 12.58 14.8 11.88 14.83C11.54 14.84 11.38 14.72 11.42 14.37C11.44 14.06 11.36 13.88 10.98 13.89C10.58 13.89 10.59 14.13 10.59 14.41C10.59 15.63 10.6 16.86 10.59 18.09C10.59 18.39 10.65 18.56 11.01 18.57C11.37 18.57 11.46 18.41 11.43 18.1C11.38 17.71 11.57 17.57 11.94 17.61C12.27 17.65 12.46 17.55 12.41 17.18C12.35 16.81 12.51 16.63 12.89 16.69C13.25 16.74 13.38 16.57 13.34 16.23C13.28 15.81 13.47 15.65 13.89 15.69C14.22 15.71 14.56 15.68 14.89 15.69C15.16 15.7 15.26 15.59 15.26 15.32C15.27 14.76 15.29 14.75 15.85 14.75C16.5 14.75 17.16 14.76 17.82 14.74C18.13 14.74 18.24 14.86 18.24 15.16C18.23 16.2 18.24 17.23 18.25 18.26C18.25 18.54 18.14 18.67 17.85 18.66C17.47 18.65 17.09 18.67 16.72 18.66C16.43 18.65 16.29 18.75 16.33 19.04C16.39 19.48 16.24 19.71 15.76 19.65C15.46 19.62 15.38 19.79 15.39 20.06C15.4 20.43 15.38 20.79 15.39 21.15C15.39 21.41 15.28 21.53 15 21.52C14.64 21.51 14.28 21.53 13.91 21.51C13.6 21.5 13.46 21.59 13.46 21.93C13.47 22.51 13.45 22.51 12.88 22.51C12.26 22.52 11.65 22.53 11.03 22.51C10.73 22.51 10.6 22.61 10.6 22.92C10.59 23.03 10.56 23.13 10.5 23.22C10.44 23.31 10.35 23.38 10.26 23.43C10.16 23.48 10.05 23.51 9.94 23.5C9.83 23.49 9.73 23.46 9.64 23.4C9.47 23.3 9.5 23.1 9.51 22.94C9.53 22.61 9.38 22.51 9.06 22.52C8.42 22.53 7.78 22.51 7.13 22.53C6.78 22.54 6.59 22.43 6.64 22.05C6.71 21.61 6.5 21.49 6.09 21.53C5.77 21.56 5.45 21.52 5.13 21.54C4.84 21.55 4.72 21.44 4.72 21.15C4.73 20.8 4.71 20.45 4.72 20.1C4.74 19.78 4.61 19.63 4.28 19.67C3.87 19.72 3.73 19.51 3.78 19.13C3.82 18.78 3.66 18.66 3.32 18.68C2.96 18.7 2.59 18.68 2.23 18.69C2 18.69 1.86 18.61 1.86 18.36C1.86 17.27 1.85 16.18 1.85 15.09C1.84 15.05 1.85 15.01 1.86 14.97C1.87 14.93 1.89 14.89 1.92 14.86C1.95 14.83 1.99 14.81 2.03 14.79C2.07 14.78 2.11 14.77 2.15 14.78C2.94 14.78 3.72 14.78 4.5 14.77C4.77 14.77 4.82 14.92 4.83 15.15C4.85 15.71 4.86 15.71 5.42 15.71C5.7 15.71 5.98 15.72 6.26 15.7C6.62 15.68 6.8 15.81 6.75 16.18C6.7 16.57 6.85 16.76 7.26 16.7C7.59 16.65 7.73 16.8 7.68 17.12C7.63 17.5 7.78 17.68 8.17 17.62C8.55 17.56 8.73 17.72 8.68 18.11C8.65 18.42 8.76 18.57 9.1 18.56C9.47 18.56 9.5 18.36 9.5 18.08C9.49 17.45 9.49 16.82 9.49 16.2ZM7.66 8.58C7.66 8.9 7.68 9.22 7.66 9.54C7.64 9.87 7.74 10.05 8.1 9.99C8.56 9.92 8.71 10.13 8.66 10.56C8.63 10.83 8.77 10.92 9.04 10.92C9.69 10.91 10.35 10.9 11.01 10.92C11.29 10.92 11.44 10.82 11.4 10.53C11.35 10.08 11.56 9.92 11.99 9.98C12.3 10.03 12.4 9.88 12.39 9.57C12.37 8.93 12.37 8.29 12.39 7.65C12.4 7.31 12.3 7.14 11.94 7.19C11.56 7.24 11.35 7.11 11.4 6.69C11.43 6.37 11.29 6.24 10.96 6.25C10.32 6.27 9.67 6.26 9.03 6.26C8.77 6.25 8.62 6.35 8.66 6.62C8.72 7.09 8.52 7.27 8.06 7.2C7.75 7.16 7.64 7.3 7.66 7.61C7.68 7.92 7.66 8.25 7.66 8.57L7.66 8.58ZM8.58 21.47C8.75 21.46 8.92 21.45 9.09 21.46C9.39 21.49 9.51 21.37 9.51 21.06C9.5 20.77 9.47 20.55 9.1 20.6C8.72 20.65 8.51 20.5 8.57 20.09C8.61 19.77 8.46 19.62 8.13 19.66C7.77 19.7 7.57 19.56 7.63 19.16C7.69 18.77 7.53 18.62 7.14 18.67C6.75 18.73 6.58 18.57 6.63 18.18C6.67 17.87 6.55 17.7 6.21 17.74C5.81 17.79 5.64 17.62 5.69 17.22C5.75 16.83 5.57 16.72 5.21 16.76C5.15 16.76 5.08 16.76 5.01 16.77C4.95 16.77 4.88 16.77 4.81 16.77C4.75 16.77 4.68 16.77 4.62 16.77C4.55 16.77 4.48 16.77 4.42 16.76C3.89 16.76 3.73 16.87 3.77 16.17C3.79 15.84 3.58 15.82 3.33 15.83C3.09 15.83 2.88 15.82 2.89 16.16C2.91 16.54 2.9 16.92 2.89 17.29C2.89 17.55 3 17.64 3.25 17.63C3.63 17.62 4 17.64 4.38 17.62C4.69 17.61 4.87 17.71 4.83 18.05C4.77 18.45 4.94 18.61 5.34 18.57C5.64 18.53 5.78 18.67 5.76 18.98C5.74 19.32 5.78 19.65 5.75 19.98C5.72 20.4 5.89 20.53 6.29 20.49C6.62 20.47 6.95 20.49 7.29 20.49C7.56 20.48 7.71 20.58 7.69 20.88C7.65 21.58 7.77 21.46 8.33 21.47C8.42 21.47 8.5 21.47 8.58 21.46L8.58 21.47ZM17.19 16.7C17.19 16.66 17.18 16.63 17.18 16.59C17.18 16.55 17.18 16.51 17.18 16.47C17.18 16.43 17.18 16.4 17.18 16.36C17.19 16.32 17.19 16.28 17.19 16.24C17.23 15.88 17.06 15.79 16.73 15.8C16.42 15.8 16.28 15.9 16.32 16.21C16.37 16.59 16.24 16.78 15.81 16.74C15.5 16.72 15.17 16.76 14.85 16.74C14.52 16.71 14.34 16.82 14.4 17.18C14.46 17.6 14.28 17.77 13.86 17.73C13.54 17.69 13.43 17.86 13.46 18.15C13.51 18.56 13.33 18.72 12.94 18.67C12.61 18.63 12.41 18.73 12.47 19.1C12.55 19.56 12.33 19.7 11.9 19.66C11.7 19.64 11.52 19.7 11.55 19.95C11.62 20.47 11.42 20.67 10.9 20.61C10.58 20.57 10.61 20.83 10.61 21.04C10.61 21.25 10.59 21.48 10.91 21.47C10.99 21.46 11.07 21.46 11.15 21.46C11.23 21.46 11.31 21.46 11.39 21.46C11.48 21.46 11.56 21.46 11.64 21.46C11.72 21.46 11.8 21.47 11.88 21.47C12.29 21.51 12.48 21.37 12.42 20.94C12.36 20.59 12.53 20.47 12.87 20.48C13.22 20.5 13.57 20.47 13.92 20.48C14.25 20.5 14.37 20.36 14.35 20.04C14.33 19.72 14.37 19.4 14.33 19.08C14.3 18.68 14.45 18.51 14.86 18.55C15.08 18.57 15.26 18.53 15.27 18.22C15.3 17.61 15.32 17.61 15.94 17.61C16.05 17.61 16.16 17.61 16.28 17.61C17.33 17.58 17.17 17.74 17.19 16.7L17.19 16.7Z" />
		<path id="Path_1312" class="shp0" d="M10.02 10.04C9.61 10.12 9.43 9.96 9.47 9.55C9.51 9.23 9.37 9.08 9.04 9.12C8.62 9.17 8.53 8.95 8.53 8.58C8.53 8.21 8.63 8.01 9.03 8.07C9.38 8.12 9.51 7.94 9.47 7.61C9.42 7.21 9.6 7.07 10 7.07C10.4 7.07 10.63 7.17 10.57 7.61C10.52 7.99 10.71 8.11 11.06 8.06C11.45 8.01 11.53 8.22 11.52 8.56C11.52 8.89 11.51 9.16 11.07 9.11C10.76 9.08 10.53 9.14 10.58 9.52C10.63 9.96 10.43 10.12 10.02 10.04Z" />
	</g>
</svg>