<?xml version="1.0" standalone="no"?>
<!DOCTYPE svg PUBLIC "-//W3C//DTD SVG 1.1//EN" "http://www.w3.org/Graphics/SVG/1.1/DTD/svg11.dtd" >
<svg xmlns="http://www.w3.org/2000/svg" xmlns:xlink="http://www.w3.org/1999/xlink" version="1.1">
<metadata>
Created by FontForge 20170731 at Tue Jan 12 10:34:57 2021
 By Aleksey,,,
Copyright 2019 The Manrope Project Authors (https://github.com/sharanda/manrope)
</metadata>
<defs>
<font id="Manrope-ExtraBold" horiz-adv-x="606" >
  <font-face 
    font-family="Manrope ExtraBold"
    font-weight="800"
    font-stretch="normal"
    units-per-em="2048"
    panose-1="0 0 9 0 0 0 0 0 0 0"
    ascent="1638"
    descent="-410"
    x-height="1106"
    cap-height="1475"
    bbox="-293 -614 2560 2068"
    underline-thickness="102"
    underline-position="-307"
    unicode-range="U+000D-FB02"
  />
<missing-glyph horiz-adv-x="1515" 
d="M205 1448v27h1106v-27h-1106zM205 1329v33h1106v-33h-1106zM205 1212v37h1106v-37h-1106zM205 1092v43h1106v-43h-1106zM205 975v45h1106v-45h-1106zM205 858v49h1106v-49h-1106zM205 737v58h1106v-58h-1106zM205 621v61h1106v-61h-1106zM205 502v67h1106v-67h-1106z
M205 383v72h1106v-72h-1106zM205 266v76h1106v-76h-1106zM205 147v82h1106v-82h-1106zM205 0v117h1106v-117h-1106z" />
    <glyph glyph-name="parenleft_c_parenright.liga" unicode="&#x28;c&#x29;" horiz-adv-x="2076" 
d="M1038 -143q-119 0 -232.5 31.5t-209 87.5t-176.5 137t-137 176.5t-87.5 209t-31.5 232.5q0 178 69 340t186 279t279 186.5t340 69.5t340 -69.5t279 -186.5t186.5 -279t69.5 -340t-69.5 -340t-186.5 -279t-279 -186t-340 -69zM1038 117q125 0 239 48.5t196.5 130.5
t131 196t48.5 239t-48.5 239t-131 196.5t-196.5 131t-239 48.5t-239 -48.5t-196 -131t-130.5 -196.5t-48.5 -239q0 -167 82 -308.5t223.5 -223.5t308.5 -82zM1057 293q-106 0 -179.5 32.5t-132.5 104.5q-102 128 -102 301q0 176 102 299q58 71 135 105t187 34q117 0 207 -55
q124 -75 158 -221l-209 -55q-15 57 -62 98q-45 39 -106 39q-87 0 -144 -70q-47 -60 -47 -174q0 -106 47 -172q51 -70 148 -70q71 0 106 35q36 36 54 88l213 -43q-37 -130 -136 -204q-93 -72 -239 -72z" />
    <glyph glyph-name="space_less_three_space.liga" unicode="&#x20;&#x3c;&#x33;&#x20;" horiz-adv-x="2373" 
d="M1186 -31q-89 0 -154 68l-340 358q-63 68 -93 152.5t-26.5 165t35 158.5t85 136.5t131 94t165.5 35.5q103 0 197 -52q96 52 198 52q89 0 167 -36t131 -95t84.5 -137t34.5 -159t-27 -164.5t-93 -150.5l-338 -358q-65 -68 -157 -68zM1186 186l340 357q48 50 57.5 117.5
t-13.5 124.5t-73.5 97t-112.5 40q-98 0 -198 -109q-100 109 -197 109q-64 0 -114.5 -41t-71.5 -99t-10.5 -125t57.5 -114z" />
    <glyph glyph-name="parenleft_greater_parenright.liga" unicode="&#x28;&#x3e;&#x29;" horiz-adv-x="2355" 
d="M1178 -276q207 0 394.5 80t323 215.5t215.5 323t80 394.5t-80 394.5t-215.5 323.5t-323 216t-394.5 80t-394.5 -80t-323.5 -216t-216 -323.5t-80 -394.5t80 -394.5t216 -323t323.5 -215.5t394.5 -80zM1178 -16q-154 0 -293.5 59.5t-240.5 160t-160.5 240t-59.5 293.5
t59.5 293.5t160.5 240.5t240.5 160.5t293.5 59.5t293.5 -59.5t240 -160.5t160 -240.5t59.5 -293.5q0 -206 -100.5 -379t-273.5 -273.5t-379 -100.5zM1030 1106l443 -369l-443 -368v737z" />
    <glyph glyph-name="f_f" unicode="ff" horiz-adv-x="1499" 
d="M1352 1280q-63 0 -96 -32t-33 -81v-61h256v-215h-256v-891h-279v891h-430v-891h-278v891h-175v215h175v14q0 60 2 96t19.5 93t51.5 94q19 21 41 37.5t40.5 27t45.5 18t42.5 11.5t44.5 6t39 2.5t39 0t32 -0.5h137v-225h-127q-63 0 -96 -32t-33 -81v-61h430q0 52 1 73.5
t6.5 70.5t22.5 86t44 67q19 21 41 37.5t40.5 27t45.5 18t42 11.5t44 6t39 2.5t39 0t32 -0.5h138v-225h-127z" />
    <glyph glyph-name="f_f_l" unicode="ffl" horiz-adv-x="2164" 
d="M1722 1505h279v-1505h-279v891h-499v-891h-279v891h-430v-891h-278v891h-175v215h175v14q0 60 2 96t19.5 93t51.5 94q19 21 41 37.5t40.5 27t45.5 18t42.5 11.5t44.5 6t39 2.5t39 0t32 -0.5h137v-225h-127q-63 0 -96 -32t-33 -81v-61h430q0 52 1 73.5t6.5 70.5t22.5 86
t44 67q19 21 41 37.5t40.5 27t45.5 18t42 11.5t44 6t39 2.5t39 0t32 -0.5h138v-225h-127q-63 0 -96 -32t-33 -81v-61h499v399z" />
    <glyph glyph-name="t_t.liga" unicode="tt" horiz-adv-x="1695" 
d="M1274 891v-406v-41v-40.5t1 -33t3.5 -34t6.5 -25.5t11 -24q23 -37 71.5 -52.5t99.5 -14.5t126 11v-231q-90 -17 -171.5 -19.5t-156.5 11t-133.5 50t-91.5 95.5q-13 24 -22 51.5t-14 47.5t-7 56t-2.5 52.5t0 62.5t0.5 62v422h-508v-406v-35v-35.5t0.5 -30t2 -30.5t4 -24
t6.5 -24t10 -19q23 -37 71.5 -52.5t99.5 -14.5t126 11v-231q-90 -17 -171.5 -19.5t-156.5 11t-133.5 50t-91.5 95.5q-13 24 -22 51.5t-14 47.5t-7 56t-2.5 52.5t0 62.5t0.5 62v422h-189v215h189v307h278v-307h508v307h279v-307h319v-215h-319z" />
    <glyph glyph-name="fi" unicode="fi" horiz-adv-x="1427" 
d="M309 1403q19 21 41 37.5t40.5 27t45.5 18t42.5 11.5t44.5 6t39 2.5t39 0t32 -0.5h137v-225h-127q-63 0 -96 -32t-33 -81v-61h256v-215h-256v-891h-278v891h-175v215h175v14q0 60 2 96t19.5 93t51.5 94zM985 1505h279v-245h-279v245zM985 0v1106h279v-1106h-279z" />
    <glyph glyph-name="fl" unicode="fl" horiz-adv-x="1456" 
d="M1014 1505h278v-1505h-278v891h-500v-891h-278v891h-175v215h175v14q0 60 2 96t19.5 93t51.5 94q19 21 41 37.5t40.5 27t45.5 18t42.5 11.5t44.5 6t39 2.5t39 0t32 -0.5h137v-225h-127q-63 0 -96 -32t-33 -81v-61h500v399z" />
    <glyph glyph-name="hyphen_hyphen.liga" unicode="&#x2d;&#x2d;" horiz-adv-x="1105" 
d="M123 539v215h860v-215h-860z" />
    <glyph glyph-name="hyphen_greater.liga" unicode="&#x2d;&#x3e;" horiz-adv-x="2078" 
d="M287 539v215h1136l-256 256l129 131l496 -496l-496 -495l-129 131l258 258h-1138z" />
    <glyph glyph-name="less_hyphen.liga" unicode="&#x3c;&#x2d;" horiz-adv-x="2078" 
d="M1792 539h-1139l258 -258l-129 -131l-495 495l495 496l129 -131l-256 -256h1137v-215z" />
    <glyph glyph-name=".notdef" horiz-adv-x="1515" 
d="M205 1448v27h1106v-27h-1106zM205 1329v33h1106v-33h-1106zM205 1212v37h1106v-37h-1106zM205 1092v43h1106v-43h-1106zM205 975v45h1106v-45h-1106zM205 858v49h1106v-49h-1106zM205 737v58h1106v-58h-1106zM205 621v61h1106v-61h-1106zM205 502v67h1106v-67h-1106z
M205 383v72h1106v-72h-1106zM205 266v76h1106v-76h-1106zM205 147v82h1106v-82h-1106zM205 0v117h1106v-117h-1106z" />
    <glyph glyph-name=".null" horiz-adv-x="1228" 
 />
    <glyph glyph-name="nonmarkingreturn" horiz-adv-x="1228" 
 />
    <glyph glyph-name="CR" unicode="&#xd;" horiz-adv-x="1228" 
 />
    <glyph glyph-name="space" unicode=" " horiz-adv-x="409" 
 />
    <glyph glyph-name="exclam" unicode="!" horiz-adv-x="770" 
d="M246 369v1106h278v-1106h-278zM246 0v246h278v-246h-278z" />
    <glyph glyph-name="quotedbl" unicode="&#x22;" horiz-adv-x="1007" 
d="M123 1106v369h278v-369h-278zM524 1106v369h279v-369h-279z" />
    <glyph glyph-name="numbersign" unicode="#" horiz-adv-x="1914" 
d="M375 2l104 385h-356l70 262h356l55 211h-356l71 260h355l96 355h270l-96 -355h221l97 355h270l-96 -355h356l-70 -260h-356l-57 -211h356l-70 -262h-356l-102 -385h-271l103 385h-221l-103 -385h-270zM819 649h219l58 211h-222z" />
    <glyph glyph-name="dollar" unicode="$" horiz-adv-x="1312" 
d="M1231 438q0 -178 -114.5 -300t-309.5 -156v-187h-279v187q-183 37 -300.5 160t-145.5 309l276 43q28 -122 116.5 -193.5t211.5 -71.5q115 0 191.5 54.5t76.5 134.5q0 54 -33 89t-104 58l-364 113q-155 47 -235.5 145t-80.5 240q0 173 104 287t287 143v184h279v-190
q160 -35 265.5 -141t148.5 -275l-287 -51q-22 98 -97.5 159t-181.5 64q-101 3 -171 -45.5t-70 -120.5q0 -54 45 -91.5t143 -65.5l260 -74q195 -57 282 -153.5t87 -254.5z" />
    <glyph glyph-name="percent" unicode="%" horiz-adv-x="1843" 
d="M492 768q-153 0 -261 108t-108 261q0 150 110 259t259 109q153 0 260.5 -107.5t107.5 -260.5t-108 -261t-260 -108zM369 0l-185 184l1291 1291l184 -187zM492 1004q54 0 93.5 39.5t39.5 93.5t-39.5 93.5t-93.5 39.5t-94 -39.5t-40 -93.5t40 -93.5t94 -39.5zM1352 -31
q-153 0 -261 108t-108 261q0 150 110.5 259.5t258.5 109.5q152 0 260 -107.5t108 -261.5t-108 -261.5t-260 -107.5zM1352 205q54 0 93.5 39.5t39.5 93.5t-39.5 93.5t-93.5 39.5t-93.5 -39.5t-39.5 -93.5t39.5 -93.5t93.5 -39.5z" />
    <glyph glyph-name="ampersand" unicode="&#x26;" horiz-adv-x="1380" 
d="M637 -31q-128 0 -237.5 38.5t-180.5 115.5q-111 122 -117 309q0 188 105 311q32 37 76 70q-58 66 -84.5 127.5t-26.5 140.5q0 134 73.5 239.5t198.5 149.5q87 31 209 31q229 0 351 -133q78 -81 104 -192l-277 -56q-12 43 -43 74q-47 47 -143 47q-58 0 -102 -20
q-90 -43 -90 -144q0 -30 9.5 -54.5t20 -38.5t31.5 -36q32 -35 98 -94l338 -313v84v168h242v-281q0 -130 -12 -184l180 -166l-178 -191l-135 129q-111 -97 -259 -120q-78 -11 -151 -11zM649 233q45 0 88 9q60 11 109 45l-361 331q-39 -16 -67 -51q-35 -47 -35 -118
q0 -75 47 -136q31 -40 93 -60t126 -20z" />
    <glyph glyph-name="quotesingle" unicode="'" horiz-adv-x="565" 
d="M123 1106v369h278v-369h-278z" />
    <glyph glyph-name="parenleft" unicode="(" horiz-adv-x="946" 
d="M657 -397q-178 209 -277 497t-93 576q-6 288 93 576t277 497l207 -152q-178 -214 -250.5 -436t-74.5 -485q2 -263 74.5 -485.5t250.5 -436.5z" />
    <glyph glyph-name="parenright" unicode=")" horiz-adv-x="946" 
d="M289 -397l-207 151q178 214 251 437t75 485q-2 262 -75 484.5t-251 436.5l207 152q178 -209 277 -497t93 -576q6 -288 -93 -576t-277 -497z" />
    <glyph glyph-name="asterisk" unicode="*" horiz-adv-x="970" 
d="M334 727l-199 143l152 172l-226 58l76 233l213 -92l-18 234h246l-19 -234l213 92l76 -233l-225 -58l151 -172l-199 -143l-120 195z" />
    <glyph glyph-name="plus" unicode="+" horiz-adv-x="1167" 
d="M477 276v355h-354v215h354v352h215v-352h352v-215h-352v-355h-215z" />
    <glyph glyph-name="comma" unicode="," horiz-adv-x="647" 
d="M123 -276l16 116q71 -6 104.5 39t22.5 121h-143v279h278v-279q0 -152 -70 -225.5t-208 -50.5z" />
    <glyph glyph-name="hyphen" unicode="-" horiz-adv-x="860" 
d="M123 539v215h614v-215h-614z" />
    <glyph glyph-name="period" unicode="." horiz-adv-x="655" 
d="M188 0v279h279v-279h-279z" />
    <glyph glyph-name="slash" unicode="/" horiz-adv-x="917" 
d="M516 1475h279l-394 -1475h-278z" />
    <glyph glyph-name="zero" unicode="0" horiz-adv-x="1380" 
d="M690 -31q-246 0 -396.5 150.5t-150.5 396.5v442q0 246 150.5 396.5t396.5 150.5t396.5 -150.5t150.5 -396.5v-442q0 -246 -150.5 -396.5t-396.5 -150.5zM690 233q110 0 186 76.5t76 186.5v485q0 110 -76 186t-186 76t-186 -76t-76 -186v-485q0 -110 76 -186.5t186 -76.5z
" />
    <glyph glyph-name="one" unicode="1" horiz-adv-x="929" 
d="M399 0v1171l-276 -170v308l276 166h285v-1475h-285z" />
    <glyph glyph-name="two" unicode="2" horiz-adv-x="1236" 
d="M864 553l-329 -289h600v-262h-1033v242l619 549q127 113 127 217q0 102 -61.5 167.5t-161.5 65.5q-104 0 -171.5 -68.5t-64.5 -162.5h-287q0 226 145.5 359.5t383.5 133.5q219 0 361.5 -139t142.5 -360q0 -46 -7 -86.5t-15 -71t-30.5 -65.5t-37 -55.5t-52 -57t-58 -54.5
t-71.5 -63z" />
    <glyph glyph-name="three" unicode="3" horiz-adv-x="1210" 
d="M762 924q154 -46 239.5 -172.5t85.5 -286.5q0 -137 -70 -250.5t-188 -177.5t-256 -64q-168 0 -306 99.5t-185 261.5l270 72q21 -79 83 -124.5t138 -45.5q96 0 164 67t68 162q0 97 -66 164t-166 67q-58 0 -114 -32l-125 219l397 329h-592v263h922v-263z" />
    <glyph glyph-name="four" unicode="4" horiz-adv-x="1259" 
d="M743 0v229h-641v260l465 986h320l-465 -986h321v369h283v-369h131v-260h-131v-229h-283z" />
    <glyph glyph-name="five" unicode="5" horiz-adv-x="1206" 
d="M633 944q208 0 339.5 -134.5t131.5 -344.5q0 -136 -72 -251t-192 -180t-258 -65q-167 0 -300.5 101t-179.5 264l269 72q20 -76 83.5 -123t137.5 -47q95 0 163 67t68 162t-68 162t-163 67q-120 0 -201 -76l-235 72l45 785h805v-261h-560l-18 -321q96 51 205 51z" />
    <glyph glyph-name="six" unicode="6" horiz-adv-x="1273" 
d="M700 946q208 0 339.5 -135.5t131.5 -345.5q0 -137 -70 -251.5t-188 -179.5t-256 -65q-222 0 -368 152t-146 391v428q0 260 148.5 411.5t398.5 151.5q231 0 383 -139l-199 -199q-78 78 -184 78q-116 0 -189 -78t-73 -184v-127q122 92 272 92zM657 236q96 0 164 67t68 162
t-67.5 163t-162.5 68t-163 -68t-68 -163q0 -93 67 -161t162 -68z" />
    <glyph glyph-name="seven" unicode="7" horiz-adv-x="1114" 
d="M217 0l496 1212h-631v263h930v-263l-494 -1212h-301z" />
    <glyph glyph-name="eight" unicode="8" horiz-adv-x="1275" 
d="M999 793q73 -64 113.5 -156.5t40.5 -194.5q0 -206 -146 -339.5t-370 -133.5t-369 133.5t-145 339.5q0 102 39.5 194t113.5 157q-114 129 -114 288q0 191 132 307.5t343 116.5t343 -116.5t132 -307.5q0 -160 -113 -288zM637 1245q-82 0 -131 -41.5t-49 -122.5
q0 -80 48.5 -120.5t131.5 -40.5t131.5 40.5t48.5 120.5q0 81 -49 122.5t-131 41.5zM637 231q101 0 161 54.5t60 156.5q0 101 -60.5 157t-160.5 56t-159.5 -56t-59.5 -157q0 -102 59 -156.5t160 -54.5z" />
    <glyph glyph-name="nine" unicode="9" horiz-adv-x="1273" 
d="M616 1503q222 0 368 -151.5t146 -390.5v-429q0 -260 -148 -411.5t-398 -151.5q-230 0 -383 140l198 198q78 -78 185 -78q116 0 189 78.5t73 184.5v126q-122 -92 -273 -92q-208 0 -339.5 136t-131.5 346q0 137 70 251t188 179t256 65zM614 776q95 0 163.5 68.5t68.5 163.5
q0 93 -67.5 161t-162.5 68t-163 -67t-68 -162q0 -96 67 -164t162 -68z" />
    <glyph glyph-name="colon" unicode=":" horiz-adv-x="731" 
d="M227 705v278h279v-278h-279zM225 123v278h279v-278h-279z" />
    <glyph glyph-name="semicolon" unicode=";" horiz-adv-x="729" 
d="M225 827v279h279v-279h-279zM225 -276l17 116q71 -6 104.5 39t22.5 121h-144v279h279v-279q0 -152 -70.5 -225.5t-208.5 -50.5z" />
    <glyph glyph-name="less" unicode="&#x3c;" horiz-adv-x="1320" 
d="M782 150l-495 495l495 496l172 -172l-336 -324l336 -323z" />
    <glyph glyph-name="equal" unicode="=" horiz-adv-x="1536" 
d="M246 829v215h1044v-215h-1044zM246 430v215h1044v-215h-1044z" />
    <glyph glyph-name="greater" unicode="&#x3e;" horiz-adv-x="1320" 
d="M539 150l-172 172l335 323l-335 324l172 172l495 -496z" />
    <glyph glyph-name="question" unicode="?" horiz-adv-x="1153" 
d="M403 399q0 148 64 258q23 46 51 76.5t78 73t90 84.5q40 44 55 87.5t15 100.5q0 63 -27 99q-46 63 -151 63q-82 0 -125 -35q-59 -44 -56 -127h-295q12 109 63 200.5t130 143.5q122 80 270 80q265 0 391 -155q44 -52 69.5 -122t25.5 -139q0 -187 -174 -372q-21 -23 -54 -56
t-51.5 -54t-32.5 -42q-28 -45 -34.5 -74t-6.5 -90h-295zM406 0v295h292v-295h-292z" />
    <glyph glyph-name="at" unicode="@" horiz-adv-x="1878" 
d="M922 1321q153 0 282.5 -38.5t222.5 -106t158 -160t97 -201t32 -227.5q0 -213 -77.5 -322.5t-254.5 -109.5q-67 0 -130 24t-101 70q-85 -94 -236 -94q-171 0 -280 110t-109 287q0 179 113 288t281 109q113 0 210 -61v33h166l-4 -404q0 -145 90 -145q21 0 37.5 6t27 14
t17.5 25.5t11 30.5t6 39.5t2 42v47.5v10q0 89 -19.5 164t-52 127t-78 93t-93.5 65.5t-102.5 40.5t-101.5 22t-94 6q-266 0 -412 -154.5t-137 -425.5q9 -254 155 -390t396 -136q112 0 215 35l70 -205q-134 -45 -295 -45q-226 0 -402 94.5t-272 261.5t-96 377q0 162 41 296
t111.5 227t167 157t207 93.5t231.5 29.5zM932 373q162 0 162 180t-154 180q-91 0 -136.5 -47.5t-45.5 -132.5q0 -84 45 -132t129 -48z" />
    <glyph glyph-name="A" unicode="A" horiz-adv-x="1398" 
d="M1071 0l-94 307h-555l-94 -307h-287l451 1475h415l451 -1475h-287zM500 567h397l-201 647z" />
    <glyph glyph-name="B" unicode="B" horiz-adv-x="1304" 
d="M1036 776q100 -41 153.5 -130.5t53.5 -199.5q0 -205 -113.5 -325.5t-332.5 -120.5h-654v1475h590q113 0 201 -36.5t139 -97.5t77 -132.5t26 -147.5q0 -99 -36.5 -172.5t-103.5 -112.5zM426 1214v-315h303q74 0 119 39t45 117q0 70 -43.5 114.5t-120.5 44.5h-303zM768 262
q86 0 140.5 53.5t54.5 141.5q0 81 -50.5 131.5t-144.5 50.5h-342v-377h342z" />
    <glyph glyph-name="C" unicode="C" horiz-adv-x="1527" 
d="M776 -31q-218 0 -380.5 96t-248.5 269.5t-86 402.5t86 402.5t248.5 269.5t380.5 96q250 0 424 -124t246 -343l-281 -77q-42 136 -140 209t-249 73q-206 0 -314 -135t-108 -371t108 -371t314 -135q151 0 249 73.5t140 209.5l281 -78q-72 -219 -246 -343t-424 -124z" />
    <glyph glyph-name="D" unicode="D" horiz-adv-x="1454" 
d="M143 0v1475h478q99 0 176 -9q173 -21 300.5 -124t191 -259.5t63.5 -345.5t-63.5 -345.5t-191 -259.5t-300.5 -124q-68 -8 -176 -8h-478zM426 262h195q108 0 159 10q136 28 206.5 160.5t70.5 304.5q0 176 -72 307t-205 158q-51 10 -159 10h-195v-950z" />
    <glyph glyph-name="E" unicode="E" horiz-adv-x="1208" 
d="M143 0v1475h963v-261h-684v-315h561v-260h-561v-379h684v-260h-963z" />
    <glyph glyph-name="F" unicode="F" horiz-adv-x="1085" 
d="M143 0v1475h901v-279h-622v-319h500v-279h-500v-598h-279z" />
    <glyph glyph-name="G" unicode="G" horiz-adv-x="1517" 
d="M758 -31q-113 0 -216 31.5t-190.5 95.5t-152.5 154.5t-101.5 215.5t-36.5 271q0 179 54.5 325.5t149.5 242.5t221.5 148t271.5 52q549 0 665 -506l-284 -41q-41 133 -133.5 208.5t-229.5 76.5q-206 3 -313 -133t-107 -373q0 -235 106.5 -369t313.5 -137
q147 -3 246.5 80.5t132.5 253.5h-233v215h530q4 -36 4 -86q0 -211 -85 -375.5t-244 -257t-369 -92.5z" />
    <glyph glyph-name="H" unicode="H" horiz-adv-x="1503" 
d="M143 0v1475h279v-607h659v607h279v-1475h-279v608h-659v-608h-279z" />
    <glyph glyph-name="I" unicode="I" 
d="M164 0v1475h278v-1475h-278z" />
    <glyph glyph-name="J" unicode="J" horiz-adv-x="1050" 
d="M453 -31q-173 0 -289 88t-164 246l274 66q9 -57 59 -98.5t107 -41.5q43 0 86 23t62 67q16 39 16 173v983h283v-983q0 -13 0.5 -55t0 -53.5t-2 -43t-4.5 -45t-8.5 -37.5t-14 -42.5t-20.5 -39.5q-120 -207 -385 -207z" />
    <glyph glyph-name="K" unicode="K" horiz-adv-x="1361" 
d="M143 0v1475h279v-680l561 680h340l-616 -727l655 -748h-352l-588 672v-672h-279z" />
    <glyph glyph-name="L" unicode="L" horiz-adv-x="1107" 
d="M164 0v1475h278v-1215h635v-260h-913z" />
    <glyph glyph-name="M" unicode="M" horiz-adv-x="1761" 
d="M143 0v1475h250l488 -979l487 979h250v-1475h-260v881l-428 -881h-99l-428 881v-881h-260z" />
    <glyph glyph-name="N" unicode="N" horiz-adv-x="1492" 
d="M143 0v1475h283l641 -983v983h283v-1475h-283l-641 983v-983h-283z" />
    <glyph glyph-name="O" unicode="O" horiz-adv-x="1552" 
d="M776 -31q-218 0 -380.5 96t-248.5 269.5t-86 402.5t86 402.5t248.5 269.5t380.5 96t380.5 -96t248.5 -269.5t86 -402.5t-86 -402.5t-248.5 -269.5t-380.5 -96zM776 231q206 -3 313 133t107 373q0 235 -106.5 369t-313.5 137q-206 3 -313 -133t-107 -373
q0 -235 106.5 -369t313.5 -137z" />
    <glyph glyph-name="P" unicode="P" horiz-adv-x="1331" 
d="M143 0v1475h623q64 0 123 -9q191 -30 286 -157.5t95 -321.5t-95.5 -321.5t-285.5 -157.5q-52 -8 -123 -8h-344v-500h-279zM422 760h332q58 0 94 10q40 11 69 35t44 55.5t21.5 62.5t6.5 64t-6.5 64t-21.5 62.5t-44 55.5t-69 35q-36 10 -94 10h-332v-454z" />
    <glyph glyph-name="Q" unicode="Q" horiz-adv-x="1552" 
d="M1491 737q0 -290 -135 -485l110 -111l-170 -172l-112 113q-174 -113 -408 -113q-218 0 -380.5 96t-248.5 269.5t-86 402.5t86 402.5t248.5 269.5t380.5 96t380.5 -96t248.5 -269.5t86 -402.5zM776 231q121 -3 209 48l-119 118l172 172l109 -108q49 116 49 276
q0 235 -106.5 369t-313.5 137q-206 3 -313 -133t-107 -373q0 -235 106.5 -369t313.5 -137z" />
    <glyph glyph-name="R" unicode="R" horiz-adv-x="1372" 
d="M1290 0h-315l-242 500h-311v-500h-279v1475h623q64 0 123 -9q191 -30 286 -157.5t95 -321.5q0 -155 -61.5 -269t-184.5 -171zM422 1214v-454h332q58 0 94 10q40 11 69 35t44 55.5t21.5 62.5t6.5 64t-6.5 64t-21.5 62.5t-44 55.5t-69 35q-36 10 -94 10h-332z" />
    <glyph glyph-name="S" unicode="S" horiz-adv-x="1374" 
d="M700 -31q-248 0 -416 129.5t-202 352.5l291 43q30 -125 125 -195t221 -70q111 0 195.5 51t84.5 138q0 49 -31.5 86t-111.5 61l-383 113q-32 9 -55.5 17t-60.5 24.5t-64 35t-58 49t-50.5 66t-32.5 85.5t-13 108q0 144 75.5 245.5t198 148.5t277.5 46q230 -3 383 -114.5
t207 -317.5l-301 -51q-24 103 -106 161.5t-187 61.5q-102 3 -178 -43.5t-76 -122.5q0 -34 16.5 -61t48 -45t61 -29t71.5 -22l256 -70q37 -10 61.5 -17.5t65.5 -22t69.5 -31t63.5 -39.5t59 -52.5t45.5 -65.5t32 -83t10.5 -101q0 -92 -32.5 -170t-89 -132.5t-132 -92.5
t-161 -56t-177.5 -18z" />
    <glyph glyph-name="T" unicode="T" horiz-adv-x="1249" 
d="M485 0v1214h-465v261h1209v-261h-465v-1214h-279z" />
    <glyph glyph-name="U" unicode="U" horiz-adv-x="1486" 
d="M743 -31q-268 0 -434 160t-166 424v920l283 2v-920q0 -144 91 -234t226 -90q136 0 227 91.5t91 232.5v920h282v-922q0 -264 -166 -424t-434 -160z" />
    <glyph glyph-name="V" unicode="V" horiz-adv-x="1337" 
d="M461 0l-451 1475h287l369 -1213l374 1213h287l-450 -1475h-416z" />
    <glyph glyph-name="W" unicode="W" horiz-adv-x="2025" 
d="M453 0l-433 1475h293l277 -1014l274 1012l293 2l277 -1014l278 1014h293l-432 -1475h-275l-286 995l-285 -995h-274z" />
    <glyph glyph-name="X" unicode="X" horiz-adv-x="1376" 
d="M20 0l496 745l-481 730h342l313 -492l309 492h344l-481 -730l494 -745h-342l-324 508l-325 -508h-345z" />
    <glyph glyph-name="Y" unicode="Y" horiz-adv-x="1290" 
d="M504 0v600l-504 875h326l319 -555l320 555h325l-504 -875v-600h-282z" />
    <glyph glyph-name="Z" unicode="Z" horiz-adv-x="1392" 
d="M102 0v35l701 1179h-639v261h1126v-35l-696 -1178h676v-262h-1168z" />
    <glyph glyph-name="bracketleft" unicode="[" horiz-adv-x="878" 
d="M287 -430v2273h469v-246h-224v-1781h224v-246h-469z" />
    <glyph glyph-name="backslash" unicode="\" horiz-adv-x="917" 
d="M401 1475l394 -1475h-279l-393 1475h278z" />
    <glyph glyph-name="bracketright" unicode="]" horiz-adv-x="878" 
d="M592 -430h-469v246h223v1781h-223v246h469v-2273z" />
    <glyph glyph-name="asciicircum" unicode="^" horiz-adv-x="1400" 
d="M215 1010l496 495l495 -495l-172 -172l-323 336l-324 -336z" />
    <glyph glyph-name="underscore" unicode="_" horiz-adv-x="1351" 
d="M0 -260v215h1352v-215h-1352z" />
    <glyph glyph-name="grave" unicode="`" horiz-adv-x="1136" 
d="M821 1608l-575 196l67 203l578 -199z" />
    <glyph glyph-name="a" unicode="a" horiz-adv-x="1193" 
d="M1026 936q29 -56 37 -112.5t8 -147.5v-676h-244v135q-74 -88 -161.5 -127t-214.5 -39q-172 0 -270.5 96t-98.5 240q0 121 56.5 203.5t185.5 130.5q50 18 130 35.5t145.5 28t197.5 30.5q-9 77 -57.5 113.5t-145.5 36.5q-71 0 -134 -33t-87 -102l-252 79q43 143 162 226.5
t311 83.5q325 0 432 -201zM766 336q24 50 29 170q-247 -41 -326 -70q-61 -24 -88 -54.5t-27 -72.5q0 -57 42 -89t114 -32q54 0 101 16t77 41t49 47.5t29 43.5z" />
    <glyph glyph-name="b" unicode="b" horiz-adv-x="1277" 
d="M672 1137q235 0 379.5 -164t144.5 -420q0 -165 -63 -298t-180 -209.5t-267 -76.5q-175 0 -299 94v-63h-246v1475h281v-406q111 68 250 68zM641 217q129 0 194.5 94t65.5 242q0 147 -68.5 241.5t-201.5 94.5q-125 0 -184.5 -89t-59.5 -247q0 -336 254 -336z" />
    <glyph glyph-name="c" unicode="c" horiz-adv-x="1193" 
d="M631 -31q-252 0 -400.5 164.5t-148.5 419.5q0 168 67 300t193.5 208t292.5 76q195 0 328 -99t170 -270l-279 -74q-24 85 -85 134t-138 49q-126 0 -190 -89t-64 -235q0 -149 65.5 -236.5t188.5 -87.5q90 0 140.5 41.5t76.5 124.5l285 -59q-47 -176 -178 -271.5t-324 -95.5
z" />
    <glyph glyph-name="d" unicode="d" horiz-adv-x="1280" 
d="M856 1475h281v-1475h-246v63q-124 -94 -299 -94q-150 0 -267 76.5t-180 209.5t-63 298q0 256 144.5 420t379.5 164q139 0 250 -68v406zM637 217q254 0 254 336q0 158 -59.5 247t-184.5 89q-133 0 -201.5 -94.5t-68.5 -241.5q0 -148 65.5 -242t194.5 -94z" />
    <glyph glyph-name="e" unicode="e" horiz-adv-x="1245" 
d="M381 475q15 -120 81 -183t179 -63q165 0 229 140l279 -80q-62 -150 -195.5 -235t-296.5 -85q-254 0 -414.5 160t-160.5 410q0 270 155.5 434t403.5 164q261 0 402 -180.5t116 -481.5h-778zM653 895q-220 0 -264 -213h488q-15 112 -69 162.5t-155 50.5z" />
    <glyph glyph-name="f" unicode="f" horiz-adv-x="790" 
d="M643 1280q-63 0 -96 -32t-33 -81v-61h256v-215h-256v-891h-278v891h-175v215h175v14q0 60 2 96t19.5 93t51.5 94q19 21 41 37.5t40.5 27t45.5 18t42.5 11.5t44.5 6t39 2.5t39 0t32 -0.5h137v-225h-127z" />
    <glyph glyph-name="g" unicode="g" horiz-adv-x="1277" 
d="M891 1106h244v-1182q0 -82 -17 -149q-26 -99 -99.5 -167t-175.5 -99t-227 -31q-139 0 -257.5 65t-182.5 174l258 125q26 -48 75 -74t109 -26q64 0 118 20t88 63.5t32 102.5v111q-112 -70 -264 -70q-150 0 -267 76.5t-180 209.5t-63 298q0 256 144.5 420t379.5 164
q168 0 285 -93v62zM637 217q254 0 254 336q0 158 -59.5 247t-184.5 89q-133 0 -201.5 -94.5t-68.5 -241.5q0 -148 65.5 -242t194.5 -94z" />
    <glyph glyph-name="h" unicode="h" horiz-adv-x="1302" 
d="M748 1139q70 0 128.5 -15.5t100 -39t75 -60t54.5 -70.5t36 -79.5t22 -78t11 -73.5t4.5 -59t0.5 -43v-621h-283v522q0 32 -0.5 52t-5 61t-13 69.5t-26 63.5t-42 57t-63.5 37t-88 15q-33 0 -62 -6t-62 -26.5t-56.5 -53.5t-39 -92t-15.5 -138v-561h-283v1475h248v-484
q132 148 359 148z" />
    <glyph glyph-name="i" unicode="i" 
d="M164 1260v245h278v-245h-278zM164 0v1106h278v-1106h-278z" />
    <glyph glyph-name="j" unicode="j" horiz-adv-x="616" 
d="M195 1260v245h278v-245h-278zM-20 -492v261h49q92 0 129 40.5t37 124.5v1172h278v-1307q0 -132 -83 -211.5t-222 -79.5h-188z" />
    <glyph glyph-name="k" unicode="k" horiz-adv-x="1130" 
d="M141 0l2 1475h283v-902l375 533h344l-400 -553l426 -553h-362l-383 532v-532h-285z" />
    <glyph glyph-name="l" unicode="l" 
d="M164 0v1505h278v-1505h-278z" />
    <glyph glyph-name="m" unicode="m" horiz-adv-x="1875" 
d="M1370 1133q185 0 284 -110t99 -296v-727h-278v653q0 109 -52 170.5t-143 61.5q-87 0 -140 -59.5t-53 -155.5v-670h-278v653q0 109 -52 170.5t-143 61.5q-87 0 -139.5 -59.5t-52.5 -155.5v-670h-281v1106h246v-121q57 69 141.5 108.5t182.5 39.5q115 0 196 -45.5
t125 -126.5q54 80 143.5 126t194.5 46z" />
    <glyph glyph-name="n" unicode="n" horiz-adv-x="1302" 
d="M748 1139q70 0 128.5 -15.5t100 -39t75 -60t54.5 -70.5t36 -79.5t22 -78t11 -73.5t4.5 -59t0.5 -43v-621h-283v522q0 32 -0.5 52t-5 61t-13 69.5t-26 63.5t-42 57t-63.5 37t-88 15q-33 0 -62 -6t-62 -26.5t-56.5 -53.5t-39 -92t-15.5 -138v-561h-283v1106h248v-115
q132 148 359 148z" />
    <glyph glyph-name="o" unicode="o" horiz-adv-x="1284" 
d="M641 -31q-249 0 -404 163t-155 421q0 259 156 421.5t403 162.5q165 0 293 -74.5t198 -207.5t70 -302q0 -258 -156 -421t-405 -163zM641 229q130 0 198 88t68 236q0 151 -68.5 237.5t-197.5 86.5q-132 0 -198 -86.5t-66 -237.5q0 -152 68 -238t196 -86z" />
    <glyph glyph-name="p" unicode="p" horiz-adv-x="1277" 
d="M672 1137q235 0 379.5 -164t144.5 -420q0 -165 -63 -298t-180 -209.5t-267 -76.5q-152 0 -264 70v-531h-281v1598h246v-62q117 93 285 93zM641 217q129 0 194.5 94t65.5 242q0 147 -68.5 241.5t-201.5 94.5q-125 0 -184.5 -89t-59.5 -247q0 -336 254 -336z" />
    <glyph glyph-name="q" unicode="q" horiz-adv-x="1280" 
d="M891 1106h246v-1598h-281v531q-112 -70 -264 -70q-150 0 -267 76.5t-180 209.5t-63 298q0 256 144.5 420t379.5 164q168 0 285 -93v62zM637 217q254 0 254 336q0 158 -59.5 247t-184.5 89q-133 0 -201.5 -94.5t-68.5 -241.5q0 -148 65.5 -242t194.5 -94z" />
    <glyph glyph-name="r" unicode="r" horiz-adv-x="843" 
d="M508 1053q119 73 285 53v-260q-45 14 -107 9t-111 -28q-151 -69 -151 -262v-565h-281v1106h246v-178q46 80 119 125z" />
    <glyph glyph-name="s" unicode="s" horiz-adv-x="1120" 
d="M575 -31q-209 0 -337 94.5t-156 268.5l285 43q17 -78 77 -122t152 -44q75 0 116.5 29t41.5 81q0 21 -5.5 34.5t-18.5 26t-46 25t-76 25.5t-121 33q-203 53 -285.5 125.5t-82.5 199.5q0 160 119.5 254.5t320.5 94.5q195 0 321 -88.5t148 -239.5l-285 -51q-7 61 -53.5 97
t-124.5 42q-77 5 -123.5 -21t-46.5 -73q0 -30 21.5 -48.5t80 -38t193.5 -54.5q189 -50 268.5 -124.5t79.5 -203.5q0 -170 -123 -267.5t-340 -97.5z" />
    <glyph glyph-name="t" unicode="t" horiz-adv-x="909" 
d="M487 891v-406v-35v-35.5t0.5 -30t2 -30.5t4 -24t6.5 -24t10 -19q23 -37 71.5 -52.5t99.5 -14.5t126 11v-231q-90 -17 -171.5 -19.5t-156.5 11t-133.5 50t-91.5 95.5q-13 24 -22 51.5t-14 47.5t-7 56t-2.5 52.5t0 62.5t0.5 62v422h-189v215h189v307h278v-307h320v-215
h-320z" />
    <glyph glyph-name="u" unicode="u" horiz-adv-x="1302" 
d="M879 1106h280v-1106h-246v115q-132 -148 -358 -148q-70 0 -128.5 15.5t-100 39t-75 60t-54.5 70.5t-36 79.5t-22 78t-11 73.5t-4.5 59t-0.5 43v621h283v-522q0 -32 0.5 -52t5 -61.5t12.5 -69t25.5 -63t42 -57t63.5 -37t88 -15.5q33 0 62 6t62 26.5t57 53.5t39.5 92
t15.5 138v561z" />
    <glyph glyph-name="v" unicode="v" horiz-adv-x="1163" 
d="M442 0l-401 1106h278l263 -766l262 766h278l-401 -1106h-279z" />
    <glyph glyph-name="w" unicode="w" horiz-adv-x="1667" 
d="M379 0l-338 1108l274 -2l201 -660l203 660h231l203 -660l201 660h272l-338 -1106h-231l-223 721l-242 -721h-213z" />
    <glyph glyph-name="x" unicode="x" horiz-adv-x="1153" 
d="M20 0l396 559l-387 547h327l222 -328l217 328h327l-387 -547l398 -559h-328l-227 340l-230 -340h-328z" />
    <glyph glyph-name="y" unicode="y" horiz-adv-x="1167" 
d="M889 1106h278l-624 -1598h-258l182 500l-447 1098h289l291 -752z" />
    <glyph glyph-name="z" unicode="z" horiz-adv-x="1095" 
d="M41 0v35l543 829h-482v242h912v-35l-541 -829h520v-242h-952z" />
    <glyph glyph-name="braceleft" unicode="{" horiz-adv-x="940" 
d="M713 -430q-141 0 -221 80t-80 221v598q0 18 -11 33l-92 131q-23 34 -23 73.5t23 73.5l92 131q11 18 11 33v598q0 140 80 220.5t221 80.5h145v-262h-125q-25 0 -42 -17t-17 -42v-578q0 -99 -60 -184l-39 -53l39 -54q60 -85 60 -184v-578q0 -26 17 -43.5t42 -17.5h125v-260
h-145z" />
    <glyph glyph-name="bar" unicode="|" horiz-adv-x="647" 
d="M184 0v1475h279v-1475h-279z" />
    <glyph glyph-name="braceright" unicode="}" horiz-adv-x="940" 
d="M227 -430h-145v260h125q25 0 42 17.5t17 43.5v578q0 99 60 184l39 54l-39 53q-60 85 -60 184v578q0 25 -17 42t-42 17h-125v262h145q141 0 221 -80.5t80 -220.5v-598q0 -15 11 -33l92 -131q23 -34 23 -73.5t-23 -73.5l-92 -131q-11 -15 -11 -33v-598q0 -141 -80 -221
t-221 -80z" />
    <glyph glyph-name="asciitilde" unicode="~" horiz-adv-x="1503" 
d="M983 399q-60 0 -117.5 26.5t-100.5 64t-81 75t-75 64t-68 26.5q-46 0 -63 -51.5t5 -161.5h-229q-33 196 44.5 323.5t219.5 127.5q60 0 118 -26.5t102.5 -64t84 -75t76 -64t64.5 -26.5q45 0 61 59t-4 154h227q23 -124 -4 -228t-96 -163.5t-164 -59.5z" />
    <glyph glyph-name="uni00A0" unicode="&#xa0;" horiz-adv-x="409" 
 />
    <glyph glyph-name="exclamdown" unicode="&#xa1;" horiz-adv-x="770" 
d="M246 1106h278v-246h-278v246zM246 737h278v-1106h-278v1106z" />
    <glyph glyph-name="cent" unicode="&#xa2;" horiz-adv-x="1193" 
d="M537 -59v188q-212 32 -333.5 190t-121.5 388q0 228 123 385.5t332 189.5v193h215v-195q150 -28 250 -121t131 -237l-279 -74q-24 85 -84.5 133.5t-138.5 48.5q-127 0 -190.5 -88.5t-63.5 -234.5q0 -149 65.5 -236.5t188.5 -87.5q90 0 140.5 41.5t76.5 124.5l285 -60
q-39 -147 -137 -237.5t-244 -118.5v-192h-215z" />
    <glyph glyph-name="sterling" unicode="&#xa3;" horiz-adv-x="1169" 
d="M520 606v-346h457v-260h-895v260h2q62 0 108 47t46 109v190h-156v262h156v240q0 168 124.5 282.5t303.5 114.5q286 0 421 -377l-249 -81q-28 97 -68 146.5t-104 49.5t-104 -42t-40 -107v-226h289v-262h-291z" />
    <glyph glyph-name="currency" unicode="&#xa4;" horiz-adv-x="1392" 
d="M1235 739q0 -147 -78 -278l174 -174l-184 -185l-174 174q-131 -75 -277 -75t-274 75l-176 -174l-185 185l177 176q-78 127 -78 276t76 273l-175 174l185 186l174 -174q127 78 276 78q150 0 277 -78l174 174l184 -186l-172 -172q76 -129 76 -275zM393 737
q0 -124 89 -213.5t214 -89.5t214 89.5t89 213.5q0 125 -89.5 214t-213.5 89q-126 0 -214.5 -88.5t-88.5 -214.5z" />
    <glyph glyph-name="yen" unicode="&#xa5;" horiz-adv-x="1290" 
d="M1290 1475l-416 -721h201v-215h-289v-131h289v-215h-289v-193h-282v193h-289v215h289v131h-289v215h201l-416 721h326l319 -555l320 555h325z" />
    <glyph glyph-name="brokenbar" unicode="&#xa6;" horiz-adv-x="647" 
d="M184 614v861h279v-861h-279zM184 -451v861h279v-861h-279z" />
    <glyph glyph-name="section" unicode="&#xa7;" horiz-adv-x="1120" 
d="M897 324q62 -40 91.5 -95.5t29.5 -136.5q0 -175 -123.5 -271.5t-321.5 -96.5q-189 0 -315 91t-156 271l285 43q17 -79 73.5 -122.5t131.5 -43.5q59 0 100 28t41 83q0 53 -49 77t-217 66q-191 48 -280 119.5t-89 185.5q0 166 174 244q-78 40 -115.5 100t-37.5 148
q0 70 23.5 128.5t63.5 98.5t93 68t112 40.5t121 12.5q106 0 197.5 -36t157 -111.5t80.5 -180.5l-285 -51q-12 71 -50 106t-108 35q-57 0 -93 -23t-36 -67q0 -18 6.5 -33t22 -26.5t31.5 -19.5t45.5 -17t53.5 -15.5t65 -17t71 -18.5q185 -52 266.5 -121t81.5 -195
q0 -172 -141 -247zM375 563q0 -18 6 -32t21 -26t30 -20t45 -17t52.5 -15t66.5 -17.5t74 -19.5q84 48 84 129q0 53 -48 77t-204 62q-66 -26 -96.5 -53.5t-30.5 -67.5z" />
    <glyph glyph-name="dieresis" unicode="&#xa8;" horiz-adv-x="1171" 
d="M246 1720v246h246v-246h-246zM680 1720v246h246v-246h-246z" />
    <glyph glyph-name="copyright" unicode="&#xa9;" horiz-adv-x="1871" 
d="M936 -143q-178 0 -340 69t-279 186t-186.5 279t-69.5 340t69.5 340t186.5 279t279 186.5t340 69.5t340 -69.5t279 -186.5t186 -279t69 -340q0 -119 -31.5 -232.5t-87.5 -209t-137 -176.5t-176.5 -137t-209 -87.5t-232.5 -31.5zM936 117q167 0 308.5 82t223.5 223.5
t82 308.5q0 125 -48.5 239t-130.5 196.5t-196 131t-239 48.5t-239 -48.5t-196 -131t-130.5 -196.5t-48.5 -239q0 -167 82 -308.5t223.5 -223.5t308.5 -82zM954 293q-106 0 -179 32.5t-132 104.5q-102 128 -102 301q0 176 102 299q58 71 135 105t187 34q116 0 206 -55
q124 -75 158 -221l-209 -55q-16 58 -61 98q-45 39 -107 39q-86 0 -143 -70q-47 -60 -47 -174q0 -106 47 -172q51 -70 147 -70q72 0 107 35t53 88l213 -43q-38 -131 -135 -204q-93 -72 -240 -72z" />
    <glyph glyph-name="ordfeminine" unicode="&#xaa;" horiz-adv-x="1193" 
d="M1026 936q29 -56 37 -112.5t8 -147.5v-676h-244v135q-74 -88 -161.5 -127t-214.5 -39q-172 0 -270.5 96t-98.5 240q0 121 56.5 203.5t185.5 130.5q50 18 130 35.5t145.5 28t197.5 30.5q-9 77 -57.5 113.5t-145.5 36.5q-71 0 -134 -33t-87 -102l-252 79q43 143 162 226.5
t311 83.5q325 0 432 -201zM766 336q24 50 29 170q-247 -41 -326 -70q-61 -24 -88 -54.5t-27 -72.5q0 -57 42 -89t114 -32q54 0 101 16t77 41t49 47.5t29 43.5z" />
    <glyph glyph-name="guillemotleft" unicode="&#xab;" horiz-adv-x="1234" 
d="M526 96l-362 457l362 457l146 -115l-273 -342l273 -342zM967 96l-363 457l363 457l145 -115l-272 -342l272 -342z" />
    <glyph glyph-name="logicalnot" unicode="&#xac;" horiz-adv-x="1228" 
d="M891 375v235h-768v215h983v-450h-215z" />
    <glyph glyph-name="uni00AD" unicode="&#xad;" horiz-adv-x="860" 
d="M123 539v215h614v-215h-614z" />
    <glyph glyph-name="registered" unicode="&#xae;" horiz-adv-x="1361" 
d="M680 549q-109 0 -208 42.5t-171.5 114.5t-115 172t-42.5 209t43 208t115 171t171 115t208 43t209 -42.5t172 -115t115 -171.5t43 -208q0 -146 -72.5 -270t-196.5 -196t-270 -72zM682 729q146 0 252 106t106 252q0 149 -105.5 254t-252.5 105q-149 0 -253.5 -105
t-104.5 -254q0 -147 104.5 -252.5t253.5 -105.5zM510 844v487h205q77 0 121 -43.5t47 -118.5q0 -94 -84 -143l90 -182h-105l-79 166h-103v-166h-92zM602 1096h117q31 0 50 20.5t19 52.5q0 74 -69 74h-117v-147z" />
    <glyph glyph-name="macron" unicode="&#xaf;" horiz-adv-x="1048" 
d="M246 1720v213h557v-213h-557z" />
    <glyph glyph-name="degree" unicode="&#xb0;" horiz-adv-x="921" 
d="M430 768q-153 0 -261 108t-108 261q0 150 110 259t259 109q153 0 261 -107.5t108 -260.5t-108 -261t-261 -108zM430 1004q54 0 93.5 39.5t39.5 93.5t-39.5 93.5t-93.5 39.5t-93.5 -39.5t-39.5 -93.5t39.5 -93.5t93.5 -39.5z" />
    <glyph glyph-name="plusminus" unicode="&#xb1;" horiz-adv-x="1228" 
d="M508 451v221h-385v215h385v219h215v-219h383v-215h-383v-221h-215zM123 123v215h983v-215h-983z" />
    <glyph glyph-name="uni00B2" unicode="&#xb2;" horiz-adv-x="851" 
d="M580 899l-207 -182h377v-164h-648v152l387 344q80 72 80 135q0 65 -38 106t-101 41q-65 0 -107.5 -43t-39.5 -102h-181q0 142 91 225.5t241 83.5q136 0 226 -87.5t90 -225.5q0 -40 -8 -73.5t-18.5 -56.5t-37 -52.5t-45 -46.5t-61.5 -54z" />
    <glyph glyph-name="uni00B3" unicode="&#xb3;" horiz-adv-x="837" 
d="M510 1126q97 -28 151 -107t54 -179q0 -130 -96 -220t-228 -90q-106 0 -193 62.5t-116 165.5l170 45q13 -51 52 -79t87 -28q60 0 103 42t43 102q0 61 -42 103t-104 42q-39 0 -72 -20l-79 137l247 207h-368v166h579v-166z" />
    <glyph glyph-name="acute" unicode="&#xb4;" horiz-adv-x="1136" 
d="M315 1608l-69 200l577 199l68 -203z" />
    <glyph glyph-name="uni00B5" unicode="&#xb5;" horiz-adv-x="1320" 
d="M141 -492v1598h283v-522q0 -32 0.5 -52t5 -61t13 -69.5t26 -63.5t42 -57t63.5 -37t88 -15q33 0 62 6t62 26.5t56.5 53.5t39 92t15.5 138v561h281v-1106h-246v115q-132 -148 -359 -148q-102 0 -186 33v-492h-246z" />
    <glyph glyph-name="paragraph" unicode="&#xb6;" horiz-adv-x="1519" 
d="M684 -289v789h-98q-66 0 -123 8q-187 27 -284 156.5t-97 322.5t95.5 322.5t285.5 156.5q64 9 123 9h377v-1764h-279zM1159 -289v1764h279v-1764h-279z" />
    <glyph glyph-name="periodcentered" unicode="&#xb7;" horiz-adv-x="1310" 
d="M659 481q-71 0 -119 47t-48 117t48 117t119 47q65 0 112.5 -47.5t47.5 -116.5t-47.5 -116.5t-112.5 -47.5z" />
    <glyph glyph-name="cedilla" unicode="&#xb8;" horiz-adv-x="858" 
d="M391 -496q-75 0 -145 39l59 160q41 -12 62 -12q26 0 41.5 14t15.5 33q0 33 -33 51t-100 37l71 209l162 2l-37 -111q125 -64 125 -194q0 -99 -65 -163.5t-156 -64.5z" />
    <glyph glyph-name="uni00B9" unicode="&#xb9;" horiz-adv-x="718" 
d="M295 553v733l-172 -106v190l172 105h178v-922h-178z" />
    <glyph glyph-name="ordmasculine" unicode="&#xba;" horiz-adv-x="1284" 
d="M641 -31q-249 0 -404 163t-155 421q0 259 156 421.5t403 162.5q165 0 293 -74.5t198 -207.5t70 -302q0 -258 -156 -421t-405 -163zM641 229q130 0 198 88t68 236q0 151 -68.5 237.5t-197.5 86.5q-132 0 -198 -86.5t-66 -237.5q0 -152 68 -238t196 -86z" />
    <glyph glyph-name="guillemotright" unicode="&#xbb;" horiz-adv-x="1234" 
d="M268 96l-145 115l272 342l-272 342l145 115l363 -457zM709 96l-146 115l273 342l-273 342l146 115l362 -457z" />
    <glyph glyph-name="onequarter" unicode="&#xbc;" horiz-adv-x="2162" 
d="M584 0l-158 117l987 1372l158 -119zM295 553v733l-172 -106v190l172 105h178v-922h-178zM1659 0v143h-402v164l291 615h201l-291 -615h201v230h176v-230h82v-164h-82v-143h-176z" />
    <glyph glyph-name="onehalf" unicode="&#xbd;" horiz-adv-x="2129" 
d="M1413 1489l158 -119l-987 -1370l-158 117zM473 553h-178v733l-172 -106v190l172 105h178v-922zM1858 346l-207 -182h377v-164h-648v152l387 344q80 72 80 135q0 65 -38 106t-101 41q-65 0 -107.5 -43t-39.5 -102h-181q0 142 91 225.5t241 83.5q136 0 226 -87.5t90 -225.5
q0 -40 -8 -73.5t-18.5 -56.5t-37 -52.5t-45 -46.5t-61.5 -54z" />
    <glyph glyph-name="threequarters" unicode="&#xbe;" horiz-adv-x="2138" 
d="M1532 1489l158 -119l-988 -1370l-157 117zM715 840q0 -130 -96 -220t-228 -90q-106 0 -193 62.5t-116 165.5l170 45q13 -51 52 -79t87 -28q60 0 103 42t43 102q0 61 -42 103t-104 42q-39 0 -72 -20l-79 137l247 207h-368v166h579v-166l-188 -183q97 -28 151 -107t54 -179
zM1933 307h82v-164h-82v-143h-176v143h-401v164l291 615h200l-291 -615h201v230h176v-230z" />
    <glyph glyph-name="questiondown" unicode="&#xbf;" horiz-adv-x="1153" 
d="M748 1106v-295h-293v295h293zM750 707q0 -148 -64 -258q-23 -46 -51 -76.5t-78 -73t-90 -84.5q-40 -44 -55 -87.5t-15 -100.5q0 -63 27 -99q46 -63 151 -63q82 0 125 35q59 44 56 127h295q-12 -109 -63 -200.5t-130 -143.5q-122 -80 -270 -80q-265 0 -391 155
q-44 53 -69.5 122t-25.5 138q0 188 174 373q21 23 54 56t51.5 54t32.5 42q28 45 34.5 74t6.5 90h295z" />
    <glyph glyph-name="Agrave" unicode="&#xc0;" horiz-adv-x="1398" 
d="M1036 1808l-69 -200l-576 196l68 203zM1071 0l-94 307h-555l-94 -307h-287l451 1475h415l451 -1475h-287zM502 567h397l-197 647z" />
    <glyph glyph-name="Aacute" unicode="&#xc1;" horiz-adv-x="1398" 
d="M1008 1804l-576 -196l-70 200l578 199zM1071 0l-94 307h-555l-94 -307h-287l451 1475h415l451 -1475h-287zM500 567h397l-201 647z" />
    <glyph glyph-name="Acircumflex" unicode="&#xc2;" horiz-adv-x="1398" 
d="M700 1749l-270 -139l-98 190l368 193l369 -193l-98 -190zM1071 0l-94 307h-555l-94 -307h-287l451 1475h415l451 -1475h-287zM500 567h397l-201 647z" />
    <glyph glyph-name="Atilde" unicode="&#xc3;" horiz-adv-x="1398" 
d="M864 1686q-43 0 -83.5 18.5t-71 45.5t-57.5 54t-53 45.5t-48 18.5q-33 0 -44.5 -37t3.5 -115h-162q-24 138 31.5 229t155.5 91q43 0 84 -19t72.5 -46t59.5 -53.5t53.5 -45.5t45.5 -19q32 0 43.5 42.5t-2.5 109.5h162q25 -133 -30.5 -226t-158.5 -93zM1071 0l-94 307h-555
l-94 -307h-287l451 1475h415l451 -1475h-287zM500 567h397l-201 647z" />
    <glyph glyph-name="Adieresis" unicode="&#xc4;" horiz-adv-x="1398" 
d="M606 1966v-246h-246v246h246zM1040 1966v-246h-245v246h245zM1071 0l-94 307h-555l-94 -307h-287l451 1475h415l451 -1475h-287zM500 567h397l-201 647z" />
    <glyph glyph-name="Aring" unicode="&#xc5;" horiz-adv-x="1398" 
d="M1071 0l-94 307h-555l-94 -307h-287l424 1386q-82 88 -82 211q0 131 93.5 224.5t223.5 93.5t224 -93.5t94 -224.5q0 -123 -84 -213l424 -1384h-287zM700 1720q-51 0 -86.5 -36t-35.5 -87t35.5 -86.5t86.5 -35.5t87 35.5t36 86.5t-36 87t-87 36zM500 567h397l-201 647z
" />
    <glyph glyph-name="AE" unicode="&#xc6;" horiz-adv-x="1935" 
d="M1833 1214h-684v-315h561v-260h-561v-379h684v-260h-963v307h-448l-94 -307h-287l451 1475h1341v-261zM500 567h370v647h-174z" />
    <glyph glyph-name="Ccedilla" unicode="&#xc7;" horiz-adv-x="1527" 
d="M776 231q151 0 249 73.5t140 209.5l281 -78q-65 -199 -215.5 -320t-366.5 -143l-16 -47q125 -64 125 -194q0 -99 -65 -163.5t-156 -64.5q-76 0 -146 39l60 160q40 -12 61 -12q26 0 41.5 14t15.5 33q0 33 -33 51t-100 37l51 145q-298 26 -469.5 233t-171.5 533
q0 229 86 402.5t248.5 269.5t380.5 96q250 0 424 -124t246 -343l-281 -77q-42 136 -140 209t-249 73q-206 0 -314 -135t-108 -371t108 -371t314 -135z" />
    <glyph glyph-name="Egrave" unicode="&#xc8;" horiz-adv-x="1208" 
d="M895 1608l-576 196l68 203l578 -199zM143 0v1475h963v-261h-684v-315h561v-260h-561v-379h684v-260h-963z" />
    <glyph glyph-name="Eacute" unicode="&#xc9;" horiz-adv-x="1208" 
d="M354 1608l-69 200l577 199l68 -203zM143 0v1475h963v-261h-684v-315h561v-260h-561v-379h684v-260h-963z" />
    <glyph glyph-name="Ecircumflex" unicode="&#xca;" horiz-adv-x="1208" 
d="M344 1610l-98 190l368 193l369 -193l-98 -190l-271 139zM143 0v1475h963v-261h-684v-315h561v-260h-561v-379h684v-260h-963z" />
    <glyph glyph-name="Edieresis" unicode="&#xcb;" horiz-adv-x="1208" 
d="M283 1720v246h245v-246h-245zM717 1720v246h246v-246h-246zM143 0v1475h963v-261h-684v-315h561v-260h-561v-379h684v-260h-963z" />
    <glyph glyph-name="Igrave" unicode="&#xcc;" 
d="M567 1608l-575 196l67 203l578 -199zM164 0v1475h278v-1475h-278z" />
    <glyph glyph-name="Iacute" unicode="&#xcd;" 
d="M37 1608l-70 200l578 199l67 -203zM164 0v1475h278v-1475h-278z" />
    <glyph glyph-name="Icircumflex" unicode="&#xce;" 
d="M33 1610l-99 190l369 193l369 -193l-99 -190l-270 139zM164 0v1475h278v-1475h-278z" />
    <glyph glyph-name="Idieresis" unicode="&#xcf;" 
d="M-37 1720v246h246v-246h-246zM397 1720v246h246v-246h-246zM164 0v1475h278v-1475h-278z" />
    <glyph glyph-name="Eth" unicode="&#xd0;" horiz-adv-x="1462" 
d="M805 1466q173 -21 300.5 -124t191 -259.5t63.5 -345.5t-63.5 -345.5t-191 -259.5t-300.5 -124q-68 -8 -176 -8h-477v631h-132v215h132v629h477q99 0 176 -9zM788 272q136 28 206.5 160.5t70.5 304.5q0 176 -72 307t-205 158q-51 10 -159 10h-195v-366h293v-215h-293v-369
h195q108 0 159 10z" />
    <glyph glyph-name="Ntilde" unicode="&#xd1;" horiz-adv-x="1492" 
d="M932 1634q-43 0 -83.5 19t-71 46t-58 53.5t-53.5 45.5t-48 19q-33 0 -44 -37t4 -115h-162q-24 138 31 229t155 91q43 0 84.5 -19t73 -45.5t59 -53.5t53.5 -46t46 -19q32 0 43 42t-3 110h162q25 -133 -30 -226.5t-158 -93.5zM143 0v1475h283l641 -983v983h283v-1475h-283
l-641 983v-983h-283z" />
    <glyph glyph-name="Ograve" unicode="&#xd2;" horiz-adv-x="1552" 
d="M1092 1608l-576 196l68 203l577 -199zM776 -31q-218 0 -380.5 96t-248.5 269.5t-86 402.5t86 402.5t248.5 269.5t380.5 96t380.5 -96t248.5 -269.5t86 -402.5t-86 -402.5t-248.5 -269.5t-380.5 -96zM776 231q206 -3 313 133t107 373q0 235 -106.5 369t-313.5 137
q-206 3 -313 -133t-107 -373q0 -235 106.5 -369t313.5 -137z" />
    <glyph glyph-name="Oacute" unicode="&#xd3;" horiz-adv-x="1552" 
d="M565 1608l-69 200l577 199l68 -203zM776 -31q-218 0 -380.5 96t-248.5 269.5t-86 402.5t86 402.5t248.5 269.5t380.5 96t380.5 -96t248.5 -269.5t86 -402.5t-86 -402.5t-248.5 -269.5t-380.5 -96zM776 231q206 -3 313 133t107 373q0 235 -106.5 369t-313.5 137
q-206 3 -313 -133t-107 -373q0 -235 106.5 -369t313.5 -137z" />
    <glyph glyph-name="Ocircumflex" unicode="&#xd4;" horiz-adv-x="1552" 
d="M506 1610l-98 190l368 193l369 -193l-98 -190l-271 139zM776 -31q-218 0 -380.5 96t-248.5 269.5t-86 402.5t86 402.5t248.5 269.5t380.5 96t380.5 -96t248.5 -269.5t86 -402.5t-86 -402.5t-248.5 -269.5t-380.5 -96zM776 231q206 -3 313 133t107 373q0 235 -106.5 369
t-313.5 137q-206 3 -313 -133t-107 -373q0 -235 106.5 -369t313.5 -137z" />
    <glyph glyph-name="Otilde" unicode="&#xd5;" horiz-adv-x="1552" 
d="M961 1686q-52 0 -102.5 28.5t-82.5 62.5t-67.5 62.5t-61.5 28.5q-33 0 -44.5 -37t3.5 -115h-162q-24 138 31.5 229t155.5 91q43 0 84 -19t72.5 -46t59.5 -53.5t53.5 -45.5t45.5 -19q32 0 43.5 42.5t-2.5 109.5h162q25 -133 -30 -226t-158 -93zM776 -31q-218 0 -380.5 96
t-248.5 269.5t-86 402.5t86 402.5t248.5 269.5t380.5 96t380.5 -96t248.5 -269.5t86 -402.5t-86 -402.5t-248.5 -269.5t-380.5 -96zM776 231q206 -3 313 133t107 373q0 235 -106.5 369t-313.5 137q-206 3 -313 -133t-107 -373q0 -235 106.5 -369t313.5 -137z" />
    <glyph glyph-name="Odieresis" unicode="&#xd6;" horiz-adv-x="1552" 
d="M436 1720v246h246v-246h-246zM870 1720v246h246v-246h-246zM776 -31q-218 0 -380.5 96t-248.5 269.5t-86 402.5t86 402.5t248.5 269.5t380.5 96t380.5 -96t248.5 -269.5t86 -402.5t-86 -402.5t-248.5 -269.5t-380.5 -96zM776 231q206 -3 313 133t107 373
q0 235 -106.5 369t-313.5 137q-206 3 -313 -133t-107 -373q0 -235 106.5 -369t313.5 -137z" />
    <glyph glyph-name="multiply" unicode="&#xd7;" horiz-adv-x="1052" 
d="M776 336l-250 252l-250 -252l-153 151l252 252l-250 248l151 154l250 -250l250 250l152 -154l-250 -248l252 -252z" />
    <glyph glyph-name="Oslash" unicode="&#xd8;" horiz-adv-x="1552" 
d="M1491 1325l-117 -131q117 -189 117 -457q0 -229 -86 -402.5t-248.5 -269.5t-380.5 -96q-227 0 -395 105l-88 -101l-197 174l97 111q-132 200 -132 479q0 229 86 402.5t248.5 269.5t380.5 96q242 0 416 -119l102 115zM776 1243q-206 3 -313 -133t-107 -373q0 -149 43 -256
l615 695q-94 64 -238 67zM776 231q206 -3 313 133t107 373q0 135 -33 230l-602 -682q88 -51 215 -54z" />
    <glyph glyph-name="Ugrave" unicode="&#xd9;" horiz-adv-x="1486" 
d="M956 1608l-575 196l68 203l577 -199zM743 -31q-268 0 -434 160t-166 424v920l283 2v-920q0 -144 91 -234t226 -90q136 0 227 91.5t91 232.5v920h282v-922q0 -264 -166 -424t-434 -160z" />
    <glyph glyph-name="Uacute" unicode="&#xda;" horiz-adv-x="1486" 
d="M500 1608l-70 200l578 199l67 -203zM743 -31q-268 0 -434 160t-166 424v920l283 2v-920q0 -144 91 -234t226 -90q136 0 227 91.5t91 232.5v920h282v-922q0 -264 -166 -424t-434 -160z" />
    <glyph glyph-name="Ucircumflex" unicode="&#xdb;" horiz-adv-x="1486" 
d="M473 1610l-98 190l368 193l369 -193l-98 -190l-271 139zM743 -31q-268 0 -434 160t-166 424v920l283 2v-920q0 -144 91 -234t226 -90q136 0 227 91.5t91 232.5v920h282v-922q0 -264 -166 -424t-434 -160z" />
    <glyph glyph-name="Udieresis" unicode="&#xdc;" horiz-adv-x="1486" 
d="M403 1720v246h246v-246h-246zM838 1720v246h245v-246h-245zM743 -31q-268 0 -434 160t-166 424v920l283 2v-920q0 -144 91 -234t226 -90q136 0 227 91.5t91 232.5v920h282v-922q0 -264 -166 -424t-434 -160z" />
    <glyph glyph-name="Yacute" unicode="&#xdd;" horiz-adv-x="1290" 
d="M414 1608l-70 200l578 199l67 -203zM504 0v600l-504 875h326l319 -555l320 555h325l-504 -875v-600h-282z" />
    <glyph glyph-name="Thorn" unicode="&#xde;" horiz-adv-x="1314" 
d="M143 0v1475h283v-250h334q72 0 149 -23q157 -50 246 -176q95 -127 98 -289q3 -152 -98 -288q-65 -91 -170 -144t-225 -53h-334v-252h-283zM426 512h332q43 0 90 24.5t78 65.5q48 64 45 135q-3 91 -53 146q-30 35 -74 57.5t-86 22.5h-332v-451z" />
    <glyph glyph-name="germandbls" unicode="&#xdf;" horiz-adv-x="1323" 
d="M727 -31q-117 0 -190 31v272q75 -30 149 -30q111 0 173.5 50t62.5 150q0 112 -83 164.5t-227 52.5v242q93 6 142 51.5t49 124.5q0 76 -57.5 122t-135.5 46q-113 0 -161 -86q-27 -49 -27 -149v-1010h-281v1085q0 74 17 132q30 99 101 165.5t159 94.5t192 28
q129 0 237.5 -55t172 -152t63.5 -215q0 -166 -106 -266q106 -44 164.5 -146t58.5 -233q0 -221 -123 -345t-350 -124z" />
    <glyph glyph-name="agrave" unicode="&#xe0;" horiz-adv-x="1193" 
d="M1010 1440l-70 -201l-575 197l67 202zM1026 936q29 -56 37 -112.5t8 -147.5v-676h-244v135q-74 -88 -161.5 -127t-214.5 -39q-172 0 -270.5 96t-98.5 240q0 121 56.5 203.5t185.5 130.5q50 18 130 35.5t145.5 28t197.5 30.5q-9 77 -57.5 113.5t-145.5 36.5
q-71 0 -134 -33t-87 -102l-252 79q43 143 162 226.5t311 83.5q325 0 432 -201zM766 336q24 50 29 170q-247 -41 -326 -70q-61 -24 -88 -54.5t-27 -72.5q0 -57 42 -89t114 -32q54 0 101 16t77 41t49 47.5t29 43.5z" />
    <glyph glyph-name="aacute" unicode="&#xe1;" horiz-adv-x="1193" 
d="M958 1436l-575 -197l-70 201l578 198zM1026 936q29 -56 37 -112.5t8 -147.5v-676h-244v135q-74 -88 -161.5 -127t-214.5 -39q-172 0 -270.5 96t-98.5 240q0 121 56.5 203.5t185.5 130.5q50 18 130 35.5t145.5 28t197.5 30.5q-9 77 -57.5 113.5t-145.5 36.5
q-71 0 -134 -33t-87 -102l-252 79q43 143 162 226.5t311 83.5q325 0 432 -201zM766 336q24 50 29 170q-247 -41 -326 -70q-61 -24 -88 -54.5t-27 -72.5q0 -57 42 -89t114 -32q54 0 101 16t77 41t49 47.5t29 43.5z" />
    <glyph glyph-name="acircumflex" unicode="&#xe2;" horiz-adv-x="1193" 
d="M614 1380l-270 -139l-98 191l368 192l369 -192l-98 -191zM1026 936q29 -56 37 -112.5t8 -147.5v-676h-244v135q-74 -88 -161.5 -127t-214.5 -39q-172 0 -270.5 96t-98.5 240q0 121 56.5 203.5t185.5 130.5q50 18 130 35.5t145.5 28t197.5 30.5q-9 77 -57.5 113.5
t-145.5 36.5q-71 0 -134 -33t-87 -102l-252 79q43 143 162 226.5t311 83.5q325 0 432 -201zM766 336q24 50 29 170q-247 -41 -326 -70q-61 -24 -88 -54.5t-27 -72.5q0 -57 42 -89t114 -32q54 0 101 16t77 41t49 47.5t29 43.5z" />
    <glyph glyph-name="atilde" unicode="&#xe3;" horiz-adv-x="1193" 
d="M444 1296h-161q-24 138 31 229t155 91q43 0 84 -18.5t72.5 -45.5t59.5 -54t53.5 -45.5t45.5 -18.5q32 0 43.5 42t-2.5 109h162q25 -133 -30 -226t-158 -93q-52 0 -102.5 28.5t-82.5 62.5t-67.5 62.5t-61.5 28.5q-33 0 -44.5 -37t3.5 -115zM1026 936q29 -56 37 -112.5
t8 -147.5v-676h-244v135q-74 -88 -161.5 -127t-214.5 -39q-172 0 -270.5 96t-98.5 240q0 121 56.5 203.5t185.5 130.5q50 18 130 35.5t145.5 28t197.5 30.5q-9 77 -57.5 113.5t-145.5 36.5q-71 0 -134 -33t-87 -102l-252 79q43 143 162 226.5t311 83.5q325 0 432 -201z
M766 336q24 50 29 170q-247 -41 -326 -70q-61 -24 -88 -54.5t-27 -72.5q0 -57 42 -89t114 -32q54 0 101 16t77 41t49 47.5t29 43.5z" />
    <glyph glyph-name="adieresis" unicode="&#xe4;" horiz-adv-x="1193" 
d="M520 1505v-245h-246v245h246zM954 1505v-245h-245v245h245zM1026 936q29 -56 37 -112.5t8 -147.5v-676h-244v135q-74 -88 -161.5 -127t-214.5 -39q-172 0 -270.5 96t-98.5 240q0 121 56.5 203.5t185.5 130.5q50 18 130 35.5t145.5 28t197.5 30.5q-9 77 -57.5 113.5
t-145.5 36.5q-71 0 -134 -33t-87 -102l-252 79q43 143 162 226.5t311 83.5q325 0 432 -201zM766 336q24 50 29 170q-247 -41 -326 -70q-61 -24 -88 -54.5t-27 -72.5q0 -57 42 -89t114 -32q54 0 101 16t77 41t49 47.5t29 43.5z" />
    <glyph glyph-name="aring" unicode="&#xe5;" horiz-adv-x="1193" 
d="M1026 936q29 -56 37 -112.5t8 -147.5v-676h-244v135q-74 -88 -161.5 -127t-214.5 -39q-172 0 -270.5 96t-98.5 240q0 121 56.5 203.5t185.5 130.5q50 18 130 35.5t145.5 28t197.5 30.5q-9 77 -57.5 113.5t-145.5 36.5q-71 0 -134 -33t-87 -102l-252 79q56 183 223 260
q-51 76 -51 173q0 130 93.5 223.5t223.5 93.5q131 0 224.5 -93.5t93.5 -223.5q0 -99 -56 -177q105 -53 154 -147zM610 1382q-51 0 -87 -35.5t-36 -86.5t36 -87t87 -36t87 36t36 87t-36 86.5t-87 35.5zM766 336q24 50 29 170q-247 -41 -326 -70q-61 -24 -88 -54.5t-27 -72.5
q0 -57 42 -89t114 -32q54 0 101 16t77 41t49 47.5t29 43.5z" />
    <glyph glyph-name="ae" unicode="&#xe6;" horiz-adv-x="1910" 
d="M1092 475q15 -118 77.5 -182t167.5 -64q73 0 130 36t87 104l263 -80q-57 -148 -185.5 -234t-279.5 -86q-142 0 -255.5 58t-185.5 161q-149 -219 -446 -219q-181 0 -282 91t-101 237q0 61 20 112t49 86t77 63.5t89 45t101 30t97 19.5t91 13l191 24q0 101 -57 147t-146 46
q-75 0 -135 -34t-88 -101l-250 75q60 137 183.5 225.5t297.5 88.5q251 0 373 -144q141 144 362 144q167 0 284 -85.5t169 -234.5t37 -342h-735zM1337 895q-192 0 -237 -205h459q-13 103 -64.5 154t-157.5 51zM510 186q80 0 148 39.5t100 93.5q39 68 39 179l-133 -17
q-310 -35 -310 -174q0 -54 42 -87.5t114 -33.5z" />
    <glyph glyph-name="ccedilla" unicode="&#xe7;" horiz-adv-x="1193" 
d="M631 229q90 0 140.5 41.5t76.5 124.5l285 -59q-43 -156 -151.5 -249.5t-268.5 -113.5l-17 -47q125 -64 125 -194q0 -99 -65 -163.5t-156 -64.5q-75 0 -145 39l59 160q40 -12 61 -12q26 0 42 14t16 33q0 33 -33 51t-100 37l51 147q-145 18 -252 98.5t-162 204.5t-55 277
q0 168 67 300t193.5 208t292.5 76q195 0 328 -99t170 -270l-279 -74q-24 85 -85 134t-138 49q-126 0 -190 -89t-64 -235q0 -149 65.5 -236.5t188.5 -87.5z" />
    <glyph glyph-name="egrave" unicode="&#xe8;" horiz-adv-x="1245" 
d="M1034 1440l-69 -201l-576 197l68 202zM381 475q15 -120 81 -183t179 -63q165 0 229 140l279 -80q-62 -150 -195.5 -235t-296.5 -85q-254 0 -414.5 160t-160.5 410q0 270 155.5 434t403.5 164q261 0 402 -180.5t116 -481.5h-778zM653 895q-220 0 -264 -213h488
q-15 112 -69 162.5t-155 50.5z" />
    <glyph glyph-name="eacute" unicode="&#xe9;" horiz-adv-x="1245" 
d="M963 1436l-576 -197l-70 201l578 198zM381 475q15 -120 81 -183t179 -63q165 0 229 140l279 -80q-62 -150 -195.5 -235t-296.5 -85q-254 0 -414.5 160t-160.5 410q0 270 155.5 434t403.5 164q261 0 402 -180.5t116 -481.5h-778zM653 895q-220 0 -264 -213h488
q-15 112 -69 162.5t-155 50.5z" />
    <glyph glyph-name="ecircumflex" unicode="&#xea;" horiz-adv-x="1245" 
d="M641 1380l-270 -139l-99 191l369 192l369 -192l-99 -191zM381 475q15 -120 81 -183t179 -63q165 0 229 140l279 -80q-62 -150 -195.5 -235t-296.5 -85q-254 0 -414.5 160t-160.5 410q0 270 155.5 434t403.5 164q261 0 402 -180.5t116 -481.5h-778zM653 895
q-220 0 -264 -213h488q-15 112 -69 162.5t-155 50.5z" />
    <glyph glyph-name="edieresis" unicode="&#xeb;" horiz-adv-x="1245" 
d="M547 1505v-245h-246v245h246zM981 1505v-245h-246v245h246zM381 475q15 -120 81 -183t179 -63q165 0 229 140l279 -80q-62 -150 -195.5 -235t-296.5 -85q-254 0 -414.5 160t-160.5 410q0 270 155.5 434t403.5 164q261 0 402 -180.5t116 -481.5h-778zM653 895
q-220 0 -264 -213h488q-15 112 -69 162.5t-155 50.5z" />
    <glyph glyph-name="igrave" unicode="&#xec;" 
d="M557 1239l-575 197l67 202l578 -198zM164 0v1106h278v-1106h-278z" />
    <glyph glyph-name="iacute" unicode="&#xed;" 
d="M49 1239l-69 201l577 198l68 -202zM164 0v1106h278v-1106h-278z" />
    <glyph glyph-name="icircumflex" unicode="&#xee;" 
d="M53 1241l-98 191l369 192l368 -192l-98 -191l-270 139zM164 0v1106h278v-1106h-278z" />
    <glyph glyph-name="idieresis" unicode="&#xef;" 
d="M-37 1260v245h246v-245h-246zM397 1260v245h246v-245h-246zM164 0v1106h278v-1106h-278z" />
    <glyph glyph-name="eth" unicode="&#xf0;" horiz-adv-x="1230" 
d="M942 1335q110 -135 158.5 -325t48.5 -488q0 -254 -144.5 -403.5t-388.5 -149.5q-236 0 -385 152t-149 393q0 243 149 395t385 152q68 0 128.5 -16t142.5 -56q-18 114 -129 211l-103 -117l-151 136l78 88q-92 34 -170 39l43 210q167 -6 288 -65l99 113l151 -136l-84 -96
q13 -13 33 -37zM616 215q120 0 187 79.5t67 221.5q0 141 -67 220t-187 79q-124 0 -190 -77t-66 -222t66.5 -223t189.5 -78z" />
    <glyph glyph-name="ntilde" unicode="&#xf1;" horiz-adv-x="1302" 
d="M817 1266q-43 0 -83.5 18.5t-71 45.5t-57.5 54t-53 45.5t-48 18.5q-33 0 -44.5 -37t3.5 -115h-162q-24 138 31 229t155 91q43 0 84.5 -18.5t73 -45.5t59 -54t53.5 -45.5t46 -18.5q32 0 43.5 42t-2.5 109h162q25 -133 -30.5 -226t-158.5 -93zM748 1139q70 0 128.5 -15.5
t100 -39t75 -60t54.5 -70.5t36 -79.5t22 -78t11 -73.5t4.5 -59t0.5 -43v-621h-283v522q0 32 -0.5 52t-5 61t-13 69.5t-26 63.5t-42 57t-63.5 37t-88 15q-33 0 -62 -6t-62 -26.5t-56.5 -53.5t-39 -92t-15.5 -138v-561h-283v1106h248v-115q132 148 359 148z" />
    <glyph glyph-name="ograve" unicode="&#xf2;" horiz-adv-x="1284" 
d="M918 1239l-576 197l68 202l577 -198zM643 -31q-249 0 -405 163t-156 421q0 169 70 302t198 207.5t293 74.5q247 0 403 -162.5t156 -421.5q0 -258 -155 -421t-404 -163zM643 229q128 0 196 86t68 238q0 151 -66 237.5t-198 86.5q-129 0 -197.5 -86.5t-68.5 -237.5
q0 -148 68 -236t198 -88z" />
    <glyph glyph-name="oacute" unicode="&#xf3;" horiz-adv-x="1284" 
d="M367 1239l-70 201l577 198l68 -202zM641 -31q-249 0 -404 163t-155 421q0 259 156 421.5t403 162.5q165 0 293 -74.5t198 -207.5t70 -302q0 -258 -156 -421t-405 -163zM641 229q130 0 198 88t68 236q0 151 -68.5 237.5t-197.5 86.5q-132 0 -198 -86.5t-66 -237.5
q0 -152 68 -238t196 -86z" />
    <glyph glyph-name="ocircumflex" unicode="&#xf4;" horiz-adv-x="1284" 
d="M373 1241l-99 191l369 192l369 -192l-99 -191l-270 139zM641 -31q-249 0 -404 163t-155 421q0 259 156 421.5t403 162.5q165 0 293 -74.5t198 -207.5t70 -302q0 -258 -156 -421t-405 -163zM641 229q130 0 198 88t68 236q0 151 -68.5 237.5t-197.5 86.5q-132 0 -198 -86.5
t-66 -237.5q0 -152 68 -238t196 -86z" />
    <glyph glyph-name="otilde" unicode="&#xf5;" horiz-adv-x="1284" 
d="M807 1266q-43 0 -83.5 18.5t-71 45.5t-57.5 54t-53 45.5t-48 18.5q-33 0 -44.5 -37t3.5 -115h-162q-24 138 31 229t155 91q43 0 84.5 -18.5t73 -45.5t59 -54t53.5 -45.5t46 -18.5q32 0 43.5 42t-2.5 109h161q25 -133 -30 -226t-158 -93zM641 -31q-249 0 -404 163
t-155 421q0 259 156 421.5t403 162.5q165 0 293 -74.5t198 -207.5t70 -302q0 -258 -156 -421t-405 -163zM641 229q130 0 198 88t68 236q0 151 -68.5 237.5t-197.5 86.5q-132 0 -198 -86.5t-66 -237.5q0 -152 68 -238t196 -86z" />
    <glyph glyph-name="odieresis" unicode="&#xf6;" horiz-adv-x="1284" 
d="M303 1260v245h246v-245h-246zM737 1260v245h246v-245h-246zM641 -31q-249 0 -404 163t-155 421q0 259 156 421.5t403 162.5q165 0 293 -74.5t198 -207.5t70 -302q0 -258 -156 -421t-405 -163zM641 229q130 0 198 88t68 236q0 151 -68.5 237.5t-197.5 86.5
q-132 0 -198 -86.5t-66 -237.5q0 -152 68 -238t196 -86z" />
    <glyph glyph-name="divide" unicode="&#xf7;" horiz-adv-x="1105" 
d="M428 950v254h252v-254h-252zM123 631v215h860v-215h-860zM428 274v254h252v-254h-252z" />
    <glyph glyph-name="oslash" unicode="&#xf8;" horiz-adv-x="1284" 
d="M1227 950l-97 -94q72 -132 72 -303q0 -258 -156 -421t-405 -163q-175 0 -313 86l-86 -86l-185 185l97 96q-72 132 -72 303q0 259 156 421.5t403 162.5q180 0 313 -88l88 88zM641 877q-132 0 -198 -86.5t-66 -237.5q0 -55 10 -113l399 398q-61 39 -145 39zM641 229
q130 0 198 88t68 236q0 53 -10 111l-397 -398q58 -37 141 -37z" />
    <glyph glyph-name="ugrave" unicode="&#xf9;" horiz-adv-x="1302" 
d="M1006 1440l-70 -201l-576 197l68 202zM879 1106h280v-1106h-246v115q-132 -148 -358 -148q-70 0 -128.5 15.5t-100 39t-75 60t-54.5 70.5t-36 79.5t-22 78t-11 73.5t-4.5 59t-0.5 43v621h283v-522q0 -32 0.5 -52t5 -61.5t12.5 -69t25.5 -63t42 -57t63.5 -37t88 -15.5
q33 0 62 6t62 26.5t57 53.5t39.5 92t15.5 138v561z" />
    <glyph glyph-name="uacute" unicode="&#xfa;" horiz-adv-x="1302" 
d="M954 1436l-575 -197l-70 201l578 198zM879 1106h280v-1106h-246v115q-132 -148 -358 -148q-70 0 -128.5 15.5t-100 39t-75 60t-54.5 70.5t-36 79.5t-22 78t-11 73.5t-4.5 59t-0.5 43v621h283v-522q0 -32 0.5 -52t5 -61.5t12.5 -69t25.5 -63t42 -57t63.5 -37t88 -15.5
q33 0 62 6t62 26.5t57 53.5t39.5 92t15.5 138v561z" />
    <glyph glyph-name="ucircumflex" unicode="&#xfb;" horiz-adv-x="1302" 
d="M641 1380l-270 -139l-99 191l369 192l369 -192l-99 -191zM879 1106h280v-1106h-246v115q-132 -148 -358 -148q-70 0 -128.5 15.5t-100 39t-75 60t-54.5 70.5t-36 79.5t-22 78t-11 73.5t-4.5 59t-0.5 43v621h283v-522q0 -32 0.5 -52t5 -61.5t12.5 -69t25.5 -63t42 -57
t63.5 -37t88 -15.5q33 0 62 6t62 26.5t57 53.5t39.5 92t15.5 138v561z" />
    <glyph glyph-name="udieresis" unicode="&#xfc;" horiz-adv-x="1302" 
d="M547 1505v-245h-246v245h246zM981 1505v-245h-246v245h246zM879 1106h280v-1106h-246v115q-132 -148 -358 -148q-70 0 -128.5 15.5t-100 39t-75 60t-54.5 70.5t-36 79.5t-22 78t-11 73.5t-4.5 59t-0.5 43v621h283v-522q0 -32 0.5 -52t5 -61.5t12.5 -69t25.5 -63t42 -57
t63.5 -37t88 -15.5q33 0 62 6t62 26.5t57 53.5t39.5 92t15.5 138v561z" />
    <glyph glyph-name="yacute" unicode="&#xfd;" horiz-adv-x="1167" 
d="M946 1436l-575 -197l-70 201l578 198zM889 1106h278l-624 -1598h-258l182 500l-447 1098h289l291 -752z" />
    <glyph glyph-name="thorn" unicode="&#xfe;" horiz-adv-x="1277" 
d="M672 1137q235 0 379.5 -164t144.5 -420q0 -165 -63 -298t-180 -209.5t-267 -76.5q-152 0 -264 70v-531h-281v1598h2v369h281v-404q109 66 248 66zM641 217q129 0 194.5 94t65.5 242q0 147 -68.5 241.5t-201.5 94.5q-125 0 -184.5 -89t-59.5 -247q0 -336 254 -336z" />
    <glyph glyph-name="ydieresis" unicode="&#xff;" horiz-adv-x="1167" 
d="M504 1505v-245h-246v245h246zM938 1505v-245h-246v245h246zM889 1106h278l-624 -1598h-258l182 500l-447 1098h289l291 -752z" />
    <glyph glyph-name="Amacron" unicode="&#x100;" horiz-adv-x="1398" 
d="M979 1933v-213h-557v213h557zM1071 0l-94 307h-555l-94 -307h-287l451 1475h415l451 -1475h-287zM500 567h397l-201 647z" />
    <glyph glyph-name="amacron" unicode="&#x101;" horiz-adv-x="1193" 
d="M915 1565v-213h-557v213h557zM1026 936q29 -56 37 -112.5t8 -147.5v-676h-244v135q-74 -88 -161.5 -127t-214.5 -39q-172 0 -270.5 96t-98.5 240q0 121 56.5 203.5t185.5 130.5q50 18 130 35.5t145.5 28t197.5 30.5q-9 77 -57.5 113.5t-145.5 36.5q-71 0 -134 -33
t-87 -102l-252 79q43 143 162 226.5t311 83.5q325 0 432 -201zM766 336q24 50 29 170q-247 -41 -326 -70q-61 -24 -88 -54.5t-27 -72.5q0 -57 42 -89t114 -32q54 0 101 16t77 41t49 47.5t29 43.5z" />
    <glyph glyph-name="Abreve" unicode="&#x102;" horiz-adv-x="1398" 
d="M700 1597q-135 0 -230 95.5t-95 230.5h215q0 -46 32 -78.5t78 -32.5t78.5 32.5t32.5 78.5h215q0 -135 -95.5 -230.5t-230.5 -95.5zM1071 0l-94 307h-555l-94 -307h-287l451 1475h415l451 -1475h-287zM500 567h397l-201 647z" />
    <glyph glyph-name="abreve" unicode="&#x103;" horiz-adv-x="1193" 
d="M606 1229q-135 0 -230 95t-95 230h215q0 -46 32 -78t78 -32t78.5 32t32.5 78h215q0 -135 -95.5 -230t-230.5 -95zM1026 936q29 -56 37 -112.5t8 -147.5v-676h-244v135q-74 -88 -161.5 -127t-214.5 -39q-172 0 -270.5 96t-98.5 240q0 121 56.5 203.5t185.5 130.5
q50 18 130 35.5t145.5 28t197.5 30.5q-9 77 -57.5 113.5t-145.5 36.5q-71 0 -134 -33t-87 -102l-252 79q43 143 162 226.5t311 83.5q325 0 432 -201zM766 336q24 50 29 170q-247 -41 -326 -70q-61 -24 -88 -54.5t-27 -72.5q0 -57 42 -89t114 -32q54 0 101 16t77 41t49 47.5
t29 43.5z" />
    <glyph glyph-name="Aogonek" unicode="&#x104;" horiz-adv-x="1398" 
d="M1186 -287q30 0 69 31l97 -127q-36 -50 -91 -78t-114 -28q-99 0 -163 68.5t-64 162.5q0 71 39 144t106 134l-88 287h-555l-94 -307h-287l451 1475h415l451 -1475q-92 -46 -158.5 -117t-66.5 -119q0 -22 15 -36.5t38 -14.5zM500 567h397l-201 647z" />
    <glyph glyph-name="aogonek" unicode="&#x105;" horiz-adv-x="1193" 
d="M1071 0q-92 -46 -158.5 -117t-66.5 -119q0 -22 15 -36.5t38 -14.5q31 0 70 31l96 -127q-36 -50 -91 -78t-114 -28q-99 0 -163 68.5t-64 162.5q0 85 52 169t142 150v74q-74 -88 -161.5 -127t-214.5 -39q-172 0 -270.5 96t-98.5 240q0 121 56.5 203.5t185.5 130.5
q50 18 130 35.5t145.5 28t197.5 30.5q-9 77 -57.5 113.5t-145.5 36.5q-71 0 -134 -33t-87 -102l-252 79q43 143 162 226.5t311 83.5q325 0 432 -201q29 -56 37 -112.5t8 -147.5v-676zM766 336q24 50 29 170q-247 -41 -326 -70q-61 -24 -88 -54.5t-27 -72.5q0 -57 42 -89
t114 -32q54 0 101 16t77 41t49 47.5t29 43.5z" />
    <glyph glyph-name="Cacute" unicode="&#x106;" horiz-adv-x="1527" 
d="M557 1608l-70 200l578 199l68 -203zM776 -31q-218 0 -380.5 96t-248.5 269.5t-86 402.5t86 402.5t248.5 269.5t380.5 96q250 0 424 -124t246 -343l-281 -77q-42 136 -140 209t-249 73q-206 0 -314 -135t-108 -371t108 -371t314 -135q151 0 249 73.5t140 209.5l281 -78
q-72 -219 -246 -343t-424 -124z" />
    <glyph glyph-name="cacute" unicode="&#x107;" horiz-adv-x="1193" 
d="M309 1239l-69 201l577 198l68 -202zM631 -31q-252 0 -400.5 164.5t-148.5 419.5q0 168 67 300t193.5 208t292.5 76q195 0 328 -99t170 -270l-279 -74q-24 85 -85 134t-138 49q-126 0 -190 -89t-64 -235q0 -149 65.5 -236.5t188.5 -87.5q90 0 140.5 41.5t76.5 124.5
l285 -59q-47 -176 -178 -271.5t-324 -95.5z" />
    <glyph glyph-name="Cdotaccent" unicode="&#x10a;" horiz-adv-x="1527" 
d="M645 1739v278h279v-278h-279zM776 -31q-218 0 -380.5 96t-248.5 269.5t-86 402.5t86 402.5t248.5 269.5t380.5 96q250 0 424 -124t246 -343l-281 -77q-42 136 -140 209t-249 73q-206 0 -314 -135t-108 -371t108 -371t314 -135q151 0 249 73.5t140 209.5l281 -78
q-72 -219 -246 -343t-424 -124z" />
    <glyph glyph-name="cdotaccent" unicode="&#x10b;" horiz-adv-x="1193" 
d="M528 1319v278h279v-278h-279zM631 -31q-252 0 -400.5 164.5t-148.5 419.5q0 168 67 300t193.5 208t292.5 76q195 0 328 -99t170 -270l-279 -74q-24 85 -85 134t-138 49q-126 0 -190 -89t-64 -235q0 -149 65.5 -236.5t188.5 -87.5q90 0 140.5 41.5t76.5 124.5l285 -59
q-47 -176 -178 -271.5t-324 -95.5z" />
    <glyph glyph-name="Ccaron" unicode="&#x10c;" horiz-adv-x="1527" 
d="M768 1610l-369 192l99 191l270 -140l270 140l99 -191zM776 -31q-218 0 -380.5 96t-248.5 269.5t-86 402.5t86 402.5t248.5 269.5t380.5 96q250 0 424 -124t246 -343l-281 -77q-42 136 -140 209t-249 73q-206 0 -314 -135t-108 -371t108 -371t314 -135q151 0 249 73.5
t140 209.5l281 -78q-72 -219 -246 -343t-424 -124z" />
    <glyph glyph-name="ccaron" unicode="&#x10d;" horiz-adv-x="1193" 
d="M635 1241l-369 193l99 190l270 -139l270 139l99 -190zM631 -31q-252 0 -400.5 164.5t-148.5 419.5q0 168 67 300t193.5 208t292.5 76q195 0 328 -99t170 -270l-279 -74q-24 85 -85 134t-138 49q-126 0 -190 -89t-64 -235q0 -149 65.5 -236.5t188.5 -87.5q90 0 140.5 41.5
t76.5 124.5l285 -59q-47 -176 -178 -271.5t-324 -95.5z" />
    <glyph glyph-name="Dcaron" unicode="&#x10e;" horiz-adv-x="1454" 
d="M651 1610l-368 192l98 191l270 -140l271 140l98 -191zM143 0v1475h478q99 0 176 -9q173 -21 300.5 -124t191 -259.5t63.5 -345.5t-63.5 -345.5t-191 -259.5t-300.5 -124q-68 -8 -176 -8h-478zM426 262h195q108 0 159 10q136 28 206.5 160.5t70.5 304.5q0 176 -72 307
t-205 158q-51 10 -159 10h-195v-950z" />
    <glyph glyph-name="dcaron" unicode="&#x10f;" horiz-adv-x="1654" 
d="M856 1069v406h281v-1475h-246v63q-124 -94 -299 -94q-150 0 -267 76.5t-180 209.5t-63 298q0 256 144.5 420t379.5 164q139 0 250 -68zM1290 1475h279v-279q0 -152 -70.5 -225.5t-208.5 -50.5l17 116q71 -6 104.5 39t22.5 121h-144v279zM637 217q254 0 254 336
q0 158 -59.5 247t-184.5 89q-133 0 -201.5 -94.5t-68.5 -241.5q0 -148 65.5 -242t194.5 -94z" />
    <glyph glyph-name="Dcroat" unicode="&#x110;" horiz-adv-x="1462" 
d="M805 1466q173 -21 300.5 -124t191 -259.5t63.5 -345.5t-63.5 -345.5t-191 -259.5t-300.5 -124q-68 -8 -176 -8h-477v631h-132v215h132v629h477q99 0 176 -9zM788 272q136 28 206.5 160.5t70.5 304.5q0 176 -72 307t-205 158q-51 10 -159 10h-195v-366h293v-215h-293v-369
h195q108 0 159 10z" />
    <glyph glyph-name="dcroat" unicode="&#x111;" horiz-adv-x="1280" 
d="M1264 1401v-213h-127v-1188h-246v63q-124 -94 -299 -94q-150 0 -267 76.5t-180 209.5t-63 298q0 256 144.5 420t379.5 164q139 0 250 -68v119h-149v213h149v74h281v-74h127zM637 217q254 0 254 336q0 158 -59.5 247t-184.5 89q-133 0 -201.5 -94.5t-68.5 -241.5
q0 -148 65.5 -242t194.5 -94z" />
    <glyph glyph-name="Emacron" unicode="&#x112;" horiz-adv-x="1208" 
d="M356 1720v213h557v-213h-557zM143 0v1475h963v-261h-684v-315h561v-260h-561v-379h684v-260h-963z" />
    <glyph glyph-name="emacron" unicode="&#x113;" horiz-adv-x="1245" 
d="M940 1565v-213h-557v213h557zM381 475q15 -120 81 -183t179 -63q165 0 229 140l279 -80q-62 -150 -195.5 -235t-296.5 -85q-254 0 -414.5 160t-160.5 410q0 270 155.5 434t403.5 164q261 0 402 -180.5t116 -481.5h-778zM653 895q-220 0 -264 -213h488q-15 112 -69 162.5
t-155 50.5z" />
    <glyph glyph-name="Edotaccent" unicode="&#x116;" horiz-adv-x="1208" 
d="M483 1688v278h279v-278h-279zM143 0v1475h963v-261h-684v-315h561v-260h-561v-379h684v-260h-963z" />
    <glyph glyph-name="edotaccent" unicode="&#x117;" horiz-adv-x="1245" 
d="M782 1597v-278h-278v278h278zM381 475q15 -120 81 -183t179 -63q165 0 229 140l279 -80q-62 -150 -195.5 -235t-296.5 -85q-254 0 -414.5 160t-160.5 410q0 270 155.5 434t403.5 164q261 0 402 -180.5t116 -481.5h-778zM653 895q-220 0 -264 -213h488q-15 112 -69 162.5
t-155 50.5z" />
    <glyph glyph-name="Eogonek" unicode="&#x118;" horiz-adv-x="1208" 
d="M1106 1214h-684v-315h561v-260h-561v-379h684v-260q-92 -46 -158.5 -117t-66.5 -119q0 -22 15 -36.5t38 -14.5q31 0 70 31l96 -127q-36 -50 -91 -78t-114 -28q-99 0 -163 68.5t-64 162.5q0 132 123 258h-648v1475h963v-261z" />
    <glyph glyph-name="eogonek" unicode="&#x119;" horiz-adv-x="1245" 
d="M381 475q15 -120 81 -183t179 -63q165 0 229 140l279 -80q-24 -59 -62 -109q-107 -178 -129 -217q-51 -92 -73 -162q-5 -7 -4.5 -31.5t12.5 -37.5q21 -20 52.5 -15t58.5 27l96 -127q-31 -58 -99 -88q-72 -32 -151 -11t-127 83q-41 53 -50.5 126.5t19.5 145.5q8 20 56 104
q-39 -8 -91 -8q-254 0 -414.5 160t-160.5 410q0 270 155.5 434t403.5 164q261 0 402 -180.5t116 -481.5h-778zM653 895q-220 0 -264 -213h488q-15 112 -69 162.5t-155 50.5z" />
    <glyph glyph-name="Ecaron" unicode="&#x11a;" horiz-adv-x="1208" 
d="M635 1610l-369 192l99 191l270 -140l270 140l99 -191zM143 0v1475h963v-261h-684v-315h561v-260h-561v-379h684v-260h-963z" />
    <glyph glyph-name="ecaron" unicode="&#x11b;" horiz-adv-x="1245" 
d="M1010 1434l-369 -193l-369 193l99 190l270 -139l270 139zM381 475q15 -120 81 -183t179 -63q165 0 229 140l279 -80q-62 -150 -195.5 -235t-296.5 -85q-254 0 -414.5 160t-160.5 410q0 270 155.5 434t403.5 164q261 0 402 -180.5t116 -481.5h-778zM653 895
q-220 0 -264 -213h488q-15 112 -69 162.5t-155 50.5z" />
    <glyph glyph-name="Gbreve" unicode="&#x11e;" horiz-adv-x="1517" 
d="M795 1597q-135 0 -230.5 95.5t-95.5 230.5h215q0 -46 32.5 -78.5t78.5 -32.5t78 32.5t32 78.5h215q0 -135 -95 -230.5t-230 -95.5zM758 -31q-113 0 -216 31.5t-190.5 95.5t-152.5 154.5t-101.5 215.5t-36.5 271q0 179 54.5 325.5t149.5 242.5t221.5 148t271.5 52
q549 0 665 -506l-284 -41q-41 133 -133.5 208.5t-229.5 76.5q-206 3 -313 -133t-107 -373q0 -235 106.5 -369t313.5 -137q147 -3 246.5 80.5t132.5 253.5h-233v215h530q4 -36 4 -86q0 -211 -85 -375.5t-244 -257t-369 -92.5z" />
    <glyph glyph-name="gbreve" unicode="&#x11f;" horiz-adv-x="1277" 
d="M707 1229q-135 0 -230.5 95t-95.5 230h215q0 -46 32.5 -78t78.5 -32t78 32t32 78h215q0 -135 -95 -230t-230 -95zM891 1106h244v-1182q0 -82 -17 -149q-26 -99 -99.5 -167t-175.5 -99t-227 -31q-139 0 -257.5 65t-182.5 174l258 125q26 -48 75 -74t109 -26q64 0 118 20
t88 63.5t32 102.5v111q-112 -70 -264 -70q-150 0 -267 76.5t-180 209.5t-63 298q0 256 144.5 420t379.5 164q168 0 285 -93v62zM637 217q254 0 254 336q0 158 -59.5 247t-184.5 89q-133 0 -201.5 -94.5t-68.5 -241.5q0 -148 65.5 -242t194.5 -94z" />
    <glyph glyph-name="Gdotaccent" unicode="&#x120;" horiz-adv-x="1517" 
d="M641 1688v278h279v-278h-279zM758 -31q-113 0 -216 31.5t-190.5 95.5t-152.5 154.5t-101.5 215.5t-36.5 271q0 179 54.5 325.5t149.5 242.5t221.5 148t271.5 52q549 0 665 -506l-284 -41q-41 133 -133.5 208.5t-229.5 76.5q-206 3 -313 -133t-107 -373q0 -235 106.5 -369
t313.5 -137q147 -3 246.5 80.5t132.5 253.5h-233v215h530q4 -36 4 -86q0 -211 -85 -375.5t-244 -257t-369 -92.5z" />
    <glyph glyph-name="gdotaccent" unicode="&#x121;" horiz-adv-x="1277" 
d="M827 1597v-278h-278v278h278zM891 1106h244v-1182q0 -82 -17 -149q-26 -99 -99.5 -167t-175.5 -99t-227 -31q-139 0 -257.5 65t-182.5 174l258 125q26 -48 75 -74t109 -26q64 0 118 20t88 63.5t32 102.5v111q-112 -70 -264 -70q-150 0 -267 76.5t-180 209.5t-63 298
q0 256 144.5 420t379.5 164q168 0 285 -93v62zM637 217q254 0 254 336q0 158 -59.5 247t-184.5 89q-133 0 -201.5 -94.5t-68.5 -241.5q0 -148 65.5 -242t194.5 -94z" />
    <glyph glyph-name="uni0122" unicode="&#x122;" horiz-adv-x="1517" 
d="M758 -31q-113 0 -216 31.5t-190.5 95.5t-152.5 154.5t-101.5 215.5t-36.5 271q0 179 54.5 325.5t149.5 242.5t221.5 148t271.5 52q549 0 665 -506l-284 -41q-41 133 -133.5 208.5t-229.5 76.5q-206 3 -313 -133t-107 -373q0 -235 106.5 -369t313.5 -137
q147 -3 246.5 80.5t132.5 253.5h-233v215h530q4 -36 4 -86q0 -211 -85 -375.5t-244 -257t-369 -92.5zM668 -614v116q17 0 37 4t47 14t44 34.5t17 60.5h-145v262h262v-262q0 -101 -72.5 -165t-189.5 -64z" />
    <glyph glyph-name="uni0123" unicode="&#x123;" horiz-adv-x="1277" 
d="M793 1491v-262h-263v262q0 101 73 165t190 64v-116q-18 0 -38 -4t-46.5 -14t-44 -34.5t-17.5 -60.5h146zM891 1106h244v-1182q0 -82 -17 -149q-26 -99 -99.5 -167t-175.5 -99t-227 -31q-139 0 -257.5 65t-182.5 174l258 125q26 -48 75 -74t109 -26q64 0 118 20t88 63.5
t32 102.5v111q-112 -70 -264 -70q-150 0 -267 76.5t-180 209.5t-63 298q0 256 144.5 420t379.5 164q168 0 285 -93v62zM637 217q254 0 254 336q0 158 -59.5 247t-184.5 89q-133 0 -201.5 -94.5t-68.5 -241.5q0 -148 65.5 -242t194.5 -94z" />
    <glyph glyph-name="Hbar" unicode="&#x126;" horiz-adv-x="1544" 
d="M1524 1272v-260h-144v-1012h-278v608h-660v-608h-278v1012h-144v260h144v203h278v-203h660v203h278v-203h144zM1102 868v144h-660v-144h660z" />
    <glyph glyph-name="hbar" unicode="&#x127;" horiz-adv-x="1302" 
d="M748 1139q70 0 128.5 -15.5t100 -39t75 -60t54.5 -70.5t36 -79.5t22 -78t11 -73.5t4.5 -59t0.5 -43v-621h-283v522q0 32 -0.5 52t-5 61t-13 69.5t-26 63.5t-42 57t-63.5 37t-88 15q-33 0 -62 -6t-62 -26.5t-56.5 -53.5t-39 -92t-15.5 -138v-561h-283v1188h-104v213h104
v74h248v-74h205v-213h-205v-197q132 148 359 148z" />
    <glyph glyph-name="Imacron" unicode="&#x12a;" 
d="M25 1720v213h557v-213h-557zM164 0v1475h278v-1475h-278z" />
    <glyph glyph-name="imacron" unicode="&#x12b;" 
d="M25 1352v213h557v-213h-557zM164 0v1106h278v-1106h-278z" />
    <glyph glyph-name="Iogonek" unicode="&#x12e;" 
d="M442 0q-92 -46 -158.5 -117t-66.5 -119q0 -22 15 -36.5t38 -14.5q31 0 70 31l96 -127q-36 -50 -91 -78t-114 -28q-99 0 -163 68.5t-64 162.5q0 75 43 151.5t117 141.5v1440h278v-1475z" />
    <glyph glyph-name="iogonek" unicode="&#x12f;" 
d="M164 1505h278v-245h-278v245zM164 35v1071h278v-1106q-92 -46 -158.5 -117t-66.5 -119q0 -22 15 -36.5t38 -14.5q31 0 70 31l96 -127q-36 -50 -91 -78t-114 -28q-99 0 -163 68.5t-64 162.5q0 75 43 151.5t117 141.5z" />
    <glyph glyph-name="Idotaccent" unicode="&#x130;" 
d="M164 1688v278h278v-278h-278zM164 0v1475h278v-1475h-278z" />
    <glyph glyph-name="dotlessi" unicode="&#x131;" 
d="M164 0v1106h278v-1106h-278z" />
    <glyph glyph-name="uni0136" unicode="&#x136;" horiz-adv-x="1361" 
d="M143 0v1475h279v-680l561 680h340l-616 -727l655 -748h-352l-588 672v-672h-279zM600 -614v116q17 0 37 4t47 14t44 34.5t17 60.5h-145v262h262v-262q0 -101 -72.5 -165t-189.5 -64z" />
    <glyph glyph-name="uni0137" unicode="&#x137;" horiz-adv-x="1130" 
d="M141 0l2 1475h283v-902l375 533h344l-400 -553l426 -553h-362l-383 532v-532h-285zM500 -614v116q17 0 37 4t47 14t44 34.5t17 60.5h-145v262h262v-262q0 -101 -72.5 -165t-189.5 -64z" />
    <glyph glyph-name="Lacute" unicode="&#x139;" horiz-adv-x="1107" 
d="M233 1608l-69 200l577 199l68 -203zM164 0v1475h278v-1215h635v-260h-913z" />
    <glyph glyph-name="lacute" unicode="&#x13a;" 
d="M29 1608l-70 200l578 199l67 -203zM164 0v1505h278v-1505h-278z" />
    <glyph glyph-name="uni013B" unicode="&#x13b;" horiz-adv-x="1107" 
d="M164 0v1475h278v-1215h635v-260h-913zM489 -614v116q18 0 38 4t46.5 14t44 34.5t17.5 60.5h-146v262h263v-262q0 -101 -73 -165t-190 -64z" />
    <glyph glyph-name="uni013C" unicode="&#x13c;" 
d="M164 0v1505h278v-1505h-278zM172 -614v116q17 0 37 4t47 14t44 34.5t17 60.5h-145v262h262v-262q0 -101 -72.5 -165t-189.5 -64z" />
    <glyph glyph-name="Lcaron" unicode="&#x13d;" horiz-adv-x="1107" 
d="M164 0v1475h278v-1215h635v-260h-913zM672 920l16 116q71 -6 104.5 39t22.5 121h-143v279h278v-279q0 -152 -70 -225.5t-208 -50.5z" />
    <glyph glyph-name="lcaron" unicode="&#x13e;" horiz-adv-x="970" 
d="M164 0v1505h278v-1505h-278zM606 920l17 116q71 -6 104.5 39t22.5 121h-144v279h279v-279q0 -152 -70.5 -225.5t-208.5 -50.5z" />
    <glyph glyph-name="Lslash" unicode="&#x141;" horiz-adv-x="1148" 
d="M483 260h635v-260h-913v414l-148 -84v301l148 84v760h278v-601l312 179v-301l-312 -179v-313z" />
    <glyph glyph-name="lslash" unicode="&#x142;" horiz-adv-x="831" 
d="M784 1114v-301l-229 -131v-682h-279v522l-229 -131v301l229 131v682h279v-522z" />
    <glyph glyph-name="Nacute" unicode="&#x143;" horiz-adv-x="1492" 
d="M545 1608l-70 200l578 199l67 -203zM143 0v1475h283l641 -983v983h283v-1475h-283l-641 983v-983h-283z" />
    <glyph glyph-name="nacute" unicode="&#x144;" horiz-adv-x="1302" 
d="M975 1436l-576 -197l-69 201l577 198zM748 1139q70 0 128.5 -15.5t100 -39t75 -60t54.5 -70.5t36 -79.5t22 -78t11 -73.5t4.5 -59t0.5 -43v-621h-283v522q0 32 -0.5 52t-5 61t-13 69.5t-26 63.5t-42 57t-63.5 37t-88 15q-33 0 -62 -6t-62 -26.5t-56.5 -53.5t-39 -92
t-15.5 -138v-561h-283v1106h248v-115q132 148 359 148z" />
    <glyph glyph-name="uni0145" unicode="&#x145;" horiz-adv-x="1492" 
d="M143 0v1475h283l641 -983v983h283v-1475h-283l-641 983v-983h-283zM637 -614v116q17 0 37 4t47 14t44 34.5t17 60.5h-145v262h262v-262q0 -101 -72.5 -165t-189.5 -64z" />
    <glyph glyph-name="uni0146" unicode="&#x146;" horiz-adv-x="1302" 
d="M748 1139q70 0 128.5 -15.5t100 -39t75 -60t54.5 -70.5t36 -79.5t22 -78t11 -73.5t4.5 -59t0.5 -43v-621h-283v522q0 32 -0.5 52t-5 61t-13 69.5t-26 63.5t-42 57t-63.5 37t-88 15q-33 0 -62 -6t-62 -26.5t-56.5 -53.5t-39 -92t-15.5 -138v-561h-283v1106h248v-115
q132 148 359 148zM537 -385v262h262v-262q0 -101 -72.5 -165t-189.5 -64v116q17 0 37 4t47 14t44 34.5t17 60.5h-145z" />
    <glyph glyph-name="Ncaron" unicode="&#x147;" horiz-adv-x="1492" 
d="M768 1610l-369 192l99 191l270 -140l270 140l99 -191zM143 0v1475h283l641 -983v983h283v-1475h-283l-641 983v-983h-283z" />
    <glyph glyph-name="ncaron" unicode="&#x148;" horiz-adv-x="1302" 
d="M1020 1434l-369 -193l-368 193l98 190l270 -139l271 139zM748 1139q70 0 128.5 -15.5t100 -39t75 -60t54.5 -70.5t36 -79.5t22 -78t11 -73.5t4.5 -59t0.5 -43v-621h-283v522q0 32 -0.5 52t-5 61t-13 69.5t-26 63.5t-42 57t-63.5 37t-88 15q-33 0 -62 -6t-62 -26.5
t-56.5 -53.5t-39 -92t-15.5 -138v-561h-283v1106h248v-115q132 148 359 148z" />
    <glyph glyph-name="Eng" unicode="&#x14a;" horiz-adv-x="1492" 
d="M1067 1475h283v-1655q0 -309 -308 -309q-90 0 -163 20v205q77 -6 86 -6q155 0 155 108q0 44 -25 98t-96 168l-573 879v-983h-283v1475h283l641 -983v983z" />
    <glyph glyph-name="eng" unicode="&#x14b;" horiz-adv-x="1302" 
d="M748 1139q70 0 128.5 -15.5t100 -39t75 -60t54.5 -70.5t36 -79.5t22 -78t11 -73.5t4.5 -59t0.5 -43v-801q0 -121 -57 -200t-158 -99q-118 -24 -256 10v195q3 0 20.5 -1.5t24 -1.5h23.5t25.5 2t23.5 6.5t23 11.5t19 18t16 25.5t9 34.5t4 44v657q0 32 -0.5 52t-5 61
t-13 69.5t-26 63.5t-42 57t-63.5 37t-88 15q-33 0 -62 -6t-62 -26.5t-56.5 -53.5t-39 -92t-15.5 -138v-561h-283v1106h248v-115q132 148 359 148z" />
    <glyph glyph-name="Omacron" unicode="&#x14c;" horiz-adv-x="1552" 
d="M498 1720v213h557v-213h-557zM776 -31q-218 0 -380.5 96t-248.5 269.5t-86 402.5t86 402.5t248.5 269.5t380.5 96t380.5 -96t248.5 -269.5t86 -402.5t-86 -402.5t-248.5 -269.5t-380.5 -96zM776 231q206 -3 313 133t107 373q0 235 -106.5 369t-313.5 137
q-206 3 -313 -133t-107 -373q0 -235 106.5 -369t313.5 -137z" />
    <glyph glyph-name="omacron" unicode="&#x14d;" horiz-adv-x="1284" 
d="M365 1352v213h557v-213h-557zM641 -31q-249 0 -404 163t-155 421q0 259 156 421.5t403 162.5q165 0 293 -74.5t198 -207.5t70 -302q0 -258 -156 -421t-405 -163zM641 229q130 0 198 88t68 236q0 151 -68.5 237.5t-197.5 86.5q-132 0 -198 -86.5t-66 -237.5
q0 -152 68 -238t196 -86z" />
    <glyph glyph-name="Ohungarumlaut" unicode="&#x150;" horiz-adv-x="1552" 
d="M580 1620l-129 133l260 254l129 -131zM924 1620l-129 133l260 254l129 -131zM776 -31q-218 0 -380.5 96t-248.5 269.5t-86 402.5t86 402.5t248.5 269.5t380.5 96t380.5 -96t248.5 -269.5t86 -402.5t-86 -402.5t-248.5 -269.5t-380.5 -96zM776 231q206 -3 313 133t107 373
q0 235 -106.5 369t-313.5 137q-206 3 -313 -133t-107 -373q0 -235 106.5 -369t313.5 -137z" />
    <glyph glyph-name="ohungarumlaut" unicode="&#x151;" horiz-adv-x="1284" 
d="M477 1251l-129 133l260 254l129 -131zM821 1251l-129 133l260 254l129 -131zM641 -31q-249 0 -404 163t-155 421q0 259 156 421.5t403 162.5q165 0 293 -74.5t198 -207.5t70 -302q0 -258 -156 -421t-405 -163zM641 229q130 0 198 88t68 236q0 151 -68.5 237.5
t-197.5 86.5q-132 0 -198 -86.5t-66 -237.5q0 -152 68 -238t196 -86z" />
    <glyph glyph-name="OE" unicode="&#x152;" horiz-adv-x="2275" 
d="M2173 1214h-684v-315h561v-260h-561v-379h684v-260h-963v100q-179 -131 -434 -131q-218 0 -380.5 96t-248.5 269.5t-86 402.5t86 402.5t248.5 269.5t380.5 96q255 0 434 -131v101h963v-261zM776 231q206 -3 313 133t107 373q0 235 -106.5 369t-313.5 137
q-206 3 -313 -133t-107 -373q0 -235 106.5 -369t313.5 -137z" />
    <glyph glyph-name="oe" unicode="&#x153;" horiz-adv-x="2070" 
d="M1206 475q15 -120 81 -183t179 -63q166 0 230 140l278 -80q-62 -150 -195.5 -235t-295.5 -85q-131 0 -241 44.5t-187 127.5q-155 -172 -414 -172q-249 0 -404 163t-155 421q0 259 156 421.5t403 162.5q259 0 414 -172q155 172 411 172q261 0 402.5 -180.5t116.5 -481.5
h-779zM1479 895q-221 0 -265 -213h488q-15 112 -68.5 162.5t-154.5 50.5zM641 229q130 0 198 88t68 236q0 151 -68.5 237.5t-197.5 86.5q-132 0 -198 -86.5t-66 -237.5q0 -152 68 -238t196 -86z" />
    <glyph glyph-name="Racute" unicode="&#x154;" horiz-adv-x="1372" 
d="M1001 1804l-575 -196l-70 200l578 199zM1290 0h-315l-242 500h-311v-500h-279v1475h623q64 0 123 -9q191 -30 286 -157.5t95 -321.5q0 -155 -61.5 -269t-184.5 -171zM422 1214v-454h332q58 0 94 10q40 11 69 35t44 55.5t21.5 62.5t6.5 64t-6.5 64t-21.5 62.5t-44 55.5
t-69 35q-36 10 -94 10h-332z" />
    <glyph glyph-name="racute" unicode="&#x155;" horiz-adv-x="843" 
d="M788 1436l-575 -197l-70 201l578 198zM508 1053q119 73 285 53v-260q-45 14 -107 9t-111 -28q-151 -69 -151 -262v-565h-281v1106h246v-178q46 80 119 125z" />
    <glyph glyph-name="uni0156" unicode="&#x156;" horiz-adv-x="1372" 
d="M1024 547l266 -547h-315l-242 500h-311v-500h-279v1475h623q64 0 123 -9q191 -30 286 -157.5t95 -321.5q0 -155 -61.5 -269t-184.5 -171zM422 1214v-454h332q58 0 94 10q40 11 69 35t44 55.5t21.5 62.5t6.5 64t-6.5 64t-21.5 62.5t-44 55.5t-69 35q-36 10 -94 10h-332z
M555 -385v262h262v-262q0 -101 -72.5 -165t-189.5 -64v116q17 0 37 4t47 14t44 34.5t17 60.5h-145z" />
    <glyph glyph-name="uni0157" unicode="&#x157;" horiz-adv-x="843" 
d="M508 1053q119 73 285 53v-260q-45 14 -107 9t-111 -28q-151 -69 -151 -262v-565h-281v1106h246v-178q46 80 119 125zM154 -385v262h262v-262q0 -101 -72.5 -165t-189.5 -64v116q17 0 37 4t47 14t44 34.5t17 60.5h-145z" />
    <glyph glyph-name="Rcaron" unicode="&#x158;" horiz-adv-x="1372" 
d="M1010 1802l-369 -192l-369 192l99 191l270 -140l270 140zM1290 0h-315l-242 500h-311v-500h-279v1475h623q64 0 123 -9q191 -30 286 -157.5t95 -321.5q0 -155 -61.5 -269t-184.5 -171zM422 1214v-454h332q58 0 94 10q40 11 69 35t44 55.5t21.5 62.5t6.5 64t-6.5 64
t-21.5 62.5t-44 55.5t-69 35q-36 10 -94 10h-332z" />
    <glyph glyph-name="rcaron" unicode="&#x159;" horiz-adv-x="843" 
d="M838 1434l-369 -193l-369 193l99 190l270 -139l270 139zM508 1053q119 73 285 53v-260q-45 14 -107 9t-111 -28q-151 -69 -151 -262v-565h-281v1106h246v-178q46 80 119 125z" />
    <glyph glyph-name="Sacute" unicode="&#x15a;" horiz-adv-x="1374" 
d="M408 1608l-70 200l577 199l68 -203zM700 -31q-248 0 -416 129.5t-202 352.5l291 43q30 -125 125 -195t221 -70q111 0 195.5 51t84.5 138q0 49 -31.5 86t-111.5 61l-383 113q-32 9 -55.5 17t-60.5 24.5t-64 35t-58 49t-50.5 66t-32.5 85.5t-13 108q0 144 75.5 245.5
t198 148.5t277.5 46q230 -3 383 -114.5t207 -317.5l-301 -51q-24 103 -106 161.5t-187 61.5q-102 3 -178 -43.5t-76 -122.5q0 -34 16.5 -61t48 -45t61 -29t71.5 -22l256 -70q37 -10 61.5 -17.5t65.5 -22t69.5 -31t63.5 -39.5t59 -52.5t45.5 -65.5t32 -83t10.5 -101
q0 -92 -32.5 -170t-89 -132.5t-132 -92.5t-161 -56t-177.5 -18z" />
    <glyph glyph-name="sacute" unicode="&#x15b;" horiz-adv-x="1120" 
d="M322 1239l-70 201l577 198l68 -202zM575 -31q-209 0 -337 94.5t-156 268.5l285 43q17 -78 77 -122t152 -44q75 0 116.5 29t41.5 81q0 21 -5.5 34.5t-18.5 26t-46 25t-76 25.5t-121 33q-203 53 -285.5 125.5t-82.5 199.5q0 160 119.5 254.5t320.5 94.5q195 0 321 -88.5
t148 -239.5l-285 -51q-7 61 -53.5 97t-124.5 42q-77 5 -123.5 -21t-46.5 -73q0 -30 21.5 -48.5t80 -38t193.5 -54.5q189 -50 268.5 -124.5t79.5 -203.5q0 -170 -123 -267.5t-340 -97.5z" />
    <glyph glyph-name="Scedilla" unicode="&#x15e;" horiz-adv-x="1374" 
d="M1292 438q0 -100 -37 -182t-102.5 -138t-148.5 -91.5t-181 -49.5l-16 -51q125 -64 125 -194q0 -99 -65 -163.5t-156 -64.5q-76 0 -146 39l60 160q41 -12 61 -12q26 0 41.5 14t15.5 33q0 33 -33 51t-100 37l49 143q-233 12 -389 140.5t-188 341.5l291 43q30 -125 125 -195
t221 -70q111 0 195.5 51t84.5 138q0 49 -31.5 86t-111.5 61l-383 113q-32 9 -55.5 17t-60.5 24.5t-64 35t-58 49t-50.5 66t-32.5 85.5t-13 108q0 144 75.5 245.5t198 148.5t277.5 46q230 -3 383 -114.5t207 -317.5l-301 -51q-24 103 -106 161.5t-187 61.5q-102 3 -178 -43.5
t-76 -122.5q0 -34 16.5 -61t48 -45t61 -29t71.5 -22l256 -70q37 -10 61.5 -17.5t65.5 -22t69.5 -31t63.5 -39.5t59 -52.5t45.5 -65.5t32 -83t10.5 -101z" />
    <glyph glyph-name="scedilla" unicode="&#x15f;" horiz-adv-x="1120" 
d="M1038 334q0 -154 -100.5 -249t-280.5 -112l-16 -47q125 -64 125 -194q0 -99 -65 -163.5t-156 -64.5q-76 0 -146 39l60 160q41 -12 61 -12q26 0 42 14t16 33q0 33 -33 51t-101 37l52 147q-175 17 -282 110t-132 249l285 43q17 -78 77 -122t152 -44q75 0 116.5 29t41.5 81
q0 21 -5.5 34.5t-18.5 26t-46 25t-76 25.5t-121 33q-203 53 -285.5 125.5t-82.5 199.5q0 160 119.5 254.5t320.5 94.5q195 0 321 -88.5t148 -239.5l-285 -51q-7 61 -53.5 97t-124.5 42q-77 5 -123.5 -21t-46.5 -73q0 -30 21.5 -48.5t80 -38t193.5 -54.5
q189 -50 268.5 -124.5t79.5 -203.5z" />
    <glyph glyph-name="Scaron" unicode="&#x160;" horiz-adv-x="1374" 
d="M715 1610l-369 192l98 191l271 -140l270 140l98 -191zM700 -31q-248 0 -416 129.5t-202 352.5l291 43q30 -125 125 -195t221 -70q111 0 195.5 51t84.5 138q0 49 -31.5 86t-111.5 61l-383 113q-32 9 -55.5 17t-60.5 24.5t-64 35t-58 49t-50.5 66t-32.5 85.5t-13 108
q0 144 75.5 245.5t198 148.5t277.5 46q230 -3 383 -114.5t207 -317.5l-301 -51q-24 103 -106 161.5t-187 61.5q-102 3 -178 -43.5t-76 -122.5q0 -34 16.5 -61t48 -45t61 -29t71.5 -22l256 -70q37 -10 61.5 -17.5t65.5 -22t69.5 -31t63.5 -39.5t59 -52.5t45.5 -65.5t32 -83
t10.5 -101q0 -92 -32.5 -170t-89 -132.5t-132 -92.5t-161 -56t-177.5 -18z" />
    <glyph glyph-name="scaron" unicode="&#x161;" horiz-adv-x="1120" 
d="M575 1241l-368 193l98 190l270 -139l271 139l98 -190zM575 -31q-209 0 -337 94.5t-156 268.5l285 43q17 -78 77 -122t152 -44q75 0 116.5 29t41.5 81q0 21 -5.5 34.5t-18.5 26t-46 25t-76 25.5t-121 33q-203 53 -285.5 125.5t-82.5 199.5q0 160 119.5 254.5t320.5 94.5
q195 0 321 -88.5t148 -239.5l-285 -51q-7 61 -53.5 97t-124.5 42q-77 5 -123.5 -21t-46.5 -73q0 -30 21.5 -48.5t80 -38t193.5 -54.5q189 -50 268.5 -124.5t79.5 -203.5q0 -170 -123 -267.5t-340 -97.5z" />
    <glyph glyph-name="uni0162" unicode="&#x162;" horiz-adv-x="1249" 
d="M764 0h-64l-24 -74q125 -64 125 -194q0 -99 -65 -163.5t-156 -64.5q-76 0 -146 39l60 160q40 -12 61 -12q26 0 41.5 14t15.5 33q0 33 -33 51t-100 37l60 174h-54v1214h-465v261h1209v-261h-465v-1214z" />
    <glyph glyph-name="uni0163" unicode="&#x163;" horiz-adv-x="909" 
d="M487 891v-406v-35v-35.5t0.5 -30t2 -30.5t4 -24t6.5 -24t10 -19q23 -37 71.5 -52.5t99.5 -14.5t126 11v-231q-120 -20 -209 -20l-18 -54q125 -64 125 -194q0 -99 -65.5 -163.5t-156.5 -64.5q-75 0 -145 39l59 160q41 -12 62 -12q26 0 41.5 14t15.5 33q0 33 -33 51
t-100 37l59 174q-134 38 -188 137q-13 24 -22 51.5t-14 47.5t-7 56t-2.5 52.5t0 62.5t0.5 62v422h-189v215h189v307h278v-307h320v-215h-320z" />
    <glyph glyph-name="Tcaron" unicode="&#x164;" horiz-adv-x="1249" 
d="M625 1610l-369 192l98 191l271 -140l270 140l98 -191zM485 0v1214h-465v261h1209v-261h-465v-1214h-279z" />
    <glyph glyph-name="tcaron" unicode="&#x165;" horiz-adv-x="909" 
d="M717 1784h278v-279q0 -152 -70 -225.5t-208 -50.5l16 117q72 -6 105 38.5t22 120.5h-143v279zM487 1413v-307h320v-215h-320v-406v-35v-35.5t0.5 -30t2 -30.5t4 -24t6.5 -24t10 -19q23 -37 71.5 -52.5t99.5 -14.5t126 11v-231q-90 -17 -171.5 -19.5t-156.5 11t-133.5 50
t-91.5 95.5q-13 24 -22 51.5t-14 47.5t-7 56t-2.5 52.5t0 62.5t0.5 62v422h-189v215h189v307h278z" />
    <glyph glyph-name="Tbar" unicode="&#x166;" horiz-adv-x="1249" 
d="M1229 1214h-465v-337h352v-279h-352v-598h-279v598h-352v279h352v337h-465v261h1209v-261z" />
    <glyph glyph-name="tbar" unicode="&#x167;" horiz-adv-x="950" 
d="M848 467h-361v-16q0 -46 0.5 -68.5t6 -50.5t16.5 -45q23 -37 71.5 -52.5t99.5 -14.5t126 11v-231q-90 -17 -171.5 -19.5t-156.5 11t-133.5 50t-91.5 95.5q-13 24 -22 51.5t-14 47.5t-7 56t-2.5 52t0 61.5t0.5 61.5h-189v215h189v209h-189v215h189v307h278v-307h320v-215
h-320v-209h361v-215z" />
    <glyph glyph-name="Umacron" unicode="&#x16a;" horiz-adv-x="1486" 
d="M465 1720v213h557v-213h-557zM743 -31q-268 0 -434 160t-166 424v920l283 2v-920q0 -144 91 -234t226 -90q136 0 227 91.5t91 232.5v920h282v-922q0 -264 -166 -424t-434 -160z" />
    <glyph glyph-name="umacron" unicode="&#x16b;" horiz-adv-x="1302" 
d="M920 1565v-213h-558v213h558zM879 1106h280v-1106h-246v115q-132 -148 -358 -148q-70 0 -128.5 15.5t-100 39t-75 60t-54.5 70.5t-36 79.5t-22 78t-11 73.5t-4.5 59t-0.5 43v621h283v-522q0 -32 0.5 -52t5 -61.5t12.5 -69t25.5 -63t42 -57t63.5 -37t88 -15.5q33 0 62 6
t62 26.5t57 53.5t39.5 92t15.5 138v561z" />
    <glyph glyph-name="Uring" unicode="&#x16e;" horiz-adv-x="1486" 
d="M752 1434q-131 0 -224.5 93.5t-93.5 223.5t93.5 223.5t224.5 93.5q130 0 223.5 -93t93.5 -224t-93.5 -224t-223.5 -93zM752 1628q51 0 86.5 36t35.5 87t-35.5 87t-86.5 36t-87 -36t-36 -87t36 -87t87 -36zM743 -31q-268 0 -434 160t-166 424v920l283 2v-920
q0 -144 91 -234t226 -90q136 0 227 91.5t91 232.5v920h282v-922q0 -264 -166 -424t-434 -160z" />
    <glyph glyph-name="uring" unicode="&#x16f;" horiz-adv-x="1302" 
d="M641 1141q-131 0 -224 93.5t-93 223.5q0 131 93.5 224.5t223.5 93.5t223.5 -93.5t93.5 -224.5q0 -130 -93 -223.5t-224 -93.5zM641 1581q-51 0 -87 -36t-36 -87t36 -87t87 -36t87 36t36 87t-36 87t-87 36zM879 1106h280v-1106h-246v115q-132 -148 -358 -148
q-70 0 -128.5 15.5t-100 39t-75 60t-54.5 70.5t-36 79.5t-22 78t-11 73.5t-4.5 59t-0.5 43v621h283v-522q0 -32 0.5 -52t5 -61.5t12.5 -69t25.5 -63t42 -57t63.5 -37t88 -15.5q33 0 62 6t62 26.5t57 53.5t39.5 92t15.5 138v561z" />
    <glyph glyph-name="Uhungarumlaut" unicode="&#x170;" horiz-adv-x="1486" 
d="M578 1620l-129 133l260 254l129 -131zM922 1620l-129 133l260 254l129 -131zM743 -31q-268 0 -434 160t-166 424v920l283 2v-920q0 -144 91 -234t226 -90q136 0 227 91.5t91 232.5v920h282v-922q0 -264 -166 -424t-434 -160z" />
    <glyph glyph-name="uhungarumlaut" unicode="&#x171;" horiz-adv-x="1302" 
d="M725 1507l-260 -256l-129 133l260 254zM809 1251l-129 133l260 254l129 -131zM879 1106h280v-1106h-246v115q-132 -148 -358 -148q-70 0 -128.5 15.5t-100 39t-75 60t-54.5 70.5t-36 79.5t-22 78t-11 73.5t-4.5 59t-0.5 43v621h283v-522q0 -32 0.5 -52t5 -61.5t12.5 -69
t25.5 -63t42 -57t63.5 -37t88 -15.5q33 0 62 6t62 26.5t57 53.5t39.5 92t15.5 138v561z" />
    <glyph glyph-name="Uogonek" unicode="&#x172;" horiz-adv-x="1486" 
d="M1061 1475h282v-922q0 -183 -81.5 -318.5t-227.5 -203.5q-72 -47 -120 -105t-48 -98q0 -22 15.5 -36.5t38.5 -14.5q32 0 69 30l96 -126q-36 -51 -90.5 -79t-113.5 -28q-99 0 -163.5 68.5t-64.5 162.5q0 80 52 164q-254 14 -408 172.5t-154 411.5v920l283 2v-920
q0 -144 91 -234t226 -90q136 0 227 91.5t91 232.5v920z" />
    <glyph glyph-name="uogonek" unicode="&#x173;" horiz-adv-x="1302" 
d="M1159 0q-92 -46 -158.5 -117t-66.5 -119q0 -22 15 -36.5t38 -14.5q31 0 70 31l96 -127q-36 -50 -91 -78t-114 -28q-99 0 -163 68.5t-64 162.5q0 83 52 168t140 151v54q-132 -148 -358 -148q-70 0 -128.5 15.5t-100 39t-75 60t-54.5 70.5t-36 79.5t-22 78t-11 73.5
t-4.5 59t-0.5 43v621h283v-522q0 -32 0.5 -52t5 -61.5t12.5 -69t25.5 -63t42 -57t63.5 -37t88 -15.5q33 0 62 6t62 26.5t57 53.5t39.5 92t15.5 138v561h280v-1106z" />
    <glyph glyph-name="Wcircumflex" unicode="&#x174;" horiz-adv-x="2025" 
d="M743 1610l-98 190l369 193l368 -193l-98 -190l-270 139zM453 0l-433 1475h293l277 -1014l274 1012l293 2l277 -1014l278 1014h293l-432 -1475h-275l-286 995l-285 -995h-274z" />
    <glyph glyph-name="wcircumflex" unicode="&#x175;" horiz-adv-x="1667" 
d="M563 1241l-98 191l369 192l368 -192l-98 -191l-270 139zM379 0l-338 1108l274 -2l201 -660l203 660h231l203 -660l201 660h272l-338 -1106h-231l-223 721l-242 -721h-213z" />
    <glyph glyph-name="Ycircumflex" unicode="&#x176;" horiz-adv-x="1290" 
d="M375 1610l-99 190l369 193l369 -193l-99 -190l-270 139zM504 0v600l-504 875h326l319 -555l320 555h325l-504 -875v-600h-282z" />
    <glyph glyph-name="ycircumflex" unicode="&#x177;" horiz-adv-x="1167" 
d="M600 1380l-270 -139l-99 191l369 192l369 -192l-99 -191zM889 1106h278l-624 -1598h-258l182 500l-447 1098h289l291 -752z" />
    <glyph glyph-name="Ydieresis" unicode="&#x178;" horiz-adv-x="1290" 
d="M305 1720v246h246v-246h-246zM739 1720v246h246v-246h-246zM504 0v600l-504 875h326l319 -555l320 555h325l-504 -875v-600h-282z" />
    <glyph glyph-name="Zacute" unicode="&#x179;" horiz-adv-x="1392" 
d="M475 1608l-69 200l577 199l68 -203zM102 0v35l701 1179h-639v261h1126v-35l-696 -1178h676v-262h-1168z" />
    <glyph glyph-name="zacute" unicode="&#x17a;" horiz-adv-x="1095" 
d="M338 1239l-70 201l578 198l67 -202zM41 0v35l543 829h-482v242h912v-35l-541 -829h520v-242h-952z" />
    <glyph glyph-name="Zdotaccent" unicode="&#x17b;" horiz-adv-x="1392" 
d="M588 1688v278h278v-278h-278zM102 0v35l701 1179h-639v261h1126v-35l-696 -1178h676v-262h-1168z" />
    <glyph glyph-name="zdotaccent" unicode="&#x17c;" horiz-adv-x="1095" 
d="M434 1319v278h279v-278h-279zM41 0v35l543 829h-482v242h912v-35l-541 -829h520v-242h-952z" />
    <glyph glyph-name="Zcaron" unicode="&#x17d;" horiz-adv-x="1392" 
d="M707 1610l-369 192l98 191l271 -140l270 140l98 -191zM102 0v35l701 1179h-639v261h1126v-35l-696 -1178h676v-262h-1168z" />
    <glyph glyph-name="zcaron" unicode="&#x17e;" horiz-adv-x="1095" 
d="M567 1241l-368 193l98 190l270 -139l271 139l98 -190zM41 0v35l543 829h-482v242h912v-35l-541 -829h520v-242h-952z" />
    <glyph glyph-name="florin" unicode="&#x192;" horiz-adv-x="1445" 
d="M1073 1505q151 0 291 -65l-127 -230q-3 3 -20.5 10.5t-49.5 15t-63 7.5q-73 0 -128.5 -38t-66.5 -107l-41 -252h349v-215h-386l-34 -213q-35 -210 -145 -329.5t-290 -119.5q-135 0 -280 64l117 233q65 -35 139 -35q143 0 176 226l29 174h-275v215h307l31 186q5 29 9 50.5
t13.5 60.5t21 69.5t32 69.5t44 68.5t58.5 60t76 50t95.5 32t117.5 12.5z" />
    <glyph glyph-name="uni0218" unicode="&#x218;" horiz-adv-x="1374" 
d="M700 -31q-248 0 -416 129.5t-202 352.5l291 43q30 -125 125 -195t221 -70q111 0 195.5 51t84.5 138q0 49 -31.5 86t-111.5 61l-383 113q-32 9 -55.5 17t-60.5 24.5t-64 35t-58 49t-50.5 66t-32.5 85.5t-13 108q0 144 75.5 245.5t198 148.5t277.5 46q230 -3 383 -114.5
t207 -317.5l-301 -51q-24 103 -106 161.5t-187 61.5q-102 3 -178 -43.5t-76 -122.5q0 -34 16.5 -61t48 -45t61 -29t71.5 -22l256 -70q37 -10 61.5 -17.5t65.5 -22t69.5 -31t63.5 -39.5t59 -52.5t45.5 -65.5t32 -83t10.5 -101q0 -92 -32.5 -170t-89 -132.5t-132 -92.5
t-161 -56t-177.5 -18zM600 -614v116q17 0 37 4t47 14t44 34.5t17 60.5h-145v262h262v-262q0 -101 -72.5 -165t-189.5 -64z" />
    <glyph glyph-name="uni0219" unicode="&#x219;" horiz-adv-x="1120" 
d="M575 -31q-209 0 -337 94.5t-156 268.5l285 43q17 -78 77 -122t152 -44q75 0 116.5 29t41.5 81q0 21 -5.5 34.5t-18.5 26t-46 25t-76 25.5t-121 33q-203 53 -285.5 125.5t-82.5 199.5q0 160 119.5 254.5t320.5 94.5q195 0 321 -88.5t148 -239.5l-285 -51q-7 61 -53.5 97
t-124.5 42q-77 5 -123.5 -21t-46.5 -73q0 -30 21.5 -48.5t80 -38t193.5 -54.5q189 -50 268.5 -124.5t79.5 -203.5q0 -170 -123 -267.5t-340 -97.5zM444 -614v116q18 0 38 4t46.5 14t44 34.5t17.5 60.5h-146v262h263v-262q0 -101 -73 -165t-190 -64z" />
    <glyph glyph-name="uni021A" unicode="&#x21a;" horiz-adv-x="1249" 
d="M485 0v1214h-465v261h1209v-261h-465v-1214h-279zM494 -614v116q17 0 37 4t47 14t44 34.5t17 60.5h-145v262h262v-262q0 -101 -72.5 -165t-189.5 -64z" />
    <glyph glyph-name="uni021B" unicode="&#x21b;" horiz-adv-x="909" 
d="M487 891v-406v-35v-35.5t0.5 -30t2 -30.5t4 -24t6.5 -24t10 -19q23 -37 71.5 -52.5t99.5 -14.5t126 11v-231q-90 -17 -171.5 -19.5t-156.5 11t-133.5 50t-91.5 95.5q-13 24 -22 51.5t-14 47.5t-7 56t-2.5 52.5t0 62.5t0.5 62v422h-189v215h189v307h278v-307h320v-215
h-320zM381 -385v262h262v-262q0 -101 -72.5 -165t-189.5 -64v116q17 0 37 4t47 14t44 34.5t17 60.5h-145z" />
    <glyph glyph-name="circumflex" unicode="&#x2c6;" horiz-adv-x="1228" 
d="M344 1610l-98 190l368 193l369 -193l-98 -190l-271 139z" />
    <glyph glyph-name="caron" unicode="&#x2c7;" horiz-adv-x="1228" 
d="M614 1610l-368 192l98 191l270 -140l271 140l98 -191z" />
    <glyph glyph-name="breve" unicode="&#x2d8;" horiz-adv-x="1142" 
d="M571 1597q-135 0 -230 95.5t-95 230.5h215q0 -46 32 -78.5t78 -32.5t78.5 32.5t32.5 78.5h215q0 -135 -95.5 -230.5t-230.5 -95.5z" />
    <glyph glyph-name="dotaccent" unicode="&#x2d9;" horiz-adv-x="770" 
d="M246 1688v278h278v-278h-278z" />
    <glyph glyph-name="ring" unicode="&#x2da;" horiz-adv-x="1167" 
d="M584 1280q-131 0 -224.5 93.5t-93.5 223.5q0 131 94 224.5t224 93.5t223.5 -93.5t93.5 -224.5t-93.5 -224t-223.5 -93zM584 1475q51 0 87 35.5t36 86.5t-36 87t-87 36t-87 -36t-36 -87t36 -86.5t87 -35.5z" />
    <glyph glyph-name="ogonek" unicode="&#x2db;" horiz-adv-x="923" 
d="M471 -489q-99 0 -163 68.5t-64 162.5q0 113 91.5 223.5t229.5 169.5l117 -135q-92 -46 -158.5 -117t-66.5 -119q0 -22 15 -36.5t38 -14.5q31 0 70 31l96 -127q-36 -50 -91 -78t-114 -28z" />
    <glyph glyph-name="tilde" unicode="&#x2dc;" horiz-adv-x="1208" 
d="M768 1634q-43 0 -83.5 19t-71 46t-57.5 53.5t-53 45.5t-48 19q-33 0 -44.5 -37t3.5 -115h-162q-24 138 31 229t155 91q43 0 84.5 -19t73 -45.5t59 -53.5t53.5 -46t46 -19q32 0 43.5 42t-2.5 110h161q25 -133 -30 -226.5t-158 -93.5z" />
    <glyph glyph-name="hungarumlaut" unicode="&#x2dd;" horiz-adv-x="1224" 
d="M375 1620l-129 133l260 254l129 -131zM719 1620l-129 133l260 254l129 -131z" />
    <glyph glyph-name="uni0374" unicode="&#x374;" horiz-adv-x="638" 
d="M123 1321l78 246h274l-78 -246h-274z" />
    <glyph glyph-name="uni0375" unicode="&#x375;" horiz-adv-x="638" 
d="M123 -258l78 246h274l-78 -246h-274z" />
    <glyph glyph-name="uni037E" unicode="&#x37e;" horiz-adv-x="729" 
d="M225 827v279h279v-279h-279zM225 -276l17 116q71 -6 104.5 39t22.5 121h-144v279h279v-279q0 -152 -70.5 -225.5t-208.5 -50.5z" />
    <glyph glyph-name="Alphatonos" unicode="&#x386;" horiz-adv-x="1398" 
d="M1071 0l-94 307h-555l-94 -307h-287l451 1475h415l451 -1475h-287zM41 1229l78 246h274l-78 -246h-274zM500 567h397l-201 647z" />
    <glyph glyph-name="anoteleia" unicode="&#x387;" horiz-adv-x="1228" 
d="M659 481q-71 0 -119 47t-48 117t48 117t119 47q65 0 112.5 -47.5t47.5 -116.5t-47.5 -116.5t-112.5 -47.5z" />
    <glyph glyph-name="Epsilontonos" unicode="&#x388;" horiz-adv-x="1564" 
d="M57 1229l78 246h275l-78 -246h-275zM500 0v1475h962v-261h-684v-315h561v-260h-561v-379h684v-260h-962z" />
    <glyph glyph-name="Etatonos" unicode="&#x389;" horiz-adv-x="1830" 
d="M57 1229l78 246h275l-78 -246h-275zM471 0v1475h279v-607h659v607h279v-1475h-279v608h-659v-608h-279z" />
    <glyph glyph-name="Iotatonos" unicode="&#x38a;" 
d="M-37 1720v246h246v-246h-246zM397 1720v246h246v-246h-246zM164 0v1475h278v-1475h-278z" />
    <glyph glyph-name="Omicrontonos" unicode="&#x38c;" horiz-adv-x="1785" 
d="M1010 -31q-218 0 -380.5 96t-248.5 269.5t-86 402.5t86 402.5t248.5 269.5t380.5 96t380.5 -96t248 -269.5t85.5 -402.5t-85.5 -402.5t-248 -269.5t-380.5 -96zM57 1229l78 246h275l-78 -246h-275zM1010 231q206 -3 313 133t107 373q0 235 -106.5 369t-313.5 137
q-206 3 -313 -133t-107 -373q0 -235 106.5 -369t313.5 -137z" />
    <glyph glyph-name="Upsilontonos" unicode="&#x38e;" horiz-adv-x="1769" 
d="M57 1229l78 246h275l-78 -246h-275zM983 0v600l-504 875h326l319 -555l320 555h325l-503 -875v-600h-283z" />
    <glyph glyph-name="Omegatonos" unicode="&#x38f;" horiz-adv-x="1818" 
d="M348 0v260h191q-101 93 -156 228.5t-55 293.5q0 152 52 285t144 229.5t226.5 152.5t291.5 56q210 0 374 -95.5t252.5 -260t88.5 -367.5q0 -158 -55 -293.5t-156 -228.5h191v-260h-525v260q103 52 176.5 181t73.5 302q0 140 -50 253t-146.5 180t-223.5 67
q-95 0 -174.5 -39t-132.5 -106.5t-82.5 -158.5t-29.5 -194q0 -178 76.5 -304.5t181.5 -180.5v-260h-533zM57 1229l78 246h275l-78 -246h-275z" />
    <glyph glyph-name="iotadieresistonos" unicode="&#x390;" horiz-adv-x="1067" 
d="M84 1260v245h215v-245h-215zM360 1260l78 245h275l-78 -245h-275zM774 1260v245h215v-245h-215zM641 -8q-71 13 -126.5 42.5t-98.5 96.5q-15 23 -25 49.5t-15 46t-7.5 54.5t-2.5 53.5t0.5 66t0.5 68.5v637h278v-621v-36v-36t0.5 -29.5t2 -30t4 -23.5t6.5 -24t10 -19
q35 -57 116 -64q78 -6 181 8v-231q-60 -18 -163.5 -19t-160.5 11z" />
    <glyph glyph-name="Alpha" unicode="&#x391;" horiz-adv-x="1398" 
d="M1071 0l-94 307h-555l-94 -307h-287l451 1475h415l451 -1475h-287zM500 567h397l-201 647z" />
    <glyph glyph-name="Beta" unicode="&#x392;" horiz-adv-x="1304" 
d="M1036 776q100 -41 153.5 -130.5t53.5 -199.5q0 -205 -113.5 -325.5t-332.5 -120.5h-654v1475h590q113 0 201 -36.5t139 -97.5t77 -132.5t26 -147.5q0 -99 -36.5 -172.5t-103.5 -112.5zM426 1214v-315h303q74 0 119 39t45 117q0 70 -43.5 114.5t-120.5 44.5h-303zM768 262
q86 0 140.5 53.5t54.5 141.5q0 81 -50.5 131.5t-144.5 50.5h-342v-377h342z" />
    <glyph glyph-name="Gamma" unicode="&#x393;" horiz-adv-x="1126" 
d="M143 0v1475h963v-261h-684v-1214h-279z" />
    <glyph glyph-name="uni0394" unicode="&#x394;" horiz-adv-x="1398" 
d="M907 1475l451 -1475h-1317l451 1475h415zM408 260h583l-295 952z" />
    <glyph glyph-name="Epsilon" unicode="&#x395;" horiz-adv-x="1208" 
d="M143 0v1475h963v-261h-684v-315h561v-260h-561v-379h684v-260h-963z" />
    <glyph glyph-name="Zeta" unicode="&#x396;" horiz-adv-x="1392" 
d="M102 0v35l701 1179h-639v261h1126v-35l-696 -1178h676v-262h-1168z" />
    <glyph glyph-name="Eta" unicode="&#x397;" horiz-adv-x="1503" 
d="M143 0v1475h279v-607h659v607h279v-1475h-279v608h-659v-608h-279z" />
    <glyph glyph-name="Theta" unicode="&#x398;" horiz-adv-x="1552" 
d="M776 -31q-218 0 -380.5 96t-248.5 269.5t-86 402.5t86 402.5t248.5 269.5t380.5 96t380.5 -96t248.5 -269.5t86 -402.5t-86 -402.5t-248.5 -269.5t-380.5 -96zM776 231q206 -3 313 133t107 373q0 235 -106.5 369t-313.5 137q-206 3 -313 -133t-107 -373
q0 -235 106.5 -369t313.5 -137zM498 631v213h557v-213h-557z" />
    <glyph glyph-name="Iota" unicode="&#x399;" 
d="M164 0v1475h278v-1475h-278z" />
    <glyph glyph-name="Kappa" unicode="&#x39a;" horiz-adv-x="1361" 
d="M143 0v1475h279v-680l561 680h340l-616 -727l655 -748h-352l-588 672v-672h-279z" />
    <glyph glyph-name="Lambda" unicode="&#x39b;" horiz-adv-x="1337" 
d="M461 1475h416l450 -1475h-287l-374 1212l-369 -1212h-287z" />
    <glyph glyph-name="Mu" unicode="&#x39c;" horiz-adv-x="1761" 
d="M143 0v1475h250l488 -979l487 979h250v-1475h-260v881l-428 -881h-99l-428 881v-881h-260z" />
    <glyph glyph-name="Nu" unicode="&#x39d;" horiz-adv-x="1492" 
d="M143 0v1475h283l641 -983v983h283v-1475h-283l-641 983v-983h-283z" />
    <glyph glyph-name="Xi" unicode="&#x39e;" horiz-adv-x="1503" 
d="M143 1214v261h1217v-261h-1217zM246 608v260h1011v-260h-1011zM143 0v260h1217v-260h-1217z" />
    <glyph glyph-name="Omicron" unicode="&#x39f;" horiz-adv-x="1552" 
d="M776 -31q-218 0 -380.5 96t-248.5 269.5t-86 402.5t86 402.5t248.5 269.5t380.5 96t380.5 -96t248.5 -269.5t86 -402.5t-86 -402.5t-248.5 -269.5t-380.5 -96zM776 231q206 -3 313 133t107 373q0 235 -106.5 369t-313.5 137q-206 3 -313 -133t-107 -373
q0 -235 106.5 -369t313.5 -137z" />
    <glyph glyph-name="Pi" unicode="&#x3a0;" horiz-adv-x="1503" 
d="M143 0v1475h1217v-1475h-279v1214h-659v-1214h-279z" />
    <glyph glyph-name="Rho" unicode="&#x3a1;" horiz-adv-x="1331" 
d="M143 0v1475h623q64 0 123 -9q191 -30 286 -157.5t95 -321.5t-95.5 -321.5t-285.5 -157.5q-52 -8 -123 -8h-344v-500h-279zM422 760h332q58 0 94 10q40 11 69 35t44 55.5t21.5 62.5t6.5 64t-6.5 64t-21.5 62.5t-44 55.5t-69 35q-36 10 -94 10h-332v-454z" />
    <glyph glyph-name="Sigma" unicode="&#x3a3;" horiz-adv-x="1290" 
d="M143 0v250l480 487l-480 488v250h1004v-261h-660l451 -458v-37l-451 -459h660v-260h-1004z" />
    <glyph glyph-name="Tau" unicode="&#x3a4;" horiz-adv-x="1249" 
d="M485 0v1214h-465v261h1209v-261h-465v-1214h-279z" />
    <glyph glyph-name="Upsilon" unicode="&#x3a5;" horiz-adv-x="1290" 
d="M504 0v600l-504 875h326l319 -555l320 555h325l-504 -875v-600h-282z" />
    <glyph glyph-name="Phi" unicode="&#x3a6;" horiz-adv-x="1531" 
d="M627 0v215q-114 -19 -216.5 9.5t-180 98.5t-123.5 187.5t-46 267.5t46 269.5t123.5 191.5t180 102t216.5 11v123h276v-123q114 19 216.5 -11t180.5 -102t124 -191.5t46 -269.5t-46 -267.5t-124 -187.5t-180.5 -98.5t-216.5 -9.5v-215h-276zM627 469v633q-67 11 -118.5 -4
t-82 -46.5t-49.5 -78.5t-26 -94t-7 -101t7 -99.5t26 -90.5t49.5 -74t82 -42.5t118.5 -2.5zM903 469q67 -11 118.5 2.5t82 42.5t50.5 73t27 88.5t7 94.5q0 51 -7 98t-27 95.5t-50.5 82t-82.5 50.5t-118 6v-633z" />
    <glyph glyph-name="Chi" unicode="&#x3a7;" horiz-adv-x="1376" 
d="M20 0l496 745l-481 730h342l313 -492l309 492h344l-481 -730l494 -745h-342l-324 508l-325 -508h-345z" />
    <glyph glyph-name="Psi" unicode="&#x3a8;" horiz-adv-x="1568" 
d="M645 0v309q-417 18 -487 353q-15 70 -15 147v666h260v-639q0 -58 13 -109q24 -92 81 -125t148 -35v908h279v-908q94 3 154 43t79 133q8 41 8 93v639h260v-666q0 -77 -14 -143q-75 -335 -487 -357v-309h-279z" />
    <glyph glyph-name="uni03A9" unicode="&#x3a9;" horiz-adv-x="1552" 
d="M82 0v260h190q-101 93 -156 228.5t-55 293.5q0 203 88.5 367.5t252.5 260t374 95.5t374 -95.5t252.5 -260t88.5 -367.5q0 -158 -55 -293.5t-156 -228.5h190v-260h-524v260q103 52 176.5 181t73.5 302q0 140 -50 253t-146.5 180t-223.5 67q-190 0 -305 -142.5t-115 -355.5
q0 -178 76.5 -304.5t181.5 -180.5v-260h-532z" />
    <glyph glyph-name="Iotadieresis" unicode="&#x3aa;" 
d="M-37 1720v246h246v-246h-246zM397 1720v246h246v-246h-246zM164 0v1475h278v-1475h-278z" />
    <glyph glyph-name="Upsilondieresis" unicode="&#x3ab;" horiz-adv-x="1290" 
d="M305 1720v246h246v-246h-246zM739 1720v246h246v-246h-246zM504 0v600l-504 875h326l319 -555l320 555h325l-504 -875v-600h-282z" />
    <glyph glyph-name="alphatonos" unicode="&#x3ac;" horiz-adv-x="1269" 
d="M872 1505l-77 -245h-275l78 245h274zM911 1106h246v-1106h-246v80q-127 -111 -313 -111q-153 0 -271.5 76.5t-181.5 209t-63 298.5q0 256 144.5 420t379.5 164q184 0 305 -109v78zM643 217q128 0 188 88.5t60 247.5q0 158 -59.5 247t-184.5 89q-126 0 -198 -90t-72 -248
q0 -70 15.5 -129t46.5 -105.5t83.5 -73t120.5 -26.5z" />
    <glyph glyph-name="epsilontonos" unicode="&#x3ad;" horiz-adv-x="1075" 
d="M762 1505l-78 -245h-274l77 245h275zM815 356l219 -147q-75 -112 -206.5 -176t-286.5 -64q-93 0 -175.5 23.5t-146 68t-100.5 114.5t-37 157q0 159 115 250q-78 102 -78 221q0 81 34.5 146t92.5 105t131.5 61.5t154.5 21.5q242 0 451 -174l-154 -191q-154 107 -284 107
q-61 0 -100 -25t-39 -78q0 -27 11 -45.5t27.5 -28.5t46 -15.5t55 -7t66.5 -1.5h66v-217h-66q-11 0 -38.5 0.5t-39.5 0l-36 -1.5t-36 -3.5t-30 -7t-27.5 -12t-19.5 -18t-14 -25.5t-4 -34q0 -60 46.5 -95.5t129.5 -35.5q148 0 272 127z" />
    <glyph glyph-name="etatonos" unicode="&#x3ae;" horiz-adv-x="1302" 
d="M541 1260l77 245h275l-78 -245h-274zM748 1139q70 0 128.5 -15.5t100 -39t75 -60t54.5 -70.5t36 -79.5t22 -78t11 -73.5t4.5 -59t0.5 -43v-621h-283v522q0 32 -0.5 52t-5 61t-13 69.5t-26 63.5t-42 57t-63.5 37t-88 15q-33 0 -62 -6t-62 -26.5t-56.5 -53.5t-39 -92
t-15.5 -138v-561h-283v1106h248v-115q132 148 359 148z" />
    <glyph glyph-name="iotatonos" unicode="&#x3af;" horiz-adv-x="864" 
d="M166 1260l78 245h274l-78 -245h-274zM438 -8q-71 13 -126.5 42.5t-98.5 96.5q-15 23 -25 49.5t-15 46t-7.5 54.5t-2.5 53.5t0.5 66t0.5 68.5v637h278v-621v-36v-36t0.5 -29.5t2 -30t4 -23.5t6.5 -24t10 -19q35 -56 117 -64q78 -6 180 8v-231q-60 -18 -163.5 -19
t-160.5 11z" />
    <glyph glyph-name="upsilondieresistonos" unicode="&#x3b0;" horiz-adv-x="1286" 
d="M190 1260v245h216v-245h-216zM467 1260l78 245h274l-78 -245h-274zM881 1260v245h215v-245h-215zM123 506v600h283v-522q0 -32 0.5 -52t5 -61.5t12.5 -69t25.5 -63t42 -57t63.5 -37t88 -15.5t88 15t63.5 37t42 57t26 63.5t13 69.5t5 61t0.5 52v522h282v-600
q0 -53 -1.5 -88t-12 -97t-29 -104.5t-57 -93.5t-92 -82t-138 -52.5t-190.5 -21.5t-190.5 21.5t-138 52.5t-92 82t-57 93.5t-29 104.5t-12 97t-1.5 88z" />
    <glyph glyph-name="alpha" unicode="&#x3b1;" horiz-adv-x="1300" 
d="M911 1106h246v-1106h-246v80q-127 -111 -313 -111q-153 0 -271.5 76.5t-181.5 209t-63 298.5q0 256 144.5 420t379.5 164q184 0 305 -109v78zM643 217q128 0 188 88.5t60 247.5q0 158 -59.5 247t-184.5 89q-126 0 -198 -90t-72 -248q0 -70 15.5 -129t46.5 -105.5
t83.5 -73t120.5 -26.5z" />
    <glyph glyph-name="beta" unicode="&#x3b2;" horiz-adv-x="1261" 
d="M141 -492v1598q0 47 17 111q42 143 166 215.5t278 72.5q207 0 344 -122t137 -306q0 -160 -106 -260q106 -44 164.5 -146t58.5 -237q0 -220 -148.5 -342.5t-398.5 -122.5q-133 0 -231 35v-496h-281zM666 227q115 0 185.5 59.5t70.5 159.5q0 108 -83 160.5t-227 52.5v242
q92 6 141.5 51.5t49.5 118.5q0 82 -57.5 128t-137.5 46q-115 0 -159 -86q-27 -53 -27 -149v-549q0 -80 14 -119q22 -58 87.5 -86.5t142.5 -28.5z" />
    <glyph glyph-name="gamma" unicode="&#x3b3;" horiz-adv-x="1163" 
d="M442 -369v369l-401 1106h278l263 -766l262 766h278l-401 -1106v-369h-279z" />
    <glyph glyph-name="delta" unicode="&#x3b4;" horiz-adv-x="1284" 
d="M895 979q144 -62 225.5 -188t81.5 -291q0 -235 -156.5 -383t-410.5 -148q-246 0 -399.5 139.5t-153.5 368.5q0 173 90.5 297t249.5 154q-176 102 -176 278q0 37 7 72t25.5 73t47.5 67.5t77 52t109 30.5q33 4 133 4h320v-225h-256q-82 0 -113 -8q-72 -21 -72 -80
q0 -31 21 -56t62.5 -45.5t83 -35.5t102.5 -36.5t102 -39.5zM643 229q116 0 178 72.5t62 198.5q0 127 -62.5 198.5t-177.5 71.5q-117 0 -178.5 -71t-61.5 -199q0 -130 62 -200.5t178 -70.5z" />
    <glyph glyph-name="epsilon" unicode="&#x3b5;" horiz-adv-x="1075" 
d="M815 356l219 -147q-75 -112 -206.5 -176t-286.5 -64q-93 0 -175.5 23.5t-146 68t-100.5 114.5t-37 157q0 159 115 250q-78 102 -78 221q0 81 34.5 146t92.5 105t131.5 61.5t154.5 21.5q242 0 451 -174l-154 -191q-154 107 -284 107q-61 0 -100 -25t-39 -78
q0 -27 11 -45.5t27.5 -28.5t46 -15.5t55 -7t66.5 -1.5h66v-217h-66q-11 0 -38.5 0.5t-39.5 0l-36 -1.5t-36 -3.5t-30 -7t-27.5 -12t-19.5 -18t-14 -25.5t-4 -34q0 -60 46.5 -95.5t129.5 -35.5q148 0 272 127z" />
    <glyph glyph-name="zeta" unicode="&#x3b6;" horiz-adv-x="1091" 
d="M834 -246q0 51 -9.5 91t-22 65.5t-37.5 43.5t-44 27t-55 13.5t-56.5 5t-60.5 0.5h-10q-457 0 -457 416q0 141 63.5 265.5t227.5 289.5q115 115 286 258h-516v246h949v-201q-359 -326 -457 -416q-138 -126 -198 -223.5t-60 -192.5q0 -42 10 -73.5t33 -51t47 -31.5
t64.5 -17.5t73 -7t83.5 -1.5q130 0 207 -31q112 -43 161 -168t19 -307h-241z" />
    <glyph glyph-name="eta" unicode="&#x3b7;" horiz-adv-x="1302" 
d="M748 1139q70 0 128.5 -15.5t100 -39t75 -60t54.5 -70.5t36 -79.5t22 -78t11 -73.5t4.5 -59t0.5 -43v-621h-283v522q0 32 -0.5 52t-5 61t-13 69.5t-26 63.5t-42 57t-63.5 37t-88 15q-33 0 -62 -6t-62 -26.5t-56.5 -53.5t-39 -92t-15.5 -138v-561h-283v1106h248v-115
q132 148 359 148z" />
    <glyph glyph-name="theta" unicode="&#x3b8;" horiz-adv-x="1425" 
d="M713 1505q294 0 462 -204.5t168 -563.5t-168 -563.5t-462 -204.5t-462.5 204.5t-168.5 563.5t168.5 563.5t462.5 204.5zM713 1243q-146 0 -229.5 -105.5t-102.5 -293.5h663q-19 188 -102 293.5t-229 105.5zM713 231q146 0 229 106t102 294h-663q19 -188 102.5 -294
t229.5 -106z" />
    <glyph glyph-name="iota" unicode="&#x3b9;" horiz-adv-x="864" 
d="M438 -8q-71 13 -126.5 42.5t-98.5 96.5q-15 23 -25 49.5t-15 46t-7.5 54.5t-2.5 53.5t0.5 66t0.5 68.5v637h278v-621v-36v-36t0.5 -29.5t2 -30t4 -23.5t6.5 -24t10 -19q35 -56 117 -64q78 -6 180 8v-231q-60 -18 -163.5 -19t-160.5 11z" />
    <glyph glyph-name="kappa" unicode="&#x3ba;" horiz-adv-x="1130" 
d="M141 0l2 1106h283v-533l375 533h344l-400 -553l426 -553h-362l-383 532v-532h-285z" />
    <glyph glyph-name="lambda" unicode="&#x3bb;" horiz-adv-x="1204" 
d="M82 0l401 1106q-36 87 -87.5 121.5t-151.5 34.5h-54v243h80q111 0 181 -16q53 -12 96.5 -40.5t73 -60.5t57.5 -84t44.5 -93t39.5 -105l401 -1106h-278l-262 766l-263 -766h-278z" />
    <glyph glyph-name="uni03BC" unicode="&#x3bc;" horiz-adv-x="1320" 
d="M141 -492v1598h283v-522q0 -32 0.5 -52t5 -61t13 -69.5t26 -63.5t42 -57t63.5 -37t88 -15q33 0 62 6t62 26.5t56.5 53.5t39 92t15.5 138v561h281v-1106h-246v115q-132 -148 -359 -148q-102 0 -186 33v-492h-246z" />
    <glyph glyph-name="nu" unicode="&#x3bd;" horiz-adv-x="1163" 
d="M442 0l-401 1106h278l263 -766l262 766h278l-401 -1106h-279z" />
    <glyph glyph-name="xi" unicode="&#x3be;" horiz-adv-x="1187" 
d="M930 -246q7 85 -9.5 136.5t-62.5 74.5t-92.5 29t-130.5 6q-276 0 -414.5 117t-138.5 325q0 120 46.5 209.5t145.5 130.5q-131 131 -131 316q0 106 44.5 187t120.5 127.5t165 69.5t189 23q156 0 283.5 -52.5t215.5 -141.5l-190 -205q-46 62 -125 100.5t-184 38.5
q-102 0 -163 -38.5t-61 -116.5q0 -84 68.5 -127t183.5 -48q35 -2 137 -2v-262l-163 -4q-144 -5 -215.5 -46t-71.5 -138q0 -47 18 -82.5t48.5 -57.5t76.5 -36t95 -20t112 -7q173 -3 246 -31q125 -46 182.5 -169t15.5 -306h-241z" />
    <glyph glyph-name="omicron" unicode="&#x3bf;" horiz-adv-x="1284" 
d="M641 -31q-249 0 -404 163t-155 421q0 259 156 421.5t403 162.5q165 0 293 -74.5t198 -207.5t70 -302q0 -258 -156 -421t-405 -163zM641 229q130 0 198 88t68 236q0 151 -68.5 237.5t-197.5 86.5q-132 0 -198 -86.5t-66 -237.5q0 -152 68 -238t196 -86z" />
    <glyph glyph-name="pi" unicode="&#x3c0;" horiz-adv-x="1396" 
d="M246 0v860h-164v246h1233v-246h-164v-860h-279v860h-348v-860h-278z" />
    <glyph glyph-name="rho" unicode="&#x3c1;" horiz-adv-x="1327" 
d="M141 -492v963q0 144 15 225q38 201 181 321t361 120q255 0 401 -161.5t146 -418.5q0 -168 -63 -301.5t-181 -210t-272 -76.5q-184 0 -307 101v-562h-281zM692 217q134 0 204.5 91.5t70.5 246.5q0 157 -70.5 245.5t-204.5 88.5q-136 0 -204 -89.5t-68 -246.5
q0 -158 69.5 -247t202.5 -89z" />
    <glyph glyph-name="uni03C2" unicode="&#x3c2;" horiz-adv-x="1193" 
d="M874 -246q0 69 -16 115.5t-39.5 71t-68 37.5t-81.5 16.5t-100 5.5h-10q-98 3 -181.5 34.5t-151 92.5t-106 164.5t-38.5 240.5q0 276 150 440.5t403 164.5q195 0 328 -99t170 -270l-279 -74q-27 88 -85.5 135.5t-145.5 47.5q-118 0 -172 -88.5t-54 -241.5q0 -70 12 -119
t41.5 -88t84.5 -59t137 -21q181 0 262 -31q116 -44 163.5 -170.5t18.5 -304.5h-242z" />
    <glyph glyph-name="sigma" unicode="&#x3c3;" horiz-adv-x="1325" 
d="M1264 1106v-246h-154q92 -147 92 -321q0 -159 -70 -288.5t-199 -205.5t-292 -76t-292 76.5t-198 206t-69 287.5q0 203 110.5 352t296.5 196q80 19 316 19h459zM641 229q129 0 197.5 86.5t68.5 223.5q0 135 -69.5 221t-196.5 86q-130 0 -197 -87t-67 -220
q0 -141 68.5 -225.5t195.5 -84.5z" />
    <glyph glyph-name="tau" unicode="&#x3c4;" horiz-adv-x="1157" 
d="M688 -8q-71 13 -126.5 42.5t-98.5 96.5q-15 23 -25 49.5t-15 46t-7.5 54.5t-2.5 53.5t0.5 66t0.5 68.5v391h-363v246h1004v-246h-363v-375v-36v-36t0.5 -29.5t2 -30t4 -23.5t6.5 -24t10 -19q35 -57 116 -64q78 -6 181 8v-231q-60 -18 -163.5 -19t-160.5 11z" />
    <glyph glyph-name="upsilon" unicode="&#x3c5;" horiz-adv-x="1286" 
d="M123 506v600h283v-522q0 -32 0.5 -52t5 -61.5t12.5 -69t25.5 -63t42 -57t63.5 -37t88 -15.5t88 15t63.5 37t42 57t26 63.5t13 69.5t5 61t0.5 52v522h282v-600q0 -53 -1.5 -88t-12 -97t-29 -104.5t-57 -93.5t-92 -82t-138 -52.5t-190.5 -21.5t-190.5 21.5t-138 52.5
t-92 82t-57 93.5t-29 104.5t-12 97t-1.5 88z" />
    <glyph glyph-name="phi" unicode="&#x3c6;" horiz-adv-x="1564" 
d="M659 -461v443q-121 -19 -226.5 10.5t-183.5 101.5t-122.5 190.5t-44.5 268.5t44.5 268.5t122.5 190.5t183.5 101.5t226.5 10.5v330h246v-330q121 19 227 -10.5t183.5 -101.5t122.5 -190.5t45 -268.5t-45 -268.5t-122.5 -190.5t-183.5 -101.5t-227 -10.5v-443h-246z
M659 229v645q-156 26 -225 -61.5t-69 -259.5q0 -169 72 -259t222 -65zM905 229q151 -25 223 63.5t72 260.5q0 175 -69 261t-226 60v-645z" />
    <glyph glyph-name="chi" unicode="&#x3c7;" horiz-adv-x="1153" 
d="M20 0l396 559l-387 547h327l222 -328l217 328h327l-387 -547l398 -559h-328l-227 340l-230 -340h-328z" />
    <glyph glyph-name="psi" unicode="&#x3c8;" horiz-adv-x="1527" 
d="M631 -461v402q-425 18 -494 352q-14 66 -14 147v666h260v-639q0 -62 12 -109q13 -49 35.5 -81.5t55.5 -48.5t66 -22t79 -7v907h266v-907q206 4 240 176q8 41 8 92v639h260v-666q0 -77 -14 -143q-75 -338 -494 -356v-402h-266z" />
    <glyph glyph-name="omega" unicode="&#x3c9;" horiz-adv-x="1648" 
d="M1274 1137q139 -92 216 -256t77 -353q0 -155 -50.5 -280.5t-153 -202t-239.5 -76.5q-217 0 -299 178q-30 -64 -80 -105t-104 -57t-117 -16q-139 0 -241 78t-151.5 203.5t-49.5 279.5q0 190 78 352.5t215 254.5l192 -219q-102 -89 -146 -173t-44 -204q0 -136 49.5 -223
t136.5 -87q25 0 44 6.5t33 23.5t23.5 32.5t15.5 47.5t10 54t5 66t1.5 69.5t0.5 78.5v9v82h256v-82q0 -55 0.5 -81.5t2 -72t5 -68t9.5 -55t15.5 -48t23.5 -32.5t33 -23.5t44 -6.5q89 0 138 88t49 222q0 123 -44.5 206.5t-146.5 170.5z" />
    <glyph glyph-name="iotadieresis" unicode="&#x3ca;" horiz-adv-x="864" 
d="M-37 1260v245h246v-245h-246zM397 1260v245h246v-245h-246zM438 -8q-71 13 -126.5 42.5t-98.5 96.5q-15 23 -25 49.5t-15 46t-7.5 54.5t-2.5 53.5t0.5 66t0.5 68.5v637h278v-621v-36v-36t0.5 -29.5t2 -30t4 -23.5t6.5 -24t10 -19q35 -56 117 -64q78 -6 180 8v-231
q-60 -18 -163.5 -19t-160.5 11z" />
    <glyph glyph-name="upsilondieresis" unicode="&#x3cb;" horiz-adv-x="1286" 
d="M303 1260v245h246v-245h-246zM737 1260v245h246v-245h-246zM123 506v600h283v-522q0 -32 0.5 -52t5 -61.5t12.5 -69t25.5 -63t42 -57t63.5 -37t88 -15.5t88 15t63.5 37t42 57t26 63.5t13 69.5t5 61t0.5 52v522h282v-600q0 -53 -1.5 -88t-12 -97t-29 -104.5t-57 -93.5
t-92 -82t-138 -52.5t-190.5 -21.5t-190.5 21.5t-138 52.5t-92 82t-57 93.5t-29 104.5t-12 97t-1.5 88z" />
    <glyph glyph-name="omicrontonos" unicode="&#x3cc;" horiz-adv-x="1284" 
d="M500 1260l78 245h274l-78 -245h-274zM641 -31q-249 0 -404 163t-155 421q0 259 156 421.5t403 162.5q165 0 293 -74.5t198 -207.5t70 -302q0 -258 -156 -421t-405 -163zM641 229q130 0 198 88t68 236q0 151 -68.5 237.5t-197.5 86.5q-132 0 -198 -86.5t-66 -237.5
q0 -152 68 -238t196 -86z" />
    <glyph glyph-name="upsilontonos" unicode="&#x3cd;" horiz-adv-x="1286" 
d="M528 1260l78 245h275l-78 -245h-275zM123 506v600h283v-522q0 -32 0.5 -52t5 -61.5t12.5 -69t25.5 -63t42 -57t63.5 -37t88 -15.5t88 15t63.5 37t42 57t26 63.5t13 69.5t5 61t0.5 52v522h282v-600q0 -53 -1.5 -88t-12 -97t-29 -104.5t-57 -93.5t-92 -82t-138 -52.5
t-190.5 -21.5t-190.5 21.5t-138 52.5t-92 82t-57 93.5t-29 104.5t-12 97t-1.5 88z" />
    <glyph glyph-name="omegatonos" unicode="&#x3ce;" horiz-adv-x="1648" 
d="M1034 1505l-78 -245h-274l78 245h274zM1274 1137q139 -92 216 -256t77 -353q0 -155 -50.5 -280.5t-153 -202t-239.5 -76.5q-217 0 -299 178q-30 -64 -80 -105t-104 -57t-117 -16q-139 0 -241 78t-151.5 203.5t-49.5 279.5q0 190 78 352.5t215 254.5l192 -219
q-102 -89 -146 -173t-44 -204q0 -136 49.5 -223t136.5 -87q25 0 44 6.5t33 23.5t23.5 32.5t15.5 47.5t10 54t5 66t1.5 69.5t0.5 78.5v9v82h256v-82q0 -55 0.5 -81.5t2 -72t5 -68t9.5 -55t15.5 -48t23.5 -32.5t33 -23.5t44 -6.5q89 0 138 88t49 222q0 123 -44.5 206.5
t-146.5 170.5z" />
    <glyph glyph-name="uni0400" unicode="&#x400;" horiz-adv-x="1208" 
d="M895 1608l-576 196l68 203l578 -199zM143 0v1475h963v-261h-684v-315h561v-260h-561v-379h684v-260h-963z" />
    <glyph glyph-name="uni0401" unicode="&#x401;" horiz-adv-x="1208" 
d="M283 1720v246h245v-246h-245zM717 1720v246h246v-246h-246zM143 0v1475h963v-261h-684v-315h561v-260h-561v-379h684v-260h-963z" />
    <glyph glyph-name="uni0402" unicode="&#x402;" horiz-adv-x="1404" 
d="M164 0v1229h-164v246h737v-246h-327v-217q143 125 383 125q256 0 393 -145t137 -421q0 -272 -138 -421.5t-421 -149.5v283q276 0 276 286q0 158 -78 228.5t-210 70.5q-116 0 -189.5 -46.5t-97.5 -123.5q-21 -68 -21 -168v-530h-280z" />
    <glyph glyph-name="uni0403" unicode="&#x403;" horiz-adv-x="1126" 
d="M315 1608l-69 200l577 199l68 -203zM143 0v1475h963v-261h-684v-1214h-279z" />
    <glyph glyph-name="uni0404" unicode="&#x404;" horiz-adv-x="1484" 
d="M758 -31q-159 0 -291.5 59.5t-220.5 163t-136.5 244t-48.5 301.5q0 227 84.5 401t243 270.5t369.5 96.5q263 0 436 -132t229 -374l-278 -38q-37 129 -134.5 205t-234.5 77q-170 3 -277.5 -99t-136.5 -276h519v-260h-516q20 -138 90 -229q52 -71 137 -108.5t184 -39.5
q131 -1 228.5 74t136.5 197l272 -68q-70 -232 -236.5 -348.5t-418.5 -116.5z" />
    <glyph glyph-name="uni0405" unicode="&#x405;" horiz-adv-x="1374" 
d="M700 -31q-248 0 -416 129.5t-202 352.5l291 43q30 -125 125 -195t221 -70q111 0 195.5 51t84.5 138q0 49 -31.5 86t-111.5 61l-383 113q-32 9 -55.5 17t-60.5 24.5t-64 35t-58 49t-50.5 66t-32.5 85.5t-13 108q0 144 75.5 245.5t198 148.5t277.5 46q230 -3 383 -114.5
t207 -317.5l-301 -51q-24 103 -106 161.5t-187 61.5q-102 3 -178 -43.5t-76 -122.5q0 -34 16.5 -61t48 -45t61 -29t71.5 -22l256 -70q37 -10 61.5 -17.5t65.5 -22t69.5 -31t63.5 -39.5t59 -52.5t45.5 -65.5t32 -83t10.5 -101q0 -92 -32.5 -170t-89 -132.5t-132 -92.5
t-161 -56t-177.5 -18z" />
    <glyph glyph-name="uni0406" unicode="&#x406;" 
d="M164 0v1475h278v-1475h-278z" />
    <glyph glyph-name="uni0407" unicode="&#x407;" 
d="M-37 1720v246h246v-246h-246zM397 1720v246h246v-246h-246zM164 0v1475h278v-1475h-278z" />
    <glyph glyph-name="uni0408" unicode="&#x408;" horiz-adv-x="1050" 
d="M453 -31q-173 0 -289 88t-164 246l274 66q9 -57 59 -98.5t107 -41.5q43 0 86 23t62 67q16 39 16 173v983h283v-983q0 -13 0.5 -55t0 -53.5t-2 -43t-4.5 -45t-8.5 -37.5t-14 -42.5t-20.5 -39.5q-120 -207 -385 -207z" />
    <glyph glyph-name="uni0409" unicode="&#x409;" horiz-adv-x="2258" 
d="M1796 967q190 -30 285.5 -158t95.5 -322t-95 -321.5t-286 -157.5q-52 -8 -123 -8h-622v1214h-469q-32 -498 -97 -817q-11 -58 -23 -104t-28.5 -90.5t-36 -77t-45.5 -60.5t-58.5 -44.5t-73 -26t-90.5 -8t-110 13.5v231q93 -6 135.5 49.5t73.5 219.5q69 356 97 975h1005
v-500h342q71 0 123 -8zM1755 270q40 11 69 35t44 55.5t21.5 62.5t6.5 64q0 46 -11 86t-44 79t-86 53q-36 10 -94 10h-330v-455h330q58 0 94 10z" />
    <glyph glyph-name="uni040A" unicode="&#x40a;" horiz-adv-x="2287" 
d="M1825 967q190 -30 285.5 -158t95.5 -322t-95 -321.5t-286 -157.5q-52 -8 -123 -8h-623v713h-657v-713h-279v1475h279v-502h657v502h279v-500h344q71 0 123 -8zM1784 270q40 11 69 35t44 55.5t21.5 62.5t6.5 64q0 46 -11 86t-44 79t-86 53q-36 10 -94 10h-332v-455h332
q58 0 94 10z" />
    <glyph glyph-name="uni040B" unicode="&#x40b;" horiz-adv-x="1404" 
d="M762 999q500 0 500 -575v-424h-283v340q0 40 -0.5 61t-3 60t-7 61.5t-14.5 55.5t-23.5 52.5t-35 42.5t-49.5 35t-66 20.5t-84 8.5q-87 0 -157.5 -25.5t-114.5 -64.5v-647h-281v1229h-143v246h737v-246h-313v-305q126 75 338 75z" />
    <glyph glyph-name="uni040C" unicode="&#x40c;" horiz-adv-x="1361" 
d="M467 1608l-70 200l578 199l67 -203zM143 0v1475h279v-680l561 680h340l-616 -727l655 -748h-352l-588 672v-672h-279z" />
    <glyph glyph-name="uni040D" unicode="&#x40d;" horiz-adv-x="1492" 
d="M1020 1608l-576 196l68 203l578 -199zM143 0v1475h283v-983l641 983h283v-1475h-283v983l-641 -983h-283z" />
    <glyph glyph-name="uni040E" unicode="&#x40e;" horiz-adv-x="1312" 
d="M688 1597q-135 0 -230.5 95.5t-95.5 230.5h216q0 -46 32 -78.5t78 -32.5t78.5 32.5t32.5 78.5h215q0 -135 -95.5 -230.5t-230.5 -95.5zM319 0l205 414l-504 1061h316l334 -768l346 768h297l-697 -1475h-297z" />
    <glyph glyph-name="uni040F" unicode="&#x40f;" horiz-adv-x="1597" 
d="M659 -246v246h-516v1475h279v-1215h754v1215h278v-1475h-516v-246h-279z" />
    <glyph glyph-name="uni0410" unicode="&#x410;" horiz-adv-x="1398" 
d="M1071 0l-94 307h-555l-94 -307h-287l451 1475h415l451 -1475h-287zM500 567h397l-201 647z" />
    <glyph glyph-name="uni0411" unicode="&#x411;" horiz-adv-x="1331" 
d="M143 0v1475h1012v-261h-733v-280h344q65 0 123 -6q184 -20 282.5 -148t98.5 -313q0 -121 -41 -218.5t-128.5 -163.5t-211.5 -79q-58 -6 -123 -6h-623zM422 260h332q55 0 94 8q77 17 109 72.5t32 126.5t-32 126.5t-109 72.5q-39 8 -94 8h-332v-414z" />
    <glyph glyph-name="uni0412" unicode="&#x412;" horiz-adv-x="1304" 
d="M1036 776q100 -41 153.5 -130.5t53.5 -199.5q0 -205 -113.5 -325.5t-332.5 -120.5h-654v1475h590q113 0 201 -36.5t139 -97.5t77 -132.5t26 -147.5q0 -99 -36.5 -172.5t-103.5 -112.5zM426 1214v-315h303q74 0 119 39t45 117q0 70 -43.5 114.5t-120.5 44.5h-303zM768 262
q86 0 140.5 53.5t54.5 141.5q0 81 -50.5 131.5t-144.5 50.5h-342v-377h342z" />
    <glyph glyph-name="uni0413" unicode="&#x413;" horiz-adv-x="1126" 
d="M143 0v1475h963v-261h-684v-1214h-279z" />
    <glyph glyph-name="uni0414" unicode="&#x414;" horiz-adv-x="1550" 
d="M61 -246v506q65 0 112.5 33t77.5 96t47 140t26 180q9 113 53 768l979 -2v-1215h112v-506h-278v246h-850v-246h-279zM477 260h600v954l-446 3q-5 -66 -11.5 -175t-12.5 -195.5t-15 -182.5q-16 -175 -36 -250t-79 -154z" />
    <glyph glyph-name="uni0415" unicode="&#x415;" horiz-adv-x="1208" 
d="M143 0v1475h963v-261h-684v-315h561v-260h-561v-379h684v-260h-963z" />
    <glyph glyph-name="uni0416" unicode="&#x416;" horiz-adv-x="1892" 
d="M20 0l523 748l-484 727h330l418 -660v660h278v-660l418 660h330l-483 -727l522 -748h-342l-445 651v-651h-278v651l-445 -651h-342z" />
    <glyph glyph-name="uni0417" unicode="&#x417;" horiz-adv-x="1366" 
d="M682 -31q-113 0 -212 26.5t-172.5 72.5t-126.5 100.5t-89 116.5l235 164q105 -218 377 -218q149 0 222 61t73 150q0 171 -287 179l-163 4v262q102 0 137 2q114 5 183 49t69 129q0 82 -64 130t-172 48q-95 0 -176 -41t-121 -98l-190 205q82 85 212 139.5t283 54.5
q80 0 154.5 -15.5t142 -49.5t117.5 -83t79.5 -121t29.5 -159q0 -96 -34 -180t-97 -141q192 -86 192 -314q0 -107 -47.5 -197t-129 -150t-191.5 -93t-234 -33z" />
    <glyph glyph-name="uni0418" unicode="&#x418;" horiz-adv-x="1492" 
d="M1350 0h-283v983l-641 -983h-283v1475h283v-983l641 983h283v-1475z" />
    <glyph glyph-name="uni0419" unicode="&#x419;" horiz-adv-x="1492" 
d="M741 1597q-135 0 -230 95.5t-95 230.5h215q0 -46 32 -78.5t78 -32.5t78.5 32.5t32.5 78.5h215q0 -135 -95.5 -230.5t-230.5 -95.5zM143 0v1475h283v-983l641 983h283v-1475h-283v983l-641 -983h-283z" />
    <glyph glyph-name="uni041A" unicode="&#x41a;" horiz-adv-x="1361" 
d="M143 0v1475h279v-680l561 680h340l-616 -727l655 -748h-352l-588 672v-672h-279z" />
    <glyph glyph-name="uni041B" unicode="&#x41b;" horiz-adv-x="1495" 
d="M41 0v231q93 -6 135.5 49.5t73.5 219.5q68 350 96 975h1006v-1475h-279v1214h-471q-33 -505 -96 -817q-11 -58 -23 -104t-28.5 -90.5t-36 -77t-45.5 -60.5t-58.5 -44.5t-73 -26t-90.5 -8t-110 13.5z" />
    <glyph glyph-name="uni041C" unicode="&#x41c;" horiz-adv-x="1761" 
d="M143 0v1475h250l488 -979l487 979h250v-1475h-260v881l-428 -881h-99l-428 881v-881h-260z" />
    <glyph glyph-name="uni041D" unicode="&#x41d;" horiz-adv-x="1503" 
d="M143 0v1475h279v-607h659v607h279v-1475h-279v608h-659v-608h-279z" />
    <glyph glyph-name="uni041E" unicode="&#x41e;" horiz-adv-x="1552" 
d="M776 -31q-218 0 -380.5 96t-248.5 269.5t-86 402.5t86 402.5t248.5 269.5t380.5 96t380.5 -96t248.5 -269.5t86 -402.5t-86 -402.5t-248.5 -269.5t-380.5 -96zM776 231q206 -3 313 133t107 373q0 235 -106.5 369t-313.5 137q-206 3 -313 -133t-107 -373
q0 -235 106.5 -369t313.5 -137z" />
    <glyph glyph-name="uni041F" unicode="&#x41f;" horiz-adv-x="1503" 
d="M143 0v1475h1217v-1475h-279v1214h-659v-1214h-279z" />
    <glyph glyph-name="uni0420" unicode="&#x420;" horiz-adv-x="1331" 
d="M143 0v1475h623q64 0 123 -9q191 -30 286 -157.5t95 -321.5t-95.5 -321.5t-285.5 -157.5q-52 -8 -123 -8h-344v-500h-279zM422 760h332q58 0 94 10q40 11 69 35t44 55.5t21.5 62.5t6.5 64t-6.5 64t-21.5 62.5t-44 55.5t-69 35q-36 10 -94 10h-332v-454z" />
    <glyph glyph-name="uni0421" unicode="&#x421;" horiz-adv-x="1527" 
d="M776 -31q-218 0 -380.5 96t-248.5 269.5t-86 402.5t86 402.5t248.5 269.5t380.5 96q250 0 424 -124t246 -343l-281 -77q-42 136 -140 209t-249 73q-206 0 -314 -135t-108 -371t108 -371t314 -135q151 0 249 73.5t140 209.5l281 -78q-72 -219 -246 -343t-424 -124z" />
    <glyph glyph-name="uni0422" unicode="&#x422;" horiz-adv-x="1249" 
d="M485 0v1214h-465v261h1209v-261h-465v-1214h-279z" />
    <glyph glyph-name="uni0423" unicode="&#x423;" horiz-adv-x="1312" 
d="M319 0l205 414l-504 1061h316l334 -768l346 768h297l-697 -1475h-297z" />
    <glyph glyph-name="uni0424" unicode="&#x424;" horiz-adv-x="1531" 
d="M627 0v215q-114 -19 -216.5 9.5t-180 98.5t-123.5 187.5t-46 267.5t46 269.5t123.5 191.5t180 102t216.5 11v123h276v-123q114 19 216.5 -11t180.5 -102t124 -191.5t46 -269.5t-46 -267.5t-124 -187.5t-180.5 -98.5t-216.5 -9.5v-215h-276zM627 469v633q-67 11 -118.5 -4
t-82 -46.5t-49.5 -78.5t-26 -94t-7 -101t7 -99.5t26 -90.5t49.5 -74t82 -42.5t118.5 -2.5zM903 469q67 -11 118.5 2.5t82 42.5t50.5 73t27 88.5t7 94.5q0 51 -7 98t-27 95.5t-50.5 82t-82.5 50.5t-118 6v-633z" />
    <glyph glyph-name="uni0425" unicode="&#x425;" horiz-adv-x="1376" 
d="M20 0l496 745l-481 730h342l313 -492l309 492h344l-481 -730l494 -745h-342l-324 508l-325 -508h-345z" />
    <glyph glyph-name="uni0426" unicode="&#x426;" horiz-adv-x="1558" 
d="M1260 -246v246h-1117v1475h279v-1229h672v1188h278v-1188h166v-492h-278z" />
    <glyph glyph-name="uni0427" unicode="&#x427;" horiz-adv-x="1404" 
d="M981 1475h281v-1475h-281v551q-61 -36 -151 -56t-187 -20q-500 0 -500 576v424h283v-340q0 -73 2 -112t16.5 -102.5t42.5 -97t84.5 -60t137.5 -26.5q87 0 157.5 25.5t114.5 64.5v648z" />
    <glyph glyph-name="uni0428" unicode="&#x428;" horiz-adv-x="1966" 
d="M143 0v1475h279v-1215h422v1215h278v-1215h422v1215h279v-1475h-1680z" />
    <glyph glyph-name="uni0429" unicode="&#x429;" horiz-adv-x="2009" 
d="M1823 246h166v-492h-279v246h-1567v1475h279v-1215h422v1215h278v-1215h422v1215h279v-1229z" />
    <glyph glyph-name="uni042A" unicode="&#x42a;" horiz-adv-x="1376" 
d="M205 0v1260h-205v215h483v-500h344q71 0 123 -8q190 -30 285.5 -158t95.5 -322t-95 -321.5t-286 -157.5q-52 -8 -123 -8h-622zM483 260h332q58 0 94 10q53 15 86.5 53t44.5 78.5t11 85.5q0 33 -6.5 64t-21.5 62.5t-44.5 56t-69.5 35.5q-36 10 -94 10h-332v-455z" />
    <glyph glyph-name="uni042B" unicode="&#x42b;" horiz-adv-x="1837" 
d="M141 0v1475h279v-500h344q71 0 123 -8q190 -30 285.5 -158t95.5 -322t-95 -321.5t-286 -157.5q-52 -8 -123 -8h-623zM1415 0v1475h279v-1475h-279zM420 260h332q58 0 94 10q40 11 69 35t44 55.5t21.5 62.5t6.5 64q0 46 -11 86t-44 79t-86 53q-36 10 -94 10h-332v-455z
" />
    <glyph glyph-name="uni042C" unicode="&#x42c;" horiz-adv-x="1349" 
d="M141 0v1475h279v-500h344q71 0 123 -8q190 -30 285.5 -158t95.5 -322t-95 -321.5t-286 -157.5q-52 -8 -123 -8h-623zM420 260h332q58 0 94 10q40 11 69 35t44 55.5t21.5 62.5t6.5 64q0 46 -11 86t-44 79t-86 53q-36 10 -94 10h-332v-455z" />
    <glyph glyph-name="uni042D" unicode="&#x42d;" horiz-adv-x="1484" 
d="M727 -31q-252 0 -418.5 116.5t-236.5 348.5l272 68q39 -122 136.5 -197t228.5 -74q99 2 184 39.5t137 108.5q70 91 90 229h-516v260h518q-29 174 -136 276t-277 99q-137 -1 -234.5 -77t-134.5 -205l-279 38q56 242 229 374t437 132q211 0 369.5 -96.5t242.5 -270.5
t84 -401q0 -161 -48.5 -301.5t-136.5 -244t-220 -163t-291 -59.5z" />
    <glyph glyph-name="uni042E" unicode="&#x42e;" horiz-adv-x="1957" 
d="M1266 1505q294 0 462 -204.5t168 -563.5t-168 -563.5t-462 -204.5q-264 0 -428 166t-195 463h-221v-598h-279v1475h279v-598h221q31 296 195 462t428 166zM1266 231q167 0 251.5 136t84.5 370t-84.5 370t-251.5 136t-251.5 -136t-84.5 -370t84.5 -370t251.5 -136z" />
    <glyph glyph-name="uni042F" unicode="&#x42f;" horiz-adv-x="1372" 
d="M606 1475h623v-1475h-279v500h-311l-242 -500h-315l266 547q-123 57 -184.5 171t-61.5 269q0 194 95 321.5t286 157.5q59 9 123 9zM950 760v454h-332q-58 0 -94 -10q-40 -11 -69 -35t-44 -55.5t-21.5 -62.5t-6.5 -64t6.5 -64t21.5 -62.5t44 -55.5t69 -35q36 -10 94 -10
h332z" />
    <glyph glyph-name="uni0430" unicode="&#x430;" horiz-adv-x="1193" 
d="M1026 936q29 -56 37 -112.5t8 -147.5v-676h-244v135q-74 -88 -161.5 -127t-214.5 -39q-172 0 -270.5 96t-98.5 240q0 121 56.5 203.5t185.5 130.5q50 18 130 35.5t145.5 28t197.5 30.5q-9 77 -57.5 113.5t-145.5 36.5q-71 0 -134 -33t-87 -102l-252 79q43 143 162 226.5
t311 83.5q325 0 432 -201zM766 336q24 50 29 170q-247 -41 -326 -70q-61 -24 -88 -54.5t-27 -72.5q0 -57 42 -89t114 -32q54 0 101 16t77 41t49 47.5t29 43.5z" />
    <glyph glyph-name="uni0431" unicode="&#x431;" horiz-adv-x="1236" 
d="M610 -33q-233 3 -365.5 149.5t-156.5 397.5q-13 141 5.5 312.5t66.5 279.5q62 136 194 229q82 58 182 86.5t269.5 50t232.5 33.5l25 -245q-57 -15 -175.5 -25.5t-221.5 -28.5t-164 -57q-67 -42 -106.5 -119t-45.5 -162q111 162 336 162q107 0 196.5 -41t148.5 -111.5
t91.5 -165t32.5 -202.5q0 -243 -153 -394.5t-392 -148.5zM623 227q116 0 177.5 72.5t61.5 198.5q0 127 -62 198.5t-177 71.5q-117 0 -178.5 -71t-61.5 -199q0 -130 62 -200.5t178 -70.5z" />
    <glyph glyph-name="uni0432" unicode="&#x432;" horiz-adv-x="1161" 
d="M141 0v1106h518q106 0 185 -23q86 -27 143 -95t57 -183q0 -129 -86 -195q-41 -29 -73 -37q42 -6 78 -22q137 -61 137 -234q0 -112 -54.5 -189.5t-160.5 -107.5q-70 -20 -191 -20h-553zM424 659h170q73 0 111 17q53 24 53 100q0 85 -64 105q-31 10 -100 10h-170v-232z
M424 211h250q46 0 86 16q27 11 41 40t14 63q0 74 -61 102q-27 12 -80 12h-250v-233z" />
    <glyph glyph-name="uni0433" unicode="&#x433;" horiz-adv-x="993" 
d="M143 0v1106h799v-260h-520v-846h-279z" />
    <glyph glyph-name="uni0434" unicode="&#x434;" horiz-adv-x="1320" 
d="M61 -246v461q86 0 124.5 60t60.5 221q28 205 47 610h854v-891h113v-461h-263v246h-673v-246h-263zM418 215h450v676h-333q-10 -194 -33 -430q-10 -96 -27.5 -150.5t-56.5 -95.5z" />
    <glyph glyph-name="uni0435" unicode="&#x435;" horiz-adv-x="1245" 
d="M381 475q15 -120 81 -183t179 -63q165 0 229 140l279 -80q-62 -150 -195.5 -235t-296.5 -85q-254 0 -414.5 160t-160.5 410q0 270 155.5 434t403.5 164q261 0 402 -180.5t116 -481.5h-778zM653 895q-220 0 -264 -213h488q-15 112 -69 162.5t-155 50.5z" />
    <glyph glyph-name="uni0436" unicode="&#x436;" horiz-adv-x="1613" 
d="M20 0l386 553l-359 553h303l334 -533v533h246v-533l334 533h303l-359 -553l385 -553h-321l-342 532v-532h-246v532l-342 -532h-322z" />
    <glyph glyph-name="uni0437" unicode="&#x437;" horiz-adv-x="1075" 
d="M879 582q114 -90 114 -250q0 -115 -64 -199t-166 -124t-228 -40q-156 0 -287.5 64t-206.5 176l219 147q124 -127 272 -127q83 0 130 35.5t47 95.5q0 19 -4 34t-14 25.5t-19.5 18t-28 12t-30.5 7t-36 3.5l-36 1.5t-39.5 0t-38.5 -0.5h-66v217h66q51 0 82 2.5t63 11.5
t47 30t15 54q0 53 -39.5 78t-100.5 25q-130 0 -284 -107l-154 191q209 174 451 174q81 0 154.5 -21.5t131.5 -61.5t92.5 -105t34.5 -146q0 -120 -77 -221z" />
    <glyph glyph-name="uni0438" unicode="&#x438;" horiz-adv-x="1271" 
d="M1128 1106v-1106h-266v676l-500 -676h-221v1106h267v-653l501 653h219z" />
    <glyph glyph-name="uni0439" unicode="&#x439;" horiz-adv-x="1271" 
d="M672 1229q-135 0 -230.5 95t-95.5 230h215q0 -46 32.5 -78t78.5 -32t78 32t32 78h215q0 -135 -95 -230t-230 -95zM1128 1106v-1106h-266v676l-500 -676h-221v1106h267v-653l501 653h219z" />
    <glyph glyph-name="uni043A" unicode="&#x43a;" horiz-adv-x="1130" 
d="M141 0l2 1106h283v-533l375 533h344l-400 -553l426 -553h-362l-383 532v-532h-285z" />
    <glyph glyph-name="uni043B" unicode="&#x43b;" horiz-adv-x="1259" 
d="M41 0v231q31 -3 53 -5.5t39.5 6.5t29.5 19.5t21.5 32.5t15.5 45.5t13 59.5q41 220 68 717h835v-1106h-278v846h-314q-36 -428 -61 -555q-15 -80 -37 -136t-56 -96.5t-79.5 -57.5t-108 -19t-141.5 18z" />
    <glyph glyph-name="uni043C" unicode="&#x43c;" horiz-adv-x="1505" 
d="M141 0v1106h226l385 -717l385 717h225v-1106h-266v551l-295 -551h-99l-294 551v-551h-267z" />
    <glyph glyph-name="uni043D" unicode="&#x43d;" horiz-adv-x="1296" 
d="M141 0v1106h279v-422h454v422h279v-1106h-279v424h-454v-424h-279z" />
    <glyph glyph-name="uni043E" unicode="&#x43e;" horiz-adv-x="1284" 
d="M641 -31q-249 0 -404 163t-155 421q0 259 156 421.5t403 162.5q165 0 293 -74.5t198 -207.5t70 -302q0 -258 -156 -421t-405 -163zM641 229q130 0 198 88t68 236q0 151 -68.5 237.5t-197.5 86.5q-132 0 -198 -86.5t-66 -237.5q0 -152 68 -238t196 -86z" />
    <glyph glyph-name="uni043F" unicode="&#x43f;" horiz-adv-x="1271" 
d="M141 0v1106h987v-1106h-278v846h-430v-846h-279z" />
    <glyph glyph-name="uni0440" unicode="&#x440;" horiz-adv-x="1277" 
d="M672 1137q235 0 379.5 -164t144.5 -420q0 -165 -63 -298t-180 -209.5t-267 -76.5q-152 0 -264 70v-531h-281v1598h246v-62q117 93 285 93zM641 217q129 0 194.5 94t65.5 242q0 147 -68.5 241.5t-201.5 94.5q-125 0 -184.5 -89t-59.5 -247q0 -336 254 -336z" />
    <glyph glyph-name="uni0441" unicode="&#x441;" horiz-adv-x="1193" 
d="M631 -31q-252 0 -400.5 164.5t-148.5 419.5q0 168 67 300t193.5 208t292.5 76q195 0 328 -99t170 -270l-279 -74q-24 85 -85 134t-138 49q-126 0 -190 -89t-64 -235q0 -149 65.5 -236.5t188.5 -87.5q90 0 140.5 41.5t76.5 124.5l285 -59q-47 -176 -178 -271.5t-324 -95.5
z" />
    <glyph glyph-name="uni0442" unicode="&#x442;" horiz-adv-x="1105" 
d="M414 0v860h-363v246h1004v-246h-363v-860h-278z" />
    <glyph glyph-name="uni0443" unicode="&#x443;" horiz-adv-x="1167" 
d="M889 1106h278l-624 -1598h-258l182 500l-447 1098h289l291 -752z" />
    <glyph glyph-name="uni0444" unicode="&#x444;" horiz-adv-x="1564" 
d="M659 -461v443q-121 -19 -226.5 10.5t-183.5 101.5t-122.5 190.5t-44.5 268.5t44.5 268.5t122.5 190.5t183.5 101.5t226.5 10.5v330h246v-330q121 19 227 -10.5t183.5 -101.5t122.5 -190.5t45 -268.5t-45 -268.5t-122.5 -190.5t-183.5 -101.5t-227 -10.5v-443h-246z
M659 229v645q-156 26 -225 -61.5t-69 -259.5q0 -169 72 -259t222 -65zM905 229q151 -25 223 63.5t72 260.5q0 175 -69 261t-226 60v-645z" />
    <glyph glyph-name="uni0445" unicode="&#x445;" horiz-adv-x="1153" 
d="M20 0l396 559l-387 547h327l222 -328l217 328h327l-387 -547l398 -559h-328l-227 340l-230 -340h-328z" />
    <glyph glyph-name="uni0446" unicode="&#x446;" horiz-adv-x="1359" 
d="M1061 -246v246h-920v1106h279v-846h430v846h278v-860h211v-492h-278z" />
    <glyph glyph-name="uni0447" unicode="&#x447;" horiz-adv-x="1200" 
d="M776 0v358q-118 -59 -274 -59q-171 0 -273 77t-131 226q-16 84 -16 227v277h283v-277q0 -92 14 -149q19 -72 63 -103.5t127 -31.5q124 0 207 65v496h281v-1106h-281z" />
    <glyph glyph-name="uni0448" unicode="&#x448;" horiz-adv-x="1640" 
d="M141 0v1106h267v-860h278v860h266v-860h279v860h266v-1106h-1356z" />
    <glyph glyph-name="uni0449" unicode="&#x449;" horiz-adv-x="1607" 
d="M1309 -246v246h-1168v1106h267v-860h278v860h266v-860h279v860h266v-860h90v-492h-278z" />
    <glyph glyph-name="uni044A" unicode="&#x44a;" horiz-adv-x="1251" 
d="M205 0v891h-164v215h442v-352h179q139 0 208 -13q299 -66 299 -366q0 -292 -297 -361q-62 -14 -210 -14h-457zM483 215h209q47 0 86 10q44 12 76.5 55t32.5 95q0 56 -33 98t-80 55q-40 11 -82 11h-209v-324z" />
    <glyph glyph-name="uni044B" unicode="&#x44b;" horiz-adv-x="1560" 
d="M141 0v1106h279v-352h100q140 0 209 -13q299 -66 299 -366q0 -292 -297 -361q-62 -14 -211 -14h-379zM1139 0v1106h278v-1106h-278zM420 215h131q47 0 86 10q44 12 76 54.5t32 95.5q0 56 -33 98t-79 55q-40 11 -82 11h-131v-324z" />
    <glyph glyph-name="uni044C" unicode="&#x44c;" horiz-adv-x="1187" 
d="M141 0v1106h279v-352h178q140 0 209 -13q299 -66 299 -366q0 -292 -297 -361q-62 -14 -211 -14h-457zM420 215h209q47 0 86 10q44 12 76 54.5t32 95.5q0 56 -33 98t-79 55q-40 11 -82 11h-209v-324z" />
    <glyph glyph-name="uni044D" unicode="&#x44d;" horiz-adv-x="1196" 
d="M565 -31q-193 0 -324 95.5t-178 271.5l285 59q26 -83 76.5 -124.5t140.5 -41.5q99 0 161 57.5t83 159.5h-326v216h326q-20 96 -80.5 155.5t-155.5 59.5q-84 0 -144.5 -47.5t-86.5 -135.5l-279 74q37 171 170 270t328 99q250 0 401.5 -164.5t151.5 -421.5
q0 -166 -64.5 -297t-190.5 -208t-294 -77z" />
    <glyph glyph-name="uni044E" unicode="&#x44e;" horiz-adv-x="1783" 
d="M1141 -31q-194 0 -332 117.5t-174 327.5h-215v-414h-279v1106h279v-414h215q36 212 175 328.5t337 116.5q161 0 288 -75t197 -208t70 -299q0 -259 -156.5 -422.5t-404.5 -163.5zM1139 229q131 0 199.5 88t68.5 236q0 152 -68.5 238t-199.5 86q-130 0 -196 -87t-66 -235
q0 -153 67.5 -239.5t194.5 -86.5z" />
    <glyph glyph-name="uni044F" unicode="&#x44f;" horiz-adv-x="1216" 
d="M616 1106h457v-1106h-278v352h-179h-32l-211 -352h-291l237 389q-99 41 -154.5 127t-55.5 211q0 149 79.5 243.5t217.5 121.5q74 14 210 14zM795 567v324h-209q-47 0 -86 -10q-44 -12 -76.5 -55t-32.5 -97q0 -56 33.5 -97t79.5 -54q40 -11 82 -11h209z" />
    <glyph glyph-name="uni0450" unicode="&#x450;" horiz-adv-x="1245" 
d="M1034 1440l-69 -201l-576 197l68 202zM381 475q15 -120 81 -183t179 -63q165 0 229 140l279 -80q-62 -150 -195.5 -235t-296.5 -85q-254 0 -414.5 160t-160.5 410q0 270 155.5 434t403.5 164q261 0 402 -180.5t116 -481.5h-778zM653 895q-220 0 -264 -213h488
q-15 112 -69 162.5t-155 50.5z" />
    <glyph glyph-name="uni0451" unicode="&#x451;" horiz-adv-x="1245" 
d="M547 1505v-245h-246v245h246zM981 1505v-245h-246v245h246zM381 475q15 -120 81 -183t179 -63q165 0 229 140l279 -80q-62 -150 -195.5 -235t-296.5 -85q-254 0 -414.5 160t-160.5 410q0 270 155.5 434t403.5 164q261 0 402 -180.5t116 -481.5h-778zM653 895
q-220 0 -264 -213h488q-15 112 -69 162.5t-155 50.5z" />
    <glyph glyph-name="uni0452" unicode="&#x452;" horiz-adv-x="1302" 
d="M965 -479q-112 -27 -256 10v195q3 0 20.5 -1.5t24 -1.5h23.5t25.5 2t23.5 6.5t23 11.5t19 18t16 25.5t9 34.5t4 44v657q0 32 -0.5 52t-5 61t-13 69.5t-26 63.5t-42 57t-63.5 37t-88 15q-33 0 -62 -6t-62 -26.5t-56.5 -53.5t-39 -92t-15.5 -138v-561h-281v1188h-106v213
h106v74h246v-74h205v-213h-205v-197q132 148 359 148q70 0 128.5 -15.5t100 -39t75 -60t54.5 -70.5t36 -79.5t22 -78t11 -73.5t4.5 -59t0.5 -43v-801q0 -122 -54.5 -198t-160.5 -101z" />
    <glyph glyph-name="uni0453" unicode="&#x453;" horiz-adv-x="993" 
d="M274 1239l-69 201l577 198l68 -202zM143 0v1106h799v-260h-520v-846h-279z" />
    <glyph glyph-name="uni0454" unicode="&#x454;" horiz-adv-x="1196" 
d="M631 -31q-168 0 -294 77t-190.5 208t-64.5 297q0 257 151.5 421.5t401.5 164.5q195 0 328 -99t170 -270l-279 -74q-26 88 -86.5 135.5t-144.5 47.5q-95 0 -155.5 -59.5t-80.5 -155.5h326v-216h-326q21 -102 83 -159.5t161 -57.5q90 0 140.5 41.5t76.5 124.5l285 -59
q-47 -176 -178 -271.5t-324 -95.5z" />
    <glyph glyph-name="uni0455" unicode="&#x455;" horiz-adv-x="1120" 
d="M575 -31q-209 0 -337 94.5t-156 268.5l285 43q17 -78 77 -122t152 -44q75 0 116.5 29t41.5 81q0 21 -5.5 34.5t-18.5 26t-46 25t-76 25.5t-121 33q-203 53 -285.5 125.5t-82.5 199.5q0 160 119.5 254.5t320.5 94.5q195 0 321 -88.5t148 -239.5l-285 -51q-7 61 -53.5 97
t-124.5 42q-77 5 -123.5 -21t-46.5 -73q0 -30 21.5 -48.5t80 -38t193.5 -54.5q189 -50 268.5 -124.5t79.5 -203.5q0 -170 -123 -267.5t-340 -97.5z" />
    <glyph glyph-name="uni0456" unicode="&#x456;" 
d="M164 1260v245h278v-245h-278zM164 0v1106h278v-1106h-278z" />
    <glyph glyph-name="uni0457" unicode="&#x457;" 
d="M-37 1260v245h246v-245h-246zM397 1260v245h246v-245h-246zM164 0v1106h278v-1106h-278z" />
    <glyph glyph-name="uni0458" unicode="&#x458;" horiz-adv-x="616" 
d="M195 1260v245h278v-245h-278zM-20 -492v261h49q92 0 129 40.5t37 124.5v1172h278v-1307q0 -132 -83 -211.5t-222 -79.5h-188z" />
    <glyph glyph-name="uni0459" unicode="&#x459;" horiz-adv-x="1765" 
d="M41 0v231q31 -3 53 -5.5t39.5 6.5t29.5 19.5t21.5 32.5t15.5 45.5t13 59.5q41 220 68 717h794v-352h101q140 0 208 -13q138 -27 218.5 -120t80.5 -242t-79.5 -243.5t-217.5 -121.5q-74 -14 -210 -14h-379v846h-273q-36 -428 -61 -555q-15 -80 -37 -136t-56 -96.5
t-79.5 -57.5t-108 -19t-141.5 18zM1075 215h131q47 0 86 10q44 12 76.5 55t32.5 97q0 56 -33.5 97t-79.5 54q-40 11 -82 11h-131v-324z" />
    <glyph glyph-name="uni045A" unicode="&#x45a;" horiz-adv-x="1730" 
d="M141 0v1106h279v-352h342v352h278v-352h101q141 0 209 -13q138 -27 218.5 -120t80.5 -242t-79.5 -243.5t-217.5 -121.5q-74 -14 -211 -14h-379v539h-342v-539h-279zM1040 215h131q47 0 86 10q44 12 76.5 55t32.5 97q0 56 -33.5 97t-79.5 54q-40 11 -82 11h-131v-324z" />
    <glyph glyph-name="uni045B" unicode="&#x45b;" horiz-adv-x="1302" 
d="M748 1139q70 0 128.5 -15.5t100 -39t75 -60t54.5 -70.5t36 -79.5t22 -78t11 -73.5t4.5 -59t0.5 -43v-621h-283v522q0 32 -0.5 52t-5 61t-13 69.5t-26 63.5t-42 57t-63.5 37t-88 15q-33 0 -62 -6t-62 -26.5t-56.5 -53.5t-39 -92t-15.5 -138v-561h-283v1188h-104v213h104
v74h248v-74h205v-213h-205v-197q132 148 359 148z" />
    <glyph glyph-name="uni045C" unicode="&#x45c;" horiz-adv-x="1130" 
d="M315 1239l-69 201l577 198l68 -202zM141 0l2 1106h283v-533l375 533h344l-400 -553l426 -553h-362l-383 532v-532h-285z" />
    <glyph glyph-name="uni045D" unicode="&#x45d;" horiz-adv-x="1271" 
d="M948 1239l-575 197l67 202l578 -198zM1128 1106v-1106h-266v676l-500 -676h-221v1106h267v-653l501 653h219z" />
    <glyph glyph-name="uni045E" unicode="&#x45e;" horiz-adv-x="1167" 
d="M600 1229q-135 0 -230.5 95t-95.5 230h215q0 -46 32.5 -78t78.5 -32t78.5 32t32.5 78h215q0 -135 -95.5 -230t-230.5 -95zM889 1106h278l-624 -1598h-258l182 500l-447 1098h289l291 -752z" />
    <glyph glyph-name="uni045F" unicode="&#x45f;" horiz-adv-x="1271" 
d="M508 -246v246h-367v1106h279v-846h430v846h278v-1106h-342v-246h-278z" />
    <glyph glyph-name="uni0490" unicode="&#x490;" horiz-adv-x="1146" 
d="M143 0v1475h705v245h278v-506h-704v-1214h-279z" />
    <glyph glyph-name="uni0491" unicode="&#x491;" horiz-adv-x="993" 
d="M143 0v1106h521v246h278v-506h-520v-846h-279z" />
    <glyph glyph-name="uni04AE" unicode="&#x4ae;" horiz-adv-x="1290" 
d="M504 0v600l-504 875h326l319 -555l320 555h325l-504 -875v-600h-282z" />
    <glyph glyph-name="uni04AF" unicode="&#x4af;" horiz-adv-x="1163" 
d="M442 -369v369l-401 1106h278l263 -766l262 766h278l-401 -1106v-369h-279z" />
    <glyph glyph-name="uni04BA" unicode="&#x4ba;" horiz-adv-x="1404" 
d="M762 999q500 0 500 -575v-424h-283v340q0 40 -0.5 61t-3 60t-7 61.5t-14.5 55.5t-23.5 52.5t-35 42.5t-49.5 35t-66 20.5t-84 8.5q-87 0 -157.5 -25.5t-114.5 -64.5v-647h-281v1475h281v-551q126 75 338 75z" />
    <glyph glyph-name="uni04BB" unicode="&#x4bb;" horiz-adv-x="1200" 
d="M424 1106v-358q118 59 274 59q171 0 273 -77t131 -226q16 -84 16 -228v-276h-282v276q0 89 -15 150q-19 72 -63 103.5t-127 31.5q-124 0 -207 -65v-496h-281v1106h281z" />
    <glyph glyph-name="uni04E8" unicode="&#x4e8;" horiz-adv-x="1593" 
d="M776 1505q218 0 380.5 -96t248.5 -269.5t86 -402.5t-86 -402.5t-248.5 -269.5t-380.5 -96t-380.5 96t-248.5 269.5t-86 402.5t86 402.5t248.5 269.5t380.5 96zM776 1243q-172 3 -275.5 -94t-133.5 -272h819q-30 172 -133 267.5t-277 98.5zM776 231q172 -3 276 94.5
t134 272.5h-819q30 -173 133 -268.5t276 -98.5z" />
    <glyph glyph-name="uni04E9" unicode="&#x4e9;" horiz-adv-x="1284" 
d="M641 1137q165 0 293 -74.5t198 -207.5t70 -302q0 -258 -156 -421t-405 -163t-404 163t-155 421q0 259 156 421.5t403 162.5zM641 877q-106 0 -169.5 -56.5t-84.5 -158.5h510q-22 102 -87 158.5t-169 56.5zM641 229q104 0 168.5 57.5t87.5 159.5h-510q22 -104 86 -160.5
t168 -56.5z" />
    <glyph glyph-name="Wgrave" unicode="&#x1e80;" horiz-adv-x="2025" 
d="M1307 1608l-576 196l68 203l577 -199zM453 0l-433 1475h293l277 -1014l274 1012l293 2l277 -1014l278 1014h293l-432 -1475h-275l-286 995l-285 -995h-274z" />
    <glyph glyph-name="wgrave" unicode="&#x1e81;" horiz-adv-x="1667" 
d="M1085 1239l-575 197l68 202l577 -198zM379 0l-338 1108l274 -2l201 -660l203 660h231l203 -660l201 660h272l-338 -1106h-231l-223 721l-242 -721h-213z" />
    <glyph glyph-name="Wacute" unicode="&#x1e82;" horiz-adv-x="2025" 
d="M756 1608l-70 200l578 199l67 -203zM453 0l-433 1475h293l277 -1014l274 1012l293 2l277 -1014l278 1014h293l-432 -1475h-275l-286 995l-285 -995h-274z" />
    <glyph glyph-name="wacute" unicode="&#x1e83;" horiz-adv-x="1667" 
d="M541 1239l-70 201l578 198l67 -202zM379 0l-338 1108l274 -2l201 -660l203 660h231l203 -660l201 660h272l-338 -1106h-231l-223 721l-242 -721h-213z" />
    <glyph glyph-name="Wdieresis" unicode="&#x1e84;" horiz-adv-x="2025" 
d="M674 1720v246h246v-246h-246zM1108 1720v246h246v-246h-246zM453 0l-433 1475h293l277 -1014l274 1012l293 2l277 -1014l278 1014h293l-432 -1475h-275l-286 995l-285 -995h-274z" />
    <glyph glyph-name="wdieresis" unicode="&#x1e85;" horiz-adv-x="1667" 
d="M494 1260v245h245v-245h-245zM928 1260v245h246v-245h-246zM379 0l-338 1108l274 -2l201 -660l203 660h231l203 -660l201 660h272l-338 -1106h-231l-223 721l-242 -721h-213z" />
    <glyph glyph-name="uni1E9E" unicode="&#x1e9e;" horiz-adv-x="1323" 
d="M727 -31q-117 0 -190 31v272q75 -30 149 -30q105 0 167 53.5t62 153.5q0 90 -72.5 145t-178.5 35l-86 213l245 274q-18 61 -66.5 95t-125.5 34q-53 0 -99 -27t-75 -77q-21 -37 -28 -80.5t-7 -112.5v-948h-281v942q0 164 31 258q48 149 164 227t295 78q194 0 322 -106.5
t161 -282.5l-221 -246q147 -44 227 -147t80 -285q0 -215 -124.5 -342t-348.5 -127z" />
    <glyph glyph-name="Ygrave" unicode="&#x1ef2;" horiz-adv-x="1290" 
d="M940 1608l-575 196l67 203l578 -199zM504 0v600l-504 875h326l319 -555l320 555h325l-504 -875v-600h-282z" />
    <glyph glyph-name="ygrave" unicode="&#x1ef3;" horiz-adv-x="1167" 
d="M936 1440l-70 -201l-575 197l67 202zM889 1106h278l-624 -1598h-258l182 500l-447 1098h289l291 -752z" />
    <glyph glyph-name="uni2011" unicode="&#x2011;" horiz-adv-x="860" 
d="M123 539v215h614v-215h-614z" />
    <glyph glyph-name="endash" unicode="&#x2013;" horiz-adv-x="1105" 
d="M123 539v215h860v-215h-860z" />
    <glyph glyph-name="emdash" unicode="&#x2014;" horiz-adv-x="1597" 
d="M123 539v215h1352v-215h-1352z" />
    <glyph glyph-name="quoteleft" unicode="&#x2018;" horiz-adv-x="624" 
d="M440 920q-138 -23 -208 50.5t-70 225.5v279h278v-279h-143q-11 -76 22.5 -121t104.5 -39z" />
    <glyph glyph-name="quoteright" unicode="&#x2019;" horiz-adv-x="624" 
d="M184 920l17 116q71 -6 104.5 39t22.5 121h-144v279h279v-279q0 -152 -70.5 -225.5t-208.5 -50.5z" />
    <glyph glyph-name="quotesinglbase" unicode="&#x201a;" horiz-adv-x="647" 
d="M123 -276l16 116q71 -6 104.5 39t22.5 121h-143v279h278v-279q0 -152 -70 -225.5t-208 -50.5z" />
    <glyph glyph-name="quotedblleft" unicode="&#x201c;" horiz-adv-x="1103" 
d="M569 1591l-16 -116q-71 6 -104.5 -39t-22.5 -121h143v-279h-278v279q0 152 70 225.5t208 50.5zM940 1591l-16 -116q-71 6 -104.5 -39t-22.5 -121h143v-279h-278v279q0 152 70 225.5t208 50.5z" />
    <glyph glyph-name="quotedblright" unicode="&#x201d;" horiz-adv-x="1103" 
d="M164 920l16 116q71 -6 104.5 39t22.5 121h-143v279h278v-279q0 -152 -70 -225.5t-208 -50.5zM535 920l16 116q71 -6 104.5 39t22.5 121h-143v279h278v-279q0 -152 -70 -225.5t-208 -50.5z" />
    <glyph glyph-name="quotedblbase" unicode="&#x201e;" horiz-adv-x="1228" 
d="M164 0l16 117q72 -6 105 38.5t22 120.5h-143v279h278v-279q0 -152 -70 -225.5t-208 -50.5zM535 0l16 117q72 -6 105 38.5t22 120.5h-143v279h278v-279q0 -152 -70 -225.5t-208 -50.5z" />
    <glyph glyph-name="uni201F" unicode="&#x201f;" horiz-adv-x="1103" 
d="M569 920q-138 -23 -208 50.5t-70 225.5v279h278v-279h-143q-11 -76 22.5 -121t104.5 -39zM940 920q-138 -23 -208 50.5t-70 225.5v279h278v-279h-143q-11 -76 22.5 -121t104.5 -39z" />
    <glyph glyph-name="dagger" unicode="&#x2020;" horiz-adv-x="1105" 
d="M983 1106v-215h-291v-891h-278v891h-291v215h291v369h278v-369h291z" />
    <glyph glyph-name="daggerdbl" unicode="&#x2021;" horiz-adv-x="983" 
d="M860 891h-229v-240h229v-215h-229v-436h-279v436h-227v215h227v240h-227v215h227v369h279v-369h229v-215z" />
    <glyph glyph-name="bullet" unicode="&#x2022;" horiz-adv-x="1474" 
d="M743 338q-131 0 -222 88.5t-91 218.5q0 131 91 219t222 88q125 0 213 -88t88 -219q0 -129 -88.5 -218t-212.5 -89z" />
    <glyph glyph-name="ellipsis" unicode="&#x2026;" horiz-adv-x="1507" 
d="M164 0v279h278v-279h-278zM614 0v279h279v-279h-279zM1065 0v279h278v-279h-278z" />
    <glyph glyph-name="perthousand" unicode="&#x2030;" horiz-adv-x="2682" 
d="M492 768q-153 0 -261 108t-108 261q0 150 110 259t259 109q153 0 260.5 -107.5t107.5 -260.5t-108 -261t-260 -108zM369 0l-185 184l1291 1291l184 -187zM492 1004q54 0 93.5 39.5t39.5 93.5t-39.5 93.5t-93.5 39.5t-94 -39.5t-40 -93.5t40 -93.5t94 -39.5zM1352 -31
q-153 0 -261 108t-108 261q0 150 110.5 259.5t258.5 109.5q152 0 260 -107.5t108 -261.5t-108 -261.5t-260 -107.5zM2191 -31q-153 0 -260.5 107.5t-107.5 261.5q0 150 110 259.5t258 109.5q153 0 261 -108t108 -261t-108 -261t-261 -108zM1352 205q54 0 93.5 39.5
t39.5 93.5t-39.5 93.5t-93.5 39.5t-93.5 -39.5t-39.5 -93.5t39.5 -93.5t93.5 -39.5zM2191 205q54 0 93.5 39.5t39.5 93.5t-39.5 93.5t-93.5 39.5t-93.5 -39.5t-39.5 -93.5t39.5 -93.5t93.5 -39.5z" />
    <glyph glyph-name="guilsinglleft" unicode="&#x2039;" horiz-adv-x="1320" 
d="M782 150l-495 495l495 496l172 -172l-336 -324l336 -323z" />
    <glyph glyph-name="guilsinglright" unicode="&#x203a;" horiz-adv-x="1320" 
d="M539 150l-172 172l335 323l-335 324l172 172l495 -496z" />
    <glyph glyph-name="fraction" unicode="&#x2044;" horiz-adv-x="559" 
d="M-135 0l-158 117l987 1372l158 -119z" />
    <glyph glyph-name="uni2060" unicode="&#x2060;" horiz-adv-x="0" 
 />
    <glyph glyph-name="uni2070" unicode="&#x2070;" horiz-adv-x="974" 
d="M487 530q-159 0 -251.5 97.5t-92.5 269.5v229q0 169 93 268t251 99t251 -97.5t93 -269.5v-229q0 -173 -90.5 -270t-253.5 -97zM487 694q80 0 123 52.5t43 150.5v229q0 95 -42.5 149t-123.5 54q-78 0 -120.5 -53t-42.5 -150v-229q0 -96 40.5 -149.5t122.5 -53.5z" />
    <glyph glyph-name="uni2074" unicode="&#x2074;" horiz-adv-x="864" 
d="M504 553v143h-402v164l291 615h201l-291 -615h201v230h176v-230h82v-164h-82v-143h-176z" />
    <glyph glyph-name="uni2075" unicode="&#x2075;" horiz-adv-x="831" 
d="M434 1143q130 0 212.5 -84.5t82.5 -216.5q0 -129 -97.5 -219.5t-230.5 -90.5q-104 0 -187 63.5t-112 164.5l168 45q12 -48 52.5 -77.5t87.5 -29.5q58 0 100.5 42.5t42.5 101.5q0 60 -42 102.5t-101 42.5q-78 0 -127 -49l-148 45l29 492h504v-162h-351l-10 -201
q64 31 127 31z" />
    <glyph glyph-name="uni2076" unicode="&#x2076;" horiz-adv-x="894" 
d="M496 1141q131 0 214 -85t83 -218q0 -131 -95.5 -221.5t-228.5 -90.5q-141 0 -233.5 94.5t-92.5 245.5v271q0 165 93.5 260.5t252.5 95.5q144 0 242 -88l-125 -125q-52 49 -117 49q-74 0 -119.5 -49t-45.5 -117v-80q73 58 172 58zM469 692q60 0 102.5 42.5t42.5 103.5
q0 60 -42.5 102.5t-102.5 42.5t-102.5 -42.5t-42.5 -102.5q0 -59 42 -102.5t103 -43.5z" />
    <glyph glyph-name="uni2077" unicode="&#x2077;" horiz-adv-x="765" 
d="M166 553l311 758h-395v164h582v-164l-310 -758h-188z" />
    <glyph glyph-name="uni2078" unicode="&#x2078;" horiz-adv-x="894" 
d="M674 1044q47 -39 72.5 -97.5t25.5 -123.5q0 -129 -92.5 -213t-233.5 -84t-232 84t-91 213q0 137 96 221q-72 82 -72 183q0 119 83 192.5t216 73.5t216 -73.5t83 -192.5q0 -106 -71 -183zM446 1329q-53 0 -82.5 -25.5t-29.5 -76.5t29.5 -77t82.5 -26t83 26t30 77t-30 76.5
t-83 25.5zM446 692q63 0 101.5 34t38.5 97q0 64 -38.5 99.5t-101.5 35.5t-100 -35t-37 -100q0 -63 37 -97t100 -34z" />
    <glyph glyph-name="uni2079" unicode="&#x2079;" horiz-adv-x="894" 
d="M426 1493q141 0 233.5 -94.5t92.5 -245.5v-270q0 -165 -93.5 -261t-252.5 -96q-144 0 -242 88l125 125q52 -49 117 -49q74 0 119.5 49t45.5 117v80q-72 -57 -172 -57q-131 0 -214 85t-83 218q0 131 95.5 221t228.5 90zM426 1036q60 0 102.5 43t42.5 103q0 59 -42 102
t-103 43q-60 0 -102.5 -42t-42.5 -103q0 -60 42.5 -103t102.5 -43z" />
    <glyph glyph-name="uni2080" unicode="&#x2080;" horiz-adv-x="974" 
d="M487 -23q-159 0 -251.5 97.5t-92.5 269.5v229q0 169 93 268t251 99t251 -97.5t93 -269.5v-229q0 -173 -90.5 -270t-253.5 -97zM487 141q80 0 123 52.5t43 150.5v229q0 95 -42.5 149t-123.5 54q-78 0 -120.5 -53t-42.5 -150v-229q0 -96 40.5 -149.5t122.5 -53.5z" />
    <glyph glyph-name="uni2081" unicode="&#x2081;" horiz-adv-x="718" 
d="M295 0v733l-172 -106v190l172 105h178v-922h-178z" />
    <glyph glyph-name="uni2082" unicode="&#x2082;" horiz-adv-x="851" 
d="M580 346l-207 -182h377v-164h-648v152l387 344q80 72 80 135q0 65 -38 106t-101 41q-65 0 -107.5 -43t-39.5 -102h-181q0 142 91 225.5t241 83.5q136 0 226 -87.5t90 -225.5q0 -40 -8 -73.5t-18.5 -56.5t-37 -52.5t-45 -46.5t-61.5 -54z" />
    <glyph glyph-name="uni2083" unicode="&#x2083;" horiz-adv-x="837" 
d="M510 573q97 -28 151 -107t54 -179q0 -130 -96 -220t-228 -90q-106 0 -193 62.5t-116 165.5l170 45q13 -51 52 -79t87 -28q60 0 103 42t43 102q0 61 -42 103t-104 42q-39 0 -72 -20l-79 137l247 207h-368v166h579v-166z" />
    <glyph glyph-name="uni2084" unicode="&#x2084;" horiz-adv-x="864" 
d="M504 0v143h-402v164l291 615h201l-291 -615h201v230h176v-230h82v-164h-82v-143h-176z" />
    <glyph glyph-name="uni2085" unicode="&#x2085;" horiz-adv-x="831" 
d="M434 590q130 0 212.5 -84.5t82.5 -216.5q0 -129 -97 -219t-231 -90q-104 0 -187 63t-112 164l168 45q12 -48 52.5 -77.5t87.5 -29.5q58 0 100.5 42.5t42.5 101.5q0 60 -42 102.5t-101 42.5q-78 0 -127 -49l-148 45l29 492h504v-162h-351l-10 -201q64 31 127 31z" />
    <glyph glyph-name="uni2086" unicode="&#x2086;" horiz-adv-x="894" 
d="M496 588q131 0 214 -85t83 -218q0 -131 -95.5 -221.5t-228.5 -90.5q-141 0 -233.5 94.5t-92.5 245.5v271q0 165 93.5 260.5t252.5 95.5q144 0 242 -88l-125 -125q-52 49 -117 49q-74 0 -119.5 -49t-45.5 -117v-80q73 58 172 58zM469 139q60 0 102.5 42.5t42.5 103.5
q0 60 -42.5 102.5t-102.5 42.5t-102.5 -42.5t-42.5 -102.5q0 -59 42 -102.5t103 -43.5z" />
    <glyph glyph-name="uni2087" unicode="&#x2087;" horiz-adv-x="765" 
d="M166 0l311 758h-395v164h582v-164l-310 -758h-188z" />
    <glyph glyph-name="uni2088" unicode="&#x2088;" horiz-adv-x="894" 
d="M674 492q47 -39 72.5 -98t25.5 -124q0 -129 -92.5 -213t-233.5 -84t-232 84t-91 213q0 64 25 122.5t71 99.5q-72 82 -72 182q0 119 83 192.5t216 73.5t216 -73.5t83 -192.5q0 -105 -71 -182zM446 776q-53 0 -82.5 -25.5t-29.5 -76.5t29.5 -77t82.5 -26t83 26t30 77
t-30 76.5t-83 25.5zM446 139q63 0 101.5 34t38.5 97q0 65 -38.5 100.5t-101.5 35.5t-100 -35.5t-37 -100.5q0 -63 37 -97t100 -34z" />
    <glyph glyph-name="uni2089" unicode="&#x2089;" horiz-adv-x="894" 
d="M426 940q141 0 233.5 -94.5t92.5 -245.5v-270q0 -165 -93.5 -261t-252.5 -96q-144 0 -242 88l125 125q52 -49 117 -49q74 0 119.5 49t45.5 117v80q-72 -57 -172 -57q-131 0 -214 85t-83 218q0 131 95.5 221t228.5 90zM426 483q60 0 102.5 43t42.5 103q0 59 -42 102
t-103 43q-60 0 -102.5 -42t-42.5 -103q0 -60 42.5 -103t102.5 -43z" />
    <glyph glyph-name="Euro" unicode="&#x20ac;" horiz-adv-x="1421" 
d="M942 231q142 -3 252 78l145 -227q-174 -113 -397 -113q-249 0 -424.5 130.5t-247.5 357.5h-209v215h168q-4 40 -4 65q0 24 4 64h-168v215h207q70 230 245 359.5t429 129.5q226 0 397 -110l-147 -230q-106 80 -250 80q-263 0 -369 -229h471v-215h-522q0 -10 -1 -31t-1 -33
q0 -25 4 -65h520v-215h-469q51 -110 143.5 -168.5t223.5 -57.5z" />
    <glyph glyph-name="uni20B4" unicode="&#x20b4;" horiz-adv-x="1310" 
d="M1128 995h101v-215h-1145l-2 215h739l4 6q17 30 17 76q0 61 -39 103q-55 61 -137 61q-101 0 -158 -90q-20 -34 -27 -74h-295q12 130 84 232q65 94 169.5 145t226.5 51q97 0 185 -32t150 -89t99 -142t37 -169q0 -37 -9 -78zM1229 696v-215h-748q-28 -32 -28 -84
q0 -80 63 -123q61 -41 139 -41q115 0 189 111q8 11 22 53h287q-6 -100 -68 -198q-69 -112 -183 -171t-247 -59q-157 0 -278 62q-102 53 -160.5 153t-58.5 215q0 46 8 82h-84v215h1147z" />
    <glyph glyph-name="uni20BD" unicode="&#x20bd;" horiz-adv-x="1413" 
d="M848 526h-283v-127h479v-215h-479v-184h-278v184h-144v215h144v127h-144v236h144v713h561q59 0 123 -9q190 -28 285.5 -157t95.5 -320t-95.5 -309t-285.5 -145q-64 -9 -123 -9zM565 1214v-452h271q53 0 94 12q141 43 141 207q0 35 -6.5 67t-21.5 64.5t-44 56.5t-69 35
q-37 10 -94 10h-271z" />
    <glyph glyph-name="uni2116" unicode="&#x2116;" horiz-adv-x="2334" 
d="M1864 768q-153 0 -261 108t-108 261q0 150 110 259t259 109q153 0 260.5 -107.5t107.5 -260.5t-108 -261t-260 -108zM143 0v1475h283l641 -983v983h283v-1475h-283l-641 983v-983h-283zM1864 1004q54 0 93.5 39.5t39.5 93.5t-39.5 93.5t-93.5 39.5t-93.5 -39.5
t-39.5 -93.5t39.5 -93.5t93.5 -39.5zM1556 461v215h615v-215h-615z" />
    <glyph glyph-name="trademark" unicode="&#x2122;" horiz-adv-x="1902" 
d="M375 707v596h-252v172h696v-172h-252v-596h-192zM961 707v768h153l256 -388l256 388h154v-768h-185v411l-174 -270h-102l-174 270v-411h-184z" />
    <glyph glyph-name="arrowleft" unicode="&#x2190;" horiz-adv-x="2078" 
d="M1792 539h-1139l258 -258l-129 -131l-495 495l495 496l129 -131l-256 -256h1137v-215z" />
    <glyph glyph-name="arrowup" unicode="&#x2191;" horiz-adv-x="1482" 
d="M635 0v1139l-258 -258l-131 129l495 495l496 -495l-131 -129l-256 256v-1137h-215z" />
    <glyph glyph-name="arrowright" unicode="&#x2192;" horiz-adv-x="2078" 
d="M287 539v215h1136l-256 256l129 131l496 -496l-496 -495l-129 131l258 258h-1138z" />
    <glyph glyph-name="arrowdown" unicode="&#x2193;" horiz-adv-x="1482" 
d="M635 1331h215v-1136l256 256l131 -129l-496 -496l-495 496l131 129l258 -258v1138z" />
    <glyph glyph-name="carriagereturn" unicode="&#x21b5;" horiz-adv-x="1687" 
d="M782 150l-495 495l495 496l129 -131l-256 -256h695v721h215v-938h-910l256 -256z" />
    <glyph glyph-name="partialdiff" unicode="&#x2202;" horiz-adv-x="1230" 
d="M616 -31q-237 0 -385.5 152.5t-148.5 392.5q0 244 149.5 395.5t384.5 151.5q40 0 67.5 -2t45.5 -3.5t39.5 -9.5t31 -12.5t39.5 -20t48 -24.5q-15 100 -101 182q-173 162 -374 175l43 210q316 -10 487 -221q64 -79 107 -172.5t64 -201t28.5 -208.5t7.5 -231
q0 -251 -142.5 -402t-390.5 -151zM616 215q123 0 188.5 81t65.5 220q0 140 -66 219.5t-188 79.5q-126 0 -191 -79t-65 -220q0 -143 65.5 -222t190.5 -79z" />
    <glyph glyph-name="emptyset" unicode="&#x2205;" horiz-adv-x="1228" 
d="M1149 1016l-115 -115q109 -144 109 -323q0 -146 -72.5 -270t-196.5 -196.5t-270 -72.5q-182 0 -325 111l-115 -115l-103 102l115 115q-108 143 -108 326q0 145 72 268.5t195.5 195.5t268.5 72q185 0 326 -110l117 116zM246 578q0 -106 59 -197l496 496q-88 59 -197 59
q-149 0 -253.5 -104.5t-104.5 -253.5zM963 578q0 108 -58 194l-497 -493q92 -60 196 -60q146 0 252.5 106.5t106.5 252.5z" />
    <glyph glyph-name="product" unicode="&#x220f;" horiz-adv-x="1273" 
d="M123 0v1475h1028v-1475h-279v1260h-471v-1260h-278z" />
    <glyph glyph-name="summation" unicode="&#x2211;" horiz-adv-x="1165" 
d="M1042 1331v-250h-561l561 -438v-98l-561 -439h561v-249h-919v249l610 488l-610 487v250h919z" />
    <glyph glyph-name="minus" unicode="&#x2212;" horiz-adv-x="1105" 
d="M123 631v215h860v-215h-860z" />
    <glyph glyph-name="uni2215" unicode="&#x2215;" horiz-adv-x="917" 
d="M516 1475h279l-394 -1475h-278z" />
    <glyph glyph-name="radical" unicode="&#x221a;" horiz-adv-x="1222" 
d="M494 0l-193 612h-276v205h448l154 -485l409 1302h238l-514 -1634h-266z" />
    <glyph glyph-name="infinity" unicode="&#x221e;" horiz-adv-x="1538" 
d="M1087 1032q104 0 189 -51t137.5 -151t52.5 -232q0 -195 -106.5 -323t-272.5 -128q-226 0 -319 220q-34 -79 -90.5 -130t-114 -70.5t-121.5 -19.5q-167 0 -270.5 124t-99.5 319q5 187 110 314.5t271 127.5q104 0 188 -52.5t131 -166.5q49 113 133.5 166t181.5 53zM455 397
q65 0 122 48.5t117 144.5q-60 96 -117 144t-122 48q-71 0 -118.5 -52.5t-47.5 -139.5t47.5 -140t118.5 -53zM1085 397q71 0 118.5 53t47.5 140t-47.5 139.5t-118.5 52.5q-65 0 -122 -48t-117 -144q60 -96 117 -144.5t122 -48.5z" />
    <glyph glyph-name="integral" unicode="&#x222b;" horiz-adv-x="1228" 
d="M117 -451l22 226h127q62 0 99.5 32t42.5 80l127 1215q6 57 9 79.5t14 71t31.5 84t51.5 66.5q21 21 45.5 38t45.5 27.5t48.5 18t45.5 11.5t45 5.5t39.5 2t36.5 0t28 -0.5h137l-22 -225h-127q-62 0 -99.5 -32.5t-42.5 -80.5l-127 -1214q-6 -57 -9 -79.5t-14 -71t-31.5 -84
t-51.5 -66.5q-21 -21 -45.5 -38t-45.5 -27.5t-48.5 -18.5t-45 -11.5t-45.5 -5.5t-39.5 -2.5t-36.5 0t-28 0.5h-137z" />
    <glyph glyph-name="approxequal" unicode="&#x2248;" horiz-adv-x="1501" 
d="M954 786q-53 0 -103.5 21t-88.5 51t-72 60.5t-66.5 51.5t-58.5 21q-40 0 -54.5 -42t5.5 -124h-201q-30 155 38.5 255t191.5 100q54 0 105.5 -21t90.5 -51t73.5 -60.5t66 -51.5t55.5 -21q40 0 54 49.5t-5 116.5h201q31 -149 -37 -252t-195 -103zM954 313q-54 0 -104.5 21
t-89 51.5t-72 60.5t-65.5 51t-58 21q-40 0 -54.5 -41.5t5.5 -124.5h-201q-30 155 38.5 255t191.5 100q54 0 105.5 -21t90.5 -51t73.5 -60.5t66 -51.5t55.5 -21q40 0 54 48t-5 118h201q31 -147 -37.5 -251t-194.5 -104z" />
    <glyph glyph-name="notequal" unicode="&#x2260;" horiz-adv-x="1536" 
d="M1290 829h-325l-129 -184h454v-215h-604l-172 -246l-176 123l86 123h-178v215h329l130 184h-459v215h608l172 246l174 -123l-86 -123h176v-215z" />
    <glyph glyph-name="lessequal" unicode="&#x2264;" horiz-adv-x="1536" 
d="M1290 342l-1044 315v164l1044 316v-215l-661 -183l661 -182v-215zM246 0v215h1044v-215h-1044z" />
    <glyph glyph-name="greaterequal" unicode="&#x2265;" horiz-adv-x="1536" 
d="M246 342v215l661 182l-661 183v215l1044 -316v-164zM1290 0h-1044v215h1044v-215z" />
    <glyph glyph-name="lozenge" unicode="&#x25ca;" horiz-adv-x="1140" 
d="M399 -20l-297 710l297 711h342l297 -711l-297 -710h-342zM569 223l195 467l-195 467l-192 -467z" />
    <glyph glyph-name="i.loclTRK" 
d="M164 1260v245h278v-245h-278zM164 0v1106h278v-1106h-278z" />
    <glyph glyph-name="uni0414.loclBGR" horiz-adv-x="1591" 
d="M1364 260h125v-444h-262v184h-885v-184h-260v444h125l371 1215h415zM494 260h583l-295 952z" />
    <glyph glyph-name="uni0416.loclBGR" horiz-adv-x="1892" 
d="M20 0l523 748l-484 727h330l418 -660v660h278v-660l418 660h330l-483 -727l522 -748h-342l-445 651v-651h-278v651l-445 -651h-342z" />
    <glyph glyph-name="uni041A.loclBGR" horiz-adv-x="1361" 
d="M143 0v1475h279v-680l561 680h340l-616 -727l655 -748h-352l-588 672v-672h-279z" />
    <glyph glyph-name="uni041B.loclBGR" horiz-adv-x="1337" 
d="M461 1475h416l450 -1475h-287l-374 1212l-369 -1212h-287z" />
    <glyph glyph-name="uni0432.loclBGR" horiz-adv-x="1261" 
d="M977 817q106 -44 164.5 -146t58.5 -237q0 -220 -148.5 -342.5t-398.5 -122.5q-189 0 -318 76.5t-173 235.5q-21 78 -21 200v604q0 74 17 132q42 143 166 215.5t278 72.5q207 0 344 -122t137 -306q0 -160 -106 -260zM666 227q115 0 185.5 59.5t70.5 159.5q0 108 -83 160.5
t-227 52.5v242q92 6 141.5 51.5t49.5 118.5q0 82 -57.5 128t-137.5 46q-115 0 -159 -86q-27 -53 -27 -149v-549q0 -80 14 -119q22 -58 87.5 -86.5t142.5 -28.5z" />
    <glyph glyph-name="uni0433.loclBGR" horiz-adv-x="1120" 
d="M545 -31q-217 0 -340 97.5t-123 267.5q0 129 79.5 203.5t268.5 124.5q135 35 193.5 54.5t80 38t21.5 48.5q0 47 -46.5 73t-123.5 21q-78 -6 -124.5 -42t-53.5 -97l-285 51q22 151 148 239.5t321 88.5q201 0 320.5 -94.5t119.5 -254.5q0 -127 -82.5 -199.5t-285.5 -125.5
q-126 -33 -178 -52t-70 -38t-18 -54q0 -53 41 -81.5t116 -28.5q92 0 152.5 44t77.5 122l284 -43q-28 -174 -156 -268.5t-337 -94.5z" />
    <glyph glyph-name="uni0434.loclBGR" horiz-adv-x="1277" 
d="M891 1106h244v-1182q0 -82 -17 -149q-26 -99 -99.5 -167t-175.5 -99t-227 -31q-139 0 -257.5 65t-182.5 174l258 125q26 -48 75 -74t109 -26q64 0 118 20t88 63.5t32 102.5v111q-112 -70 -264 -70q-150 0 -267 76.5t-180 209.5t-63 298q0 256 144.5 420t379.5 164
q168 0 285 -93v62zM637 217q254 0 254 336q0 158 -59.5 247t-184.5 89q-133 0 -201.5 -94.5t-68.5 -241.5q0 -148 65.5 -242t194.5 -94z" />
    <glyph glyph-name="uni0436.loclBGR" horiz-adv-x="1667" 
d="M20 0l386 553l-359 553h303l334 -533v902h246v-902l334 533h303l-359 -553l385 -553h-321l-342 532v-532h-246v532l-342 -532h-322z" />
    <glyph glyph-name="uni0437.loclBGR" horiz-adv-x="1366" 
d="M682 -399q-113 0 -212 26.5t-172.5 72.5t-126.5 100t-89 116l235 164q104 -217 377 -217q149 0 222 61t73 150q0 170 -287 178l-163 4v262q102 0 137 2q114 5 183 49t69 129q0 82 -64.5 130.5t-171.5 48.5q-95 0 -176 -41.5t-121 -98.5l-190 205q82 85 212 140t283 55
q80 0 154.5 -15.5t142 -49.5t117.5 -83t79.5 -121t29.5 -159q0 -96 -34 -180.5t-97 -141.5q192 -86 192 -313q0 -107 -47.5 -197t-129 -150t-191.5 -93t-234 -33z" />
    <glyph glyph-name="uni0438.loclBGR" horiz-adv-x="1302" 
d="M879 1106h280v-1106h-246v115q-132 -148 -358 -148q-70 0 -128.5 15.5t-100 39t-75 60t-54.5 70.5t-36 79.5t-22 78t-11 73.5t-4.5 59t-0.5 43v621h283v-522q0 -32 0.5 -52t5 -61.5t12.5 -69t25.5 -63t42 -57t63.5 -37t88 -15.5q33 0 62 6t62 26.5t57 53.5t39.5 92
t15.5 138v561z" />
    <glyph glyph-name="uni0439.loclBGR" horiz-adv-x="1302" 
d="M641 1229q-135 0 -230.5 95t-95.5 230h215q0 -46 32.5 -78t78.5 -32t78.5 32t32.5 78h215q0 -135 -95.5 -230t-230.5 -95zM879 1106h280v-1106h-246v115q-132 -148 -358 -148q-70 0 -128.5 15.5t-100 39t-75 60t-54.5 70.5t-36 79.5t-22 78t-11 73.5t-4.5 59t-0.5 43v621
h283v-522q0 -32 0.5 -52t5 -61.5t12.5 -69t25.5 -63t42 -57t63.5 -37t88 -15.5q33 0 62 6t62 26.5t57 53.5t39.5 92t15.5 138v561z" />
    <glyph glyph-name="uni045D.loclBGR" horiz-adv-x="1302" 
d="M999 1440l-69 -201l-576 197l68 202zM879 1106h280v-1106h-246v115q-132 -148 -358 -148q-70 0 -128.5 15.5t-100 39t-75 60t-54.5 70.5t-36 79.5t-22 78t-11 73.5t-4.5 59t-0.5 43v621h283v-522q0 -32 0.5 -52t5 -61.5t12.5 -69t25.5 -63t42 -57t63.5 -37t88 -15.5
q33 0 62 6t62 26.5t57 53.5t39.5 92t15.5 138v561z" />
    <glyph glyph-name="uni043A.loclBGR" horiz-adv-x="1130" 
d="M141 0l2 1475h283v-902l375 533h344l-400 -553l426 -553h-362l-383 532v-532h-285z" />
    <glyph glyph-name="uni043B.loclBGR" horiz-adv-x="1163" 
d="M442 1106h279l401 -1106h-278l-262 766l-263 -766h-278z" />
    <glyph glyph-name="uni043D.loclBGR" horiz-adv-x="1296" 
d="M141 0v1106h279v-422h454v422h279v-1106h-279v424h-454v-424h-279z" />
    <glyph glyph-name="uni043F.loclBGR" horiz-adv-x="1302" 
d="M748 1139q70 0 128.5 -15.5t100 -39t75 -60t54.5 -70.5t36 -79.5t22 -78t11 -73.5t4.5 -59t0.5 -43v-621h-283v522q0 32 -0.5 52t-5 61t-13 69.5t-26 63.5t-42 57t-63.5 37t-88 15q-33 0 -62 -6t-62 -26.5t-56.5 -53.5t-39 -92t-15.5 -138v-561h-283v1106h248v-115
q132 148 359 148z" />
    <glyph glyph-name="uni0442.loclBGR" horiz-adv-x="1875" 
d="M1370 1133q185 0 284 -110t99 -296v-727h-278v653q0 109 -52 170.5t-143 61.5q-87 0 -140 -59.5t-53 -155.5v-670h-278v653q0 109 -52 170.5t-143 61.5q-87 0 -139.5 -59.5t-52.5 -155.5v-670h-281v1106h246v-121q57 69 141.5 108.5t182.5 39.5q115 0 196 -45.5
t125 -126.5q54 80 143.5 126t194.5 46z" />
    <glyph glyph-name="uni0447.loclBGR" horiz-adv-x="1200" 
d="M776 0v358q-118 -59 -274 -59q-171 0 -273 77t-131 226q-16 84 -16 227v277h283v-277q0 -92 14 -149q19 -72 63 -103.5t127 -31.5q124 0 207 65v496h281v-1106h-281z" />
    <glyph glyph-name="uni0446.loclBGR" horiz-adv-x="1355" 
d="M1159 246h176v-430h-278v184h-144v115q-132 -148 -358 -148q-70 0 -128.5 15.5t-100 39t-75 60t-54.5 70.5t-36 79.5t-22 78t-11 73.5t-4.5 59t-0.5 43v621h283v-522q0 -32 0.5 -52t5 -61.5t12.5 -69t25.5 -63t42 -57t63.5 -37t88 -15.5q33 0 62 6t62 26.5t57 53.5
t39.5 92t15.5 138v561h280v-860z" />
    <glyph glyph-name="uni0448.loclBGR" horiz-adv-x="1875" 
d="M1454 1106h281v-1106h-246v121q-57 -69 -141.5 -108.5t-182.5 -39.5q-115 0 -196 45.5t-125 126.5q-54 -80 -143.5 -126t-194.5 -46q-185 0 -284 110t-99 296v727h278v-653q0 -109 52 -170.5t143 -61.5q87 0 139.5 59.5t52.5 155.5v670h279v-653q0 -109 52 -170.5
t143 -61.5q87 0 139.5 59.5t52.5 155.5v670z" />
    <glyph glyph-name="uni0449.loclBGR" horiz-adv-x="1929" 
d="M1735 246h174v-492h-279v246h-143v119q-56 -69 -140 -107.5t-182 -38.5q-115 0 -196 45.5t-125 126.5q-54 -80 -143.5 -126t-194.5 -46q-185 0 -284 110t-99 296v727h278v-653q0 -109 52 -170.5t143 -61.5q87 0 139.5 59.5t52.5 155.5v670h279v-653q0 -109 52 -170.5
t143 -61.5q87 0 139.5 59.5t52.5 155.5v670h281v-860z" />
    <glyph glyph-name="uni044C.loclBGR" horiz-adv-x="1187" 
d="M141 0v1106h279v-352h178q140 0 209 -13q299 -66 299 -366q0 -292 -297 -361q-62 -14 -211 -14h-457zM420 215h209q47 0 86 10q44 12 76 54.5t32 95.5q0 56 -33 98t-79 55q-40 11 -82 11h-209v-324z" />
    <glyph glyph-name="uni044E.loclBGR" horiz-adv-x="1775" 
d="M1147 1137q161 0 288 -75t197 -208t70 -299q0 -259 -156.5 -422.5t-404.5 -163.5q-194 0 -332 117.5t-174 327.5h-213v-414h-281v1106h2v369h279v-783h213q36 212 175 328.5t337 116.5zM1139 229q131 0 199.5 88t68.5 236q0 152 -68.5 238t-199.5 86q-130 0 -196 -87
t-66 -235q0 -153 67.5 -239.5t194.5 -86.5z" />
    <glyph glyph-name="uni0431.loclSRB" horiz-adv-x="1236" 
d="M610 -33q-233 3 -365.5 149.5t-156.5 397.5q-13 141 5.5 312.5t66.5 279.5q62 136 194 229q82 58 182 86.5t269.5 50t232.5 33.5l25 -245q-57 -15 -175.5 -25.5t-221.5 -28.5t-164 -57q-67 -42 -106.5 -119t-45.5 -162q111 162 336 162q107 0 196.5 -41t148.5 -111.5
t91.5 -165t32.5 -202.5q0 -243 -153 -394.5t-392 -148.5zM623 227q116 0 177.5 72.5t61.5 198.5q0 127 -62 198.5t-177 71.5q-117 0 -178.5 -71t-61.5 -199q0 -130 62 -200.5t178 -70.5z" />
    <glyph glyph-name="zero.tf" horiz-adv-x="1269" 
d="M635 -31q-246 0 -396.5 150.5t-150.5 396.5v442q0 246 150.5 396.5t396.5 150.5t396.5 -150.5t150.5 -396.5v-442q0 -246 -150.5 -396.5t-396.5 -150.5zM635 233q110 0 186 76.5t76 186.5v485q0 110 -76 186t-186 76t-186 -76t-76 -186v-485q0 -110 76 -186.5t186 -76.5z
" />
    <glyph glyph-name="one.tf" horiz-adv-x="1269" 
d="M580 0v1171l-277 -170v308l277 166h284v-1475h-284z" />
    <glyph glyph-name="two.tf" horiz-adv-x="1269" 
d="M879 553l-330 -289h600v-262h-1032v242l618 549q127 113 127 217q0 102 -61.5 167.5t-161.5 65.5q-104 0 -171.5 -68.5t-64.5 -162.5h-286q0 226 145 359.5t383 133.5q219 0 361.5 -139t142.5 -360q0 -46 -7 -86.5t-15 -71t-30 -65t-37 -55.5t-52 -57t-58 -55t-71 -63z
" />
    <glyph glyph-name="three.tf" horiz-adv-x="1269" 
d="M793 924q154 -46 239.5 -172.5t85.5 -286.5q0 -137 -70 -250.5t-188 -177.5t-256 -64q-168 0 -306 99.5t-185 261.5l270 72q21 -79 83 -124.5t138 -45.5q96 0 164 67t68 162q0 97 -66 164t-166 67q-59 0 -115 -32l-124 219l397 329h-592v263h922v-263z" />
    <glyph glyph-name="four.tf" horiz-adv-x="1269" 
d="M762 0v229h-641v260l465 986h319l-465 -986h322v369h282v-369h132v-260h-132v-229h-282z" />
    <glyph glyph-name="five.tf" horiz-adv-x="1269" 
d="M666 944q208 0 339.5 -134.5t131.5 -344.5q0 -136 -72.5 -251t-192.5 -180t-258 -65q-167 0 -300 101t-179 264l268 72q20 -76 84 -123t138 -47q95 0 163 67t68 162t-68 162t-163 67q-120 0 -201 -76l-236 72l45 785h805v-261h-559l-18 -321q96 51 205 51z" />
    <glyph glyph-name="six.tf" horiz-adv-x="1269" 
d="M678 946q208 0 339.5 -135.5t131.5 -345.5q0 -137 -70 -251.5t-188 -179.5t-256 -65q-222 0 -368 152t-146 391v428q0 260 148.5 411.5t398.5 151.5q231 0 383 -139l-199 -199q-78 78 -184 78q-116 0 -189 -78t-73 -184v-127q122 92 272 92zM635 236q95 0 163 67t68 162
t-67 163t-162 68t-163 -68t-68 -163q0 -93 67 -161t162 -68z" />
    <glyph glyph-name="seven.tf" horiz-adv-x="1269" 
d="M307 0l496 1212h-631v263h930v-263l-494 -1212h-301z" />
    <glyph glyph-name="eight.tf" horiz-adv-x="1269" 
d="M995 793q73 -64 113.5 -156.5t40.5 -194.5q0 -206 -146 -339.5t-370 -133.5t-369 133.5t-145 339.5q0 102 39.5 194t113.5 157q-114 129 -114 288q0 191 132 307.5t343 116.5t343 -116.5t132 -307.5q0 -160 -113 -288zM633 1245q-82 0 -131 -41.5t-49 -122.5
q0 -80 48.5 -120.5t131.5 -40.5t131.5 40.5t48.5 120.5q0 81 -49 122.5t-131 41.5zM633 231q101 0 161 54.5t60 156.5q0 101 -60.5 157t-160.5 56t-159.5 -56t-59.5 -157q0 -102 59 -156.5t160 -54.5z" />
    <glyph glyph-name="nine.tf" horiz-adv-x="1269" 
d="M635 1505q222 0 368 -151.5t146 -390.5v-428q0 -260 -148.5 -412t-398.5 -152q-230 0 -383 140l199 198q78 -78 184 -78q116 0 189 78.5t73 184.5v127q-123 -93 -272 -93q-208 0 -339.5 136t-131.5 346q0 137 70 251t188 179t256 65zM633 778q95 0 163 68.5t68 163.5
q0 93 -67 161t-162 68q-96 0 -164 -67t-68 -162t67.5 -163.5t162.5 -68.5z" />
    <glyph glyph-name="colon.case" horiz-adv-x="731" 
d="M227 950v279h279v-279h-279zM225 246v278h279v-278h-279z" />
    <glyph glyph-name="exclamdown.case" horiz-adv-x="770" 
d="M246 1475h278v-246h-278v246zM246 1106h278v-1106h-278v1106z" />
    <glyph glyph-name="questiondown.case" horiz-adv-x="1153" 
d="M748 1475v-295h-293v295h293zM750 1075q0 -148 -64 -258q-23 -46 -51 -76.5t-78 -72.5t-90 -84q-39 -44 -54.5 -88t-15.5 -101q0 -62 27 -98q47 -64 151 -64q82 0 125 35q59 44 56 127h295q-12 -109 -63 -200.5t-130 -143.5q-122 -80 -270 -80q-265 0 -391 156
q-44 53 -69.5 122t-25.5 138q0 188 174 373q22 24 54 56t51 53t33 42q28 45 34.5 74t6.5 90h295z" />
    <glyph glyph-name="periodcentered.case" horiz-adv-x="1310" 
d="M659 573q-71 0 -119 47t-48 117t48 117t119 47q65 0 112.5 -47.5t47.5 -116.5t-47.5 -116.5t-112.5 -47.5z" />
    <glyph glyph-name="parenleft.case" horiz-adv-x="946" 
d="M657 -336q-178 209 -277 497t-93 576q-6 288 93 576t277 497l207 -151q-178 -214 -250.5 -436.5t-74.5 -485.5q2 -263 74.5 -485t250.5 -436z" />
    <glyph glyph-name="parenright.case" horiz-adv-x="946" 
d="M289 -336l-207 152q178 214 251 436.5t75 484.5q-2 262 -75 485t-251 437l207 151q178 -209 277 -497t93 -576q6 -288 -93 -576t-277 -497z" />
    <glyph glyph-name="braceleft.case" horiz-adv-x="940" 
d="M713 -399q-141 0 -221 80t-80 221v598q0 17 -11 32l-92 132q-23 34 -23 73.5t23 73.5l92 131q11 18 11 33v598q0 140 80 220.5t221 80.5h145v-262h-125q-25 0 -42 -17.5t-17 -42.5v-577q0 -99 -60 -184l-39 -54l39 -53q60 -85 60 -184v-578q0 -26 17 -43.5t42 -17.5h125
v-260h-145z" />
    <glyph glyph-name="braceright.case" horiz-adv-x="940" 
d="M227 -399h-145v260h125q25 0 42 17.5t17 43.5v578q0 99 60 184l39 53l-39 54q-60 85 -60 184v577q0 25 -17 42.5t-42 17.5h-125v262h145q141 0 221 -80.5t80 -220.5v-598q0 -15 11 -33l92 -131q23 -34 23 -73.5t-23 -73.5l-92 -132q-11 -15 -11 -32v-598q0 -141 -80 -221
t-221 -80z" />
    <glyph glyph-name="bracketleft.case" horiz-adv-x="878" 
d="M287 -399v2273h469v-246h-224v-1782h224v-245h-469z" />
    <glyph glyph-name="bracketright.case" horiz-adv-x="878" 
d="M592 -399h-469v245h223v1782h-223v246h469v-2273z" />
    <glyph glyph-name="hyphen.case" horiz-adv-x="860" 
d="M123 631v215h614v-215h-614z" />
    <glyph glyph-name="endash.case" horiz-adv-x="1105" 
d="M123 631v215h860v-215h-860z" />
    <glyph glyph-name="emdash.case" horiz-adv-x="1597" 
d="M123 631v215h1352v-215h-1352z" />
    <glyph glyph-name="guillemotleft.case" horiz-adv-x="1234" 
d="M526 281l-362 456l362 457l146 -115l-273 -342l273 -342zM967 281l-363 456l363 457l145 -115l-272 -342l272 -342z" />
    <glyph glyph-name="guillemotright.case" horiz-adv-x="1234" 
d="M268 281l-145 114l272 342l-272 342l145 115l363 -457zM709 281l-146 114l273 342l-273 342l146 115l362 -457z" />
    <glyph glyph-name="guilsinglleft.case" horiz-adv-x="1320" 
d="M782 242l-495 495l495 496l172 -172l-336 -324l336 -323z" />
    <glyph glyph-name="guilsinglright.case" horiz-adv-x="1320" 
d="M539 242l-172 172l335 323l-335 324l172 172l495 -496z" />
    <glyph glyph-name="greater.case" horiz-adv-x="1320" 
d="M539 242l-172 172l335 323l-335 324l172 172l495 -496z" />
    <glyph glyph-name="less.case" horiz-adv-x="1320" 
d="M782 242l-495 495l495 496l172 -172l-336 -324l336 -323z" />
    <glyph glyph-name="arrowright.case" horiz-adv-x="2078" 
d="M287 539v215h1136l-256 256l129 131l496 -496l-496 -495l-129 131l258 258h-1138z" />
    <glyph glyph-name="arrowleft.case" horiz-adv-x="2078" 
d="M1792 539h-1139l258 -258l-129 -131l-495 495l495 496l129 -131l-256 -256h1137v-215z" />
    <glyph glyph-name="at.case" horiz-adv-x="1878" 
d="M922 1505q153 0 282.5 -38.5t222.5 -106t158 -160t97 -201t32 -227.5q0 -213 -77.5 -322.5t-254.5 -109.5q-67 0 -130 24t-101 70q-85 -94 -236 -94q-171 0 -280 110t-109 287q0 179 113 288.5t281 109.5q111 0 210 -62v33h166l-4 -404q0 -145 90 -145q21 0 37.5 6t27 14
t17.5 25.5t11 30.5t6 39.5t2 42v47.5v10q0 89 -19.5 164t-52 127t-78 93t-93.5 65.5t-102.5 40.5t-101.5 22t-94 6q-266 0 -412 -154t-137 -425q9 -254 155 -390.5t396 -136.5q112 0 215 35l70 -205q-134 -45 -295 -45q-226 0 -402 94.5t-272 261.5t-96 377q0 162 41 296
t111.5 227t167 157t207 93.5t231.5 29.5zM932 557q162 0 162 180q0 88 -39 134.5t-115 46.5q-91 0 -136.5 -48t-45.5 -133q0 -84 45 -132t129 -48z" />
    <glyph glyph-name="copyright.case" horiz-adv-x="1871" 
d="M936 41q-178 0 -340 69t-279 186t-186.5 279t-69.5 340t69.5 340t186.5 279t279 186.5t340 69.5t340 -69.5t279 -186.5t186 -279t69 -340q0 -119 -31.5 -232.5t-87.5 -209t-137 -176.5t-176.5 -137t-209 -87.5t-232.5 -31.5zM936 301q167 0 308.5 82t223.5 223.5
t82 308.5q0 125 -48.5 239t-130.5 196.5t-196 131t-239 48.5t-239 -48.5t-196 -131t-130.5 -196.5t-48.5 -239q0 -167 82 -308.5t223.5 -223.5t308.5 -82zM954 477q-106 0 -179 32.5t-132 104.5q-102 128 -102 301q0 176 102 299q59 71 135.5 105.5t186.5 34.5
q115 0 206 -56q124 -75 158 -221l-209 -55q-16 58 -61 98q-45 39 -107 39q-87 0 -143 -69q-47 -60 -47 -175q0 -106 47 -172q51 -69 147 -69q72 0 107 35t53 88l213 -43q-38 -132 -135 -205q-93 -72 -240 -72z" />
    </font>
</defs>
</svg>
